<svg width="926" height="565" viewBox="0 0 926 565" fill="none" xmlns="http://www.w3.org/2000/svg">
<g clip-path="url(#clip0_128_65)">
<path d="M56.8 234H33.52V208.88C33.52 207.68 33.04 206.88 31.84 206.88C30.4 206.88 30.08 208 30.08 208.96V234H6.8V171.6H30.08V191.12C31.84 189.04 34.88 187.68 41.2 187.68C51.44 187.68 56.8 194.4 56.8 203.12V234ZM101.465 208.4C100.025 207.76 98.105 207.44 96.105 207.44C91.145 207.44 85.705 209.2 85.705 211.6V234H62.425V188.96H83.465V192.64C85.945 189.52 91.465 187.68 101.465 187.68V208.4ZM152.903 221.04C152.903 230.32 145.863 235.2 128.823 235.2C114.103 235.2 104.663 230.48 104.663 218.96H122.663C122.663 221.12 124.343 222.08 127.463 222.08C128.983 222.08 129.703 221.68 129.703 221.12C129.703 220.8 129.383 220.32 128.743 219.92C127.143 218.8 123.783 217.44 121.063 216.8C109.783 214.24 105.223 209.84 105.223 201.92C105.223 192.64 113.783 187.68 129.303 187.68C143.303 187.68 152.423 192 152.423 203.52H134.743C134.743 201.84 133.543 200.56 130.103 200.56C128.663 200.56 127.943 201.2 127.943 201.84C127.943 202.32 128.423 202.8 129.223 203.04C131.463 203.6 136.903 205.36 138.663 205.84C148.343 208.48 152.903 213.44 152.903 221.04ZM192.789 219.52L191.189 235.2C166.549 235.2 161.109 232.16 161.109 219.36V204.72H155.109V188.96H161.109V175.52H184.389V188.96H192.229V204.72H184.389V215.04C184.389 218.32 185.669 219.52 192.789 219.52ZM246.722 234H223.442V208.88C223.442 207.68 222.962 206.88 221.762 206.88C220.322 206.88 220.002 208 220.002 208.96V234H196.722V171.6H220.002V191.12C221.762 189.04 224.802 187.68 231.122 187.68C241.362 187.68 246.722 194.4 246.722 203.12V234ZM291.387 208.4C289.947 207.76 288.027 207.44 286.027 207.44C281.067 207.44 275.627 209.2 275.627 211.6V234H252.347V188.96H273.387V192.64C275.867 189.52 281.387 187.68 291.387 187.68V208.4ZM331.304 219.52L329.704 235.2C305.064 235.2 299.624 232.16 299.624 219.36V204.72H293.624V188.96H299.624V175.52H322.904V188.96H330.744V204.72H322.904V215.04C322.904 218.32 324.184 219.52 331.304 219.52ZM384.678 190.96C373.158 200.56 366.438 216.48 366.438 234H341.158C341.158 214.8 350.198 199.2 357.718 192.96H334.758V171.6H384.678V190.96ZM443.013 224.16H437.813V234H414.933V224.16H390.613V203.12L407.733 171.6H437.813V202.64H443.013V224.16ZM415.733 202.64V191.28L409.733 202.64H415.733Z" fill="black"/>
<path d="M527.8 234H504.52V208.88C504.52 207.68 504.04 206.88 502.84 206.88C501.4 206.88 501.08 208 501.08 208.96V234H477.8V171.6H501.08V191.12C502.84 189.04 505.88 187.68 512.2 187.68C522.44 187.68 527.8 194.4 527.8 203.12V234ZM572.465 208.4C571.025 207.76 569.105 207.44 567.105 207.44C562.145 207.44 556.705 209.2 556.705 211.6V234H533.425V188.96H554.465V192.64C556.945 189.52 562.465 187.68 572.465 187.68V208.4ZM623.903 221.04C623.903 230.32 616.863 235.2 599.823 235.2C585.103 235.2 575.663 230.48 575.663 218.96H593.663C593.663 221.12 595.343 222.08 598.463 222.08C599.983 222.08 600.703 221.68 600.703 221.12C600.703 220.8 600.383 220.32 599.743 219.92C598.143 218.8 594.783 217.44 592.063 216.8C580.783 214.24 576.223 209.84 576.223 201.92C576.223 192.64 584.783 187.68 600.303 187.68C614.303 187.68 623.423 192 623.423 203.52H605.743C605.743 201.84 604.543 200.56 601.103 200.56C599.663 200.56 598.943 201.2 598.943 201.84C598.943 202.32 599.423 202.8 600.223 203.04C602.463 203.6 607.903 205.36 609.663 205.84C619.343 208.48 623.903 213.44 623.903 221.04ZM663.789 219.52L662.189 235.2C637.549 235.2 632.109 232.16 632.109 219.36V204.72H626.109V188.96H632.109V175.52H655.389V188.96H663.229V204.72H655.389V215.04C655.389 218.32 656.669 219.52 663.789 219.52ZM717.722 234H694.442V208.88C694.442 207.68 693.962 206.88 692.762 206.88C691.322 206.88 691.002 208 691.002 208.96V234H667.722V171.6H691.002V191.12C692.762 189.04 695.802 187.68 702.122 187.68C712.362 187.68 717.722 194.4 717.722 203.12V234ZM762.387 208.4C760.947 207.76 759.027 207.44 757.027 207.44C752.067 207.44 746.627 209.2 746.627 211.6V234H723.347V188.96H744.387V192.64C746.867 189.52 752.387 187.68 762.387 187.68V208.4ZM802.304 219.52L800.704 235.2C776.064 235.2 770.624 232.16 770.624 219.36V204.72H764.624V188.96H770.624V175.52H793.904V188.96H801.744V204.72H793.904V215.04C793.904 218.32 795.184 219.52 802.304 219.52ZM855.678 190.96C844.158 200.56 837.438 216.48 837.438 234H812.158C812.158 214.8 821.198 199.2 828.718 192.96H805.758V171.6H855.678V190.96ZM914.013 224.16H908.813V234H885.933V224.16H861.613V203.12L878.733 171.6H908.813V202.64H914.013V224.16ZM886.733 202.64V191.28L880.733 202.64H886.733Z" fill="#E3E3E3"/>
<path d="M5.39453 517V444.335H31.3926V475.662C32.0566 474.334 33.5176 473.039 35.7754 471.777C38.0664 470.516 41.1875 469.885 45.1387 469.885C49.5547 469.885 53.1904 471.047 56.0459 473.371C58.9346 475.695 60.3789 479.381 60.3789 484.428V517H34.2314V490.354C34.2314 489.823 34.1152 489.441 33.8828 489.209C33.6836 488.943 33.3848 488.811 32.9863 488.811C32.5879 488.811 32.2725 488.977 32.04 489.309C31.8076 489.607 31.6416 490.022 31.542 490.554V517H5.39453ZM62.9688 517V471.229H88.8174V476.26H88.8672C89.6973 474.6 90.9092 473.205 92.5029 472.076C94.0967 470.947 95.79 470.383 97.583 470.383C98.6787 470.383 99.5752 470.449 100.272 470.582C100.97 470.682 101.435 470.798 101.667 470.931V490.952C101.202 490.653 100.588 490.438 99.8242 490.305C99.0938 490.139 98.2803 490.056 97.3838 490.056C96.0225 490.056 94.5283 490.487 92.9014 491.351C91.3076 492.214 90.0791 493.459 89.2158 495.086L89.2656 517H62.9688ZM102.763 501.81L124.478 501.959V503.154C124.478 503.852 124.71 504.316 125.175 504.549C125.673 504.748 126.287 504.848 127.018 504.848C127.814 504.848 128.379 504.748 128.711 504.549C129.076 504.316 129.259 504.001 129.259 503.603C129.259 503.005 128.927 502.557 128.263 502.258C127.632 501.959 124.627 501.295 119.248 500.266C113.703 499.17 109.669 497.41 107.146 494.986C104.655 492.529 103.41 489.242 103.41 485.125C103.41 480.277 105.502 476.459 109.686 473.67C113.869 470.848 119.929 469.437 127.864 469.437C135.899 469.437 141.876 470.814 145.794 473.57C149.745 476.326 151.671 479.879 151.571 484.229V486.47H129.956V485.424C129.956 484.926 129.74 484.561 129.309 484.328C128.91 484.062 128.312 483.93 127.516 483.93C126.785 483.93 126.254 484.029 125.922 484.229C125.59 484.395 125.424 484.66 125.424 485.025C125.424 485.49 125.772 485.855 126.47 486.121C127.167 486.387 130.371 486.984 136.082 487.914C141.76 488.777 146.109 490.271 149.131 492.396C152.186 494.488 153.713 497.759 153.713 502.208C153.713 506.989 151.538 510.857 147.188 513.812C142.839 516.734 136.497 518.195 128.163 518.195C120.128 518.195 113.919 516.851 109.536 514.161C105.153 511.438 102.896 507.587 102.763 502.606V501.81ZM154.46 490.454V471.229H189.174V490.454H154.46ZM157.996 501.66V473.471L158.743 472.923V461.02H183.396V494.09C183.396 496.082 183.629 497.41 184.094 498.074C184.559 498.738 185.289 499.07 186.285 499.07C187.082 499.07 187.746 499.037 188.277 498.971C188.809 498.904 189.373 498.788 189.971 498.622V516.054C188.742 516.452 186.916 516.851 184.492 517.249C182.068 517.647 179.18 517.847 175.826 517.847C169.949 517.847 165.5 516.485 162.479 513.763C159.49 511.04 157.996 507.006 157.996 501.66ZM191.963 517V444.335H217.961V475.662C218.625 474.334 220.086 473.039 222.344 471.777C224.635 470.516 227.756 469.885 231.707 469.885C236.123 469.885 239.759 471.047 242.614 473.371C245.503 475.695 246.947 479.381 246.947 484.428V517H220.8V490.354C220.8 489.823 220.684 489.441 220.451 489.209C220.252 488.943 219.953 488.811 219.555 488.811C219.156 488.811 218.841 488.977 218.608 489.309C218.376 489.607 218.21 490.022 218.11 490.554V517H191.963ZM249.537 517V471.229H275.386V476.26H275.436C276.266 474.6 277.478 473.205 279.071 472.076C280.665 470.947 282.358 470.383 284.151 470.383C285.247 470.383 286.144 470.449 286.841 470.582C287.538 470.682 288.003 470.798 288.235 470.931V490.952C287.771 490.653 287.156 490.438 286.393 490.305C285.662 490.139 284.849 490.056 283.952 490.056C282.591 490.056 281.097 490.487 279.47 491.351C277.876 492.214 276.647 493.459 275.784 495.086L275.834 517H249.537ZM289.729 490.454V471.229H324.443V490.454H289.729ZM293.266 501.66V473.471L294.013 472.923V461.02H318.666V494.09C318.666 496.082 318.898 497.41 319.363 498.074C319.828 498.738 320.559 499.07 321.555 499.07C322.352 499.07 323.016 499.037 323.547 498.971C324.078 498.904 324.643 498.788 325.24 498.622V516.054C324.012 516.452 322.186 516.851 319.762 517.249C317.338 517.647 314.449 517.847 311.096 517.847C305.219 517.847 300.77 516.485 297.748 513.763C294.76 511.04 293.266 507.006 293.266 501.66ZM333.408 517L353.33 467.096H327.183V444.484H381.52V466.647L363.291 517H333.408ZM409.809 517V499.917L410.854 499.17V478.75H410.406L405.675 485.772H422.16L423.654 484.029H440.289V505.943H383.611V483.78L413.494 444.484H436.205V517H409.809Z" fill="black"/>
<path d="M486.395 517V444.335H512.393V475.662C513.057 474.334 514.518 473.039 516.775 471.777C519.066 470.516 522.188 469.885 526.139 469.885C530.555 469.885 534.19 471.047 537.046 473.371C539.935 475.695 541.379 479.381 541.379 484.428V517H515.231V490.354C515.231 489.823 515.115 489.441 514.883 489.209C514.684 488.943 514.385 488.811 513.986 488.811C513.588 488.811 513.272 488.977 513.04 489.309C512.808 489.607 512.642 490.022 512.542 490.554V517H486.395ZM543.969 517V471.229H569.817V476.26H569.867C570.697 474.6 571.909 473.205 573.503 472.076C575.097 470.947 576.79 470.383 578.583 470.383C579.679 470.383 580.575 470.449 581.272 470.582C581.97 470.682 582.435 470.798 582.667 470.931V490.952C582.202 490.653 581.588 490.438 580.824 490.305C580.094 490.139 579.28 490.056 578.384 490.056C577.022 490.056 575.528 490.487 573.901 491.351C572.308 492.214 571.079 493.459 570.216 495.086L570.266 517H543.969ZM583.763 501.81L605.478 501.959V503.154C605.478 503.852 605.71 504.316 606.175 504.549C606.673 504.748 607.287 504.848 608.018 504.848C608.814 504.848 609.379 504.748 609.711 504.549C610.076 504.316 610.259 504.001 610.259 503.603C610.259 503.005 609.927 502.557 609.263 502.258C608.632 501.959 605.627 501.295 600.248 500.266C594.703 499.17 590.669 497.41 588.146 494.986C585.655 492.529 584.41 489.242 584.41 485.125C584.41 480.277 586.502 476.459 590.686 473.67C594.869 470.848 600.929 469.437 608.864 469.437C616.899 469.437 622.876 470.814 626.794 473.57C630.745 476.326 632.671 479.879 632.571 484.229V486.47H610.956V485.424C610.956 484.926 610.74 484.561 610.309 484.328C609.91 484.062 609.312 483.93 608.516 483.93C607.785 483.93 607.254 484.029 606.922 484.229C606.59 484.395 606.424 484.66 606.424 485.025C606.424 485.49 606.772 485.855 607.47 486.121C608.167 486.387 611.371 486.984 617.082 487.914C622.76 488.777 627.109 490.271 630.131 492.396C633.186 494.488 634.713 497.759 634.713 502.208C634.713 506.989 632.538 510.857 628.188 513.812C623.839 516.734 617.497 518.195 609.163 518.195C601.128 518.195 594.919 516.851 590.536 514.161C586.153 511.438 583.896 507.587 583.763 502.606V501.81ZM635.46 490.454V471.229H670.174V490.454H635.46ZM638.996 501.66V473.471L639.743 472.923V461.02H664.396V494.09C664.396 496.082 664.629 497.41 665.094 498.074C665.559 498.738 666.289 499.07 667.285 499.07C668.082 499.07 668.746 499.037 669.277 498.971C669.809 498.904 670.373 498.788 670.971 498.622V516.054C669.742 516.452 667.916 516.851 665.492 517.249C663.068 517.647 660.18 517.847 656.826 517.847C650.949 517.847 646.5 516.485 643.479 513.763C640.49 511.04 638.996 507.006 638.996 501.66ZM672.963 517V444.335H698.961V475.662C699.625 474.334 701.086 473.039 703.344 471.777C705.635 470.516 708.756 469.885 712.707 469.885C717.123 469.885 720.759 471.047 723.614 473.371C726.503 475.695 727.947 479.381 727.947 484.428V517H701.8V490.354C701.8 489.823 701.684 489.441 701.451 489.209C701.252 488.943 700.953 488.811 700.555 488.811C700.156 488.811 699.841 488.977 699.608 489.309C699.376 489.607 699.21 490.022 699.11 490.554V517H672.963ZM730.537 517V471.229H756.386V476.26H756.436C757.266 474.6 758.478 473.205 760.071 472.076C761.665 470.947 763.358 470.383 765.151 470.383C766.247 470.383 767.144 470.449 767.841 470.582C768.538 470.682 769.003 470.798 769.235 470.931V490.952C768.771 490.653 768.156 490.438 767.393 490.305C766.662 490.139 765.849 490.056 764.952 490.056C763.591 490.056 762.097 490.487 760.47 491.351C758.876 492.214 757.647 493.459 756.784 495.086L756.834 517H730.537ZM770.729 490.454V471.229H805.443V490.454H770.729ZM774.266 501.66V473.471L775.013 472.923V461.02H799.666V494.09C799.666 496.082 799.898 497.41 800.363 498.074C800.828 498.738 801.559 499.07 802.555 499.07C803.352 499.07 804.016 499.037 804.547 498.971C805.078 498.904 805.643 498.788 806.24 498.622V516.054C805.012 516.452 803.186 516.851 800.762 517.249C798.338 517.647 795.449 517.847 792.096 517.847C786.219 517.847 781.77 516.485 778.748 513.763C775.76 511.04 774.266 507.006 774.266 501.66ZM814.408 517L834.33 467.096H808.183V444.484H862.52V466.647L844.291 517H814.408ZM890.809 517V499.917L891.854 499.17V478.75H891.406L886.675 485.772H903.16L904.654 484.029H921.289V505.943H864.611V483.78L894.494 444.484H917.205V517H890.809Z" fill="#E3E3E3"/>
<path d="M78.5 124H44L36.7 103.8V124H5.5V46H48.3C64.7 46 75.6 57.7 75.6 71.5C75.6 81.1 71.3 88.9 64.1 92.8L78.5 124ZM44.5 73.5C44.5 70.4 42.2 69.5 40 69.5H36.7V77.9H40C42.3 77.9 44.5 77.2 44.5 73.5ZM142.641 124L116.541 125.5C115.741 124 114.941 121.8 114.941 119.8C112.241 123.2 107.141 125.5 98.7414 125.5C86.3414 125.5 79.4414 120.3 79.4414 110.1C79.4414 98.8 86.2414 91.3 99.2414 90.1C102.441 89.8 107.341 89.4 110.041 88.9C112.541 88.4 113.241 88.2 113.241 87.2C113.241 85.9 111.441 85.2 109.541 85.2C107.441 85.2 105.141 86.2 105.141 88.4H80.4414C80.4414 72.9 93.1414 66.1 109.741 66.1C129.841 66.1 139.941 74.7 139.941 88V114C139.941 117 140.941 121.4 142.641 124ZM113.241 104.6V101.1C112.741 101.6 111.641 102.1 109.741 102.5C107.441 103 106.141 104.1 106.141 105.8C106.141 107.3 107.141 108.3 108.741 108.3C109.141 108.3 109.541 108.2 110.041 108.1C112.141 107.6 113.241 106.2 113.241 104.6ZM208.557 117.9C208.557 136.9 205.557 144 174.757 144C168.757 144 155.557 143.6 152.557 143.4L148.357 121.1C153.657 121.5 164.657 122.4 168.157 122.4C177.857 122.4 181.257 121.1 181.257 117.9V114.6C179.457 117.3 173.457 118.8 168.957 118.8C154.757 118.8 145.457 109.5 145.457 92.8C145.457 74.1 155.557 66.1 168.457 66.1C175.957 66.1 181.257 69.8 183.057 72.3L185.957 67.7H208.557V117.9ZM180.057 97.8V91.9C180.057 90.2 178.657 89.3 176.857 89.3C174.757 89.3 173.057 91.7 173.057 94.9C173.057 98.6 174.757 100.1 177.157 100.1C178.457 100.1 180.057 99.4 180.057 97.8ZM244.912 124H215.512V46H244.912V124ZM313.638 124L287.538 125.5C286.738 124 285.938 121.8 285.938 119.8C283.238 123.2 278.138 125.5 269.738 125.5C257.338 125.5 250.438 120.3 250.438 110.1C250.438 98.8 257.238 91.3 270.238 90.1C273.438 89.8 278.338 89.4 281.038 88.9C283.538 88.4 284.238 88.2 284.238 87.2C284.238 85.9 282.438 85.2 280.538 85.2C278.438 85.2 276.138 86.2 276.138 88.4H251.438C251.438 72.9 264.138 66.1 280.738 66.1C300.838 66.1 310.938 74.7 310.938 88V114C310.938 117 311.938 121.4 313.638 124ZM284.238 104.6V101.1C283.738 101.6 282.638 102.1 280.738 102.5C278.438 103 277.138 104.1 277.138 105.8C277.138 107.3 278.138 108.3 279.738 108.3C280.138 108.3 280.538 108.2 281.038 108.1C283.138 107.6 284.238 106.2 284.238 104.6ZM380.453 124H351.353V92.6C351.353 91.1 350.753 90.1 349.253 90.1C347.453 90.1 347.053 91.5 347.053 92.7V124H317.953V67.7H344.253V72.3C346.153 68.8 351.353 66.1 360.353 66.1C373.953 66.1 380.453 74.5 380.453 85.4V124ZM494.145 75.4C494.145 94.7 482.045 105.4 464.045 105.4H456.145V124H424.445V46H464.545C483.145 46 494.145 59.1 494.145 75.4ZM463.145 76C463.145 72.9 460.845 71.5 458.645 71.5H455.345V80.9H458.645C460.945 80.9 463.145 79.9 463.145 76ZM563.698 123.9L537.398 125.5C536.898 123.9 536.498 121.1 536.498 119.4C532.598 123.7 527.198 125.5 519.698 125.5C506.098 125.5 499.398 117.2 499.398 106.3V67.7H528.498V99.1C528.498 100.6 529.098 101.6 530.598 101.6C532.398 101.6 532.798 100.3 532.798 99V67.7H561.898V110.8C561.898 113.9 562.598 120.3 563.698 123.9ZM631.527 124H602.427V92.6C602.427 91.1 601.827 90.1 600.327 90.1C598.527 90.1 598.127 91.5 598.127 92.7V124H569.027V67.7H595.327V72.3C597.227 68.8 602.427 66.1 611.427 66.1C625.027 66.1 631.527 74.5 631.527 85.4V124ZM701.859 97.7C701.859 114.2 691.159 125.5 669.759 125.5C651.859 125.5 637.059 115.1 637.059 95.7C637.059 79.2 648.559 66.1 669.759 66.1C689.359 66.1 701.859 77.8 701.859 94.3H675.359C675.359 92 673.959 90.1 671.159 90.1C667.759 90.1 666.059 92.4 666.059 95.7C666.059 99.9 667.959 101.8 671.159 101.8C673.859 101.8 675.359 100.4 675.359 97.7H701.859ZM769.906 124H740.806V92.6C740.806 91.1 740.206 90.1 738.706 90.1C736.906 90.1 736.506 91.5 736.506 92.7V124H707.406V46H736.506V70.4C738.706 67.8 742.506 66.1 750.406 66.1C763.206 66.1 769.906 74.5 769.906 85.4V124Z" fill="#0976F7"/>
<path d="M4.36719 377V305.906H38.8398C45.2201 305.906 50.4609 307.973 54.5625 312.107C58.6641 316.209 60.7148 322.329 60.7148 330.467C60.7148 339.093 58.4362 345.62 53.8789 350.047C49.3216 354.474 44.276 356.688 38.7422 356.688H30.4902V377H4.36719ZM30.4902 339.109H32.1504C32.9642 339.109 33.5664 338.735 33.957 337.986C34.3802 337.238 34.5918 335.398 34.5918 332.469C34.5918 329.669 34.3802 327.798 33.957 326.854C33.5664 325.91 32.9642 325.438 32.1504 325.438H30.4902V339.109ZM35.5684 377L29.4648 347.117L51.3887 339.939L63.4004 377H35.5684ZM59.9824 355.125V352.732C59.9824 345.701 62.4889 340.216 67.502 336.277C72.515 332.339 79.1556 330.369 87.4238 330.369C95.7897 330.369 102.463 332.339 107.443 336.277C112.424 340.216 114.914 345.701 114.914 352.732V355.125C114.914 362.482 112.424 368.162 107.443 372.166C102.463 376.17 95.7897 378.172 87.4238 378.172C79.1556 378.172 72.515 376.17 67.502 372.166C62.4889 368.162 59.9824 362.482 59.9824 355.125ZM85.6172 351.121V357.713C85.6172 358.494 85.7637 359.08 86.0566 359.471C86.3496 359.861 86.8216 360.057 87.4727 360.057C88.0911 360.057 88.5469 359.861 88.8398 359.471C89.1328 359.08 89.2793 358.51 89.2793 357.762V351.121C89.2793 350.372 89.1165 349.819 88.791 349.461C88.498 349.07 88.0586 348.875 87.4727 348.875C86.8216 348.875 86.3496 349.07 86.0566 349.461C85.7637 349.819 85.6172 350.372 85.6172 351.121ZM116.965 377V305.76H142.209V335.887C143.251 334.552 144.732 333.364 146.652 332.322C148.605 331.281 151.112 330.76 154.172 330.76C159.185 330.76 163.352 332.68 166.672 336.521C170.025 340.33 171.701 345.685 171.701 352.586V354.979C171.701 362.14 169.992 367.739 166.574 371.775C163.189 375.812 158.892 377.83 153.684 377.83C150.949 377.83 148.605 377.472 146.652 376.756C144.699 376.007 143.153 374.998 142.014 373.729H141.965V377H116.965ZM142.404 358.494C142.535 358.95 142.73 359.34 142.99 359.666C143.283 359.992 143.706 360.154 144.26 360.154C144.846 360.154 145.285 359.878 145.578 359.324C145.871 358.738 146.018 357.99 146.018 357.078V351.902C146.018 350.926 145.871 350.177 145.578 349.656C145.285 349.135 144.829 348.875 144.211 348.875C143.723 348.875 143.316 349.038 142.99 349.363C142.697 349.689 142.502 350.112 142.404 350.633V358.494ZM172.971 355.125V352.732C172.971 345.701 175.477 340.216 180.49 336.277C185.503 332.339 192.144 330.369 200.412 330.369C208.778 330.369 215.451 332.339 220.432 336.277C225.412 340.216 227.902 345.701 227.902 352.732V355.125C227.902 362.482 225.412 368.162 220.432 372.166C215.451 376.17 208.778 378.172 200.412 378.172C192.144 378.172 185.503 376.17 180.49 372.166C175.477 368.162 172.971 362.482 172.971 355.125ZM198.605 351.121V357.713C198.605 358.494 198.752 359.08 199.045 359.471C199.338 359.861 199.81 360.057 200.461 360.057C201.079 360.057 201.535 359.861 201.828 359.471C202.121 359.08 202.268 358.51 202.268 357.762V351.121C202.268 350.372 202.105 349.819 201.779 349.461C201.486 349.07 201.047 348.875 200.461 348.875C199.81 348.875 199.338 349.07 199.045 349.461C198.752 349.819 198.605 350.372 198.605 351.121ZM229.123 350.975V332.078H263.156V350.975H229.123ZM232.59 361.961V334.324L233.322 333.738V322.117H257.443V354.539C257.443 356.525 257.671 357.843 258.127 358.494C258.615 359.145 259.348 359.471 260.324 359.471C261.105 359.471 261.757 359.438 262.277 359.373C262.798 359.275 263.352 359.145 263.938 358.982V376.072C262.733 376.463 260.943 376.854 258.566 377.244C256.19 377.635 253.358 377.83 250.07 377.83C244.309 377.83 239.947 376.495 236.984 373.826C234.055 371.157 232.59 367.202 232.59 361.961ZM264.963 355.125V352.732C264.963 345.701 267.469 340.216 272.482 336.277C277.495 332.339 284.136 330.369 292.404 330.369C300.77 330.369 307.443 332.339 312.424 336.277C317.404 340.216 319.895 345.701 319.895 352.732V355.125C319.895 362.482 317.404 368.162 312.424 372.166C307.443 376.17 300.77 378.172 292.404 378.172C284.136 378.172 277.495 376.17 272.482 372.166C267.469 368.162 264.963 362.482 264.963 355.125ZM290.598 351.121V357.713C290.598 358.494 290.744 359.08 291.037 359.471C291.33 359.861 291.802 360.057 292.453 360.057C293.072 360.057 293.527 359.861 293.82 359.471C294.113 359.08 294.26 358.51 294.26 357.762V351.121C294.26 350.372 294.097 349.819 293.771 349.461C293.479 349.07 293.039 348.875 292.453 348.875C291.802 348.875 291.33 349.07 291.037 349.461C290.744 349.819 290.598 350.372 290.598 351.121ZM348.996 377V305.906H391.477V328.318H375.119V332.078H389.523V353.416H375.119V377H348.996ZM393.234 377V305.76H419.162V377H393.234ZM421.213 355.076V352.83C421.213 345.701 423.719 340.184 428.732 336.277C433.778 332.371 440.484 330.418 448.85 330.418C457.574 330.418 464.117 332.518 468.479 336.717C472.873 340.916 475.07 346.613 475.07 353.807V356.639H435.129V351.756H450.803V350.389C450.803 349.673 450.656 349.119 450.363 348.729C450.07 348.305 449.566 348.094 448.85 348.094C448.101 348.094 447.548 348.354 447.189 348.875C446.864 349.396 446.701 350.226 446.701 351.365V356.932C446.701 358.201 446.913 359.113 447.336 359.666C447.759 360.187 448.394 360.447 449.24 360.447C450.054 360.447 450.673 360.203 451.096 359.715C451.519 359.227 451.828 358.478 452.023 357.469L475.217 359.959C473.98 366.046 471.327 370.62 467.258 373.68C463.189 376.707 457.167 378.221 449.191 378.221C440.533 378.221 433.697 376.284 428.684 372.41C423.703 368.504 421.213 362.726 421.213 355.076ZM470.09 377L488.645 348.484H494.016L503.781 332.078H525.998L507.785 360.936H501.828L492.648 377H470.09ZM470.871 332.078H498.117L506.955 348.484H509.152L526.486 377H498.752L489.719 360.496H487.424L470.871 332.078Z" fill="#14A3F5"/>
</g>
<defs>
<clipPath id="clip0_128_65">
<rect width="926" height="565" fill="white"/>
</clipPath>
</defs>
</svg>
