<svg width="338" height="80" viewBox="0 0 338 80" fill="none" xmlns="http://www.w3.org/2000/svg">
<rect width="338" height="80" rx="40" fill="url(#paint0_radial_10_338)"/>
<rect x="0.5" y="0.5" width="337" height="79" rx="39.5" stroke="white" stroke-opacity="0.2"/>
<path d="M37.96 52.5H31.624V26.04H37.96C38.584 26.04 39.208 26.1 39.832 26.22C40.48 26.34 41.08 26.544 41.632 26.832C42.208 27.12 42.712 27.504 43.144 27.984C43.6 28.44 43.96 28.956 44.224 29.532C44.512 30.084 44.704 30.684 44.8 31.332C44.92 31.956 44.98 32.58 44.98 33.204C44.98 33.756 44.932 34.308 44.836 34.86C44.764 35.388 44.608 35.892 44.368 36.372C44.128 36.852 43.816 37.296 43.432 37.704C43.072 38.088 42.652 38.424 42.172 38.712C42.772 38.976 43.324 39.312 43.828 39.72C44.332 40.128 44.74 40.608 45.052 41.16C45.388 41.712 45.616 42.312 45.736 42.96C45.88 43.584 45.952 44.22 45.952 44.868C45.952 45.564 45.88 46.26 45.736 46.956C45.616 47.652 45.388 48.312 45.052 48.936C44.716 49.536 44.284 50.076 43.756 50.556C43.228 51.036 42.652 51.432 42.028 51.744C41.404 52.032 40.744 52.236 40.048 52.356C39.352 52.452 38.656 52.5 37.96 52.5ZM35.62 37.092H37.96C38.416 37.092 38.86 36.996 39.292 36.804C39.724 36.588 40.06 36.288 40.3 35.904C40.564 35.52 40.744 35.1 40.84 34.644C40.936 34.188 40.984 33.732 40.984 33.276C40.984 32.82 40.936 32.364 40.84 31.908C40.744 31.452 40.564 31.044 40.3 30.684C40.036 30.3 39.688 30.012 39.256 29.82C38.848 29.604 38.416 29.496 37.96 29.496H35.62V37.092ZM35.62 49.044H37.96C38.512 49.044 39.052 48.96 39.58 48.792C40.108 48.6 40.552 48.3 40.912 47.892C41.296 47.484 41.56 47.004 41.704 46.452C41.872 45.9 41.956 45.348 41.956 44.796C41.956 44.244 41.872 43.704 41.704 43.176C41.56 42.624 41.308 42.144 40.948 41.736C40.588 41.304 40.132 41.004 39.58 40.836C39.052 40.644 38.512 40.548 37.96 40.548H35.62V49.044ZM50.2 52.5V49.044H54.736V29.496H50.704V26.04H58.768V49.044H62.8V52.5H50.2ZM74.5 52.788C73.852 52.788 73.192 52.728 72.52 52.608C71.872 52.488 71.26 52.272 70.684 51.96C70.108 51.648 69.592 51.252 69.136 50.772C68.704 50.268 68.344 49.728 68.056 49.152C67.792 48.552 67.6 47.928 67.48 47.28C67.384 46.608 67.336 45.948 67.336 45.3V40.98C67.336 40.332 67.384 39.684 67.48 39.036C67.6 38.364 67.792 37.74 68.056 37.164C68.344 36.564 68.704 36.024 69.136 35.544C69.592 35.04 70.108 34.632 70.684 34.32C71.26 34.008 71.872 33.792 72.52 33.672C73.192 33.552 73.852 33.492 74.5 33.492C75.148 33.492 75.796 33.552 76.444 33.672C77.116 33.792 77.74 34.008 78.316 34.32C78.892 34.632 79.396 35.04 79.828 35.544C80.284 36.024 80.644 36.564 80.908 37.164C81.196 37.74 81.388 38.364 81.484 39.036C81.604 39.684 81.664 40.332 81.664 40.98V45.3C81.664 45.948 81.604 46.608 81.484 47.28C81.388 47.928 81.196 48.552 80.908 49.152C80.644 49.728 80.284 50.268 79.828 50.772C79.396 51.252 78.892 51.648 78.316 51.96C77.74 52.272 77.116 52.488 76.444 52.608C75.796 52.728 75.148 52.788 74.5 52.788ZM74.5 49.332C74.98 49.332 75.436 49.224 75.868 49.008C76.324 48.792 76.684 48.48 76.948 48.072C77.236 47.664 77.428 47.22 77.524 46.74C77.62 46.26 77.668 45.78 77.668 45.3V40.98C77.668 40.5 77.62 40.02 77.524 39.54C77.428 39.06 77.236 38.616 76.948 38.208C76.684 37.8 76.324 37.488 75.868 37.272C75.436 37.056 74.98 36.948 74.5 36.948C74.02 36.948 73.552 37.056 73.096 37.272C72.664 37.488 72.304 37.8 72.016 38.208C71.752 38.616 71.572 39.06 71.476 39.54C71.38 40.02 71.332 40.5 71.332 40.98V45.3C71.332 45.78 71.38 46.26 71.476 46.74C71.572 47.22 71.752 47.664 72.016 48.072C72.304 48.48 72.664 48.792 73.096 49.008C73.552 49.224 74.02 49.332 74.5 49.332ZM92.428 60.528C91.876 60.528 91.324 60.492 90.772 60.42C90.244 60.348 89.716 60.216 89.188 60.024C88.684 59.832 88.204 59.58 87.748 59.268C87.292 58.956 86.896 58.572 86.56 58.116C86.248 57.684 85.996 57.192 85.804 56.64C85.636 56.112 85.552 55.584 85.552 55.056H89.548C89.572 55.368 89.668 55.668 89.836 55.956C90.028 56.244 90.256 56.472 90.52 56.64C90.808 56.808 91.108 56.916 91.42 56.964C91.756 57.036 92.092 57.072 92.428 57.072C92.908 57.072 93.352 56.952 93.76 56.712C94.192 56.472 94.528 56.148 94.768 55.74C95.008 55.356 95.164 54.924 95.236 54.444C95.332 53.988 95.38 53.52 95.38 53.04V49.224C95.188 49.728 94.948 50.208 94.66 50.664C94.372 51.096 94.024 51.48 93.616 51.816C93.208 52.152 92.74 52.392 92.212 52.536C91.684 52.704 91.156 52.788 90.628 52.788C90.052 52.788 89.488 52.692 88.936 52.5C88.384 52.332 87.892 52.056 87.46 51.672C87.028 51.264 86.668 50.808 86.38 50.304C86.116 49.8 85.9 49.272 85.732 48.72C85.588 48.168 85.48 47.604 85.408 47.028C85.36 46.452 85.336 45.876 85.336 45.3V40.98C85.336 40.404 85.36 39.828 85.408 39.252C85.48 38.676 85.588 38.112 85.732 37.56C85.9 37.008 86.116 36.48 86.38 35.976C86.668 35.472 87.028 35.028 87.46 34.644C87.892 34.236 88.384 33.948 88.936 33.78C89.488 33.588 90.052 33.492 90.628 33.492C91.156 33.492 91.684 33.576 92.212 33.744C92.74 33.888 93.208 34.128 93.616 34.464C94.024 34.8 94.372 35.196 94.66 35.652C94.948 36.084 95.188 36.552 95.38 37.056V33.78H99.376V53.04C99.376 53.688 99.328 54.324 99.232 54.948C99.136 55.596 98.956 56.22 98.692 56.82C98.428 57.42 98.08 57.96 97.648 58.44C97.216 58.944 96.712 59.352 96.136 59.664C95.584 59.976 94.984 60.192 94.336 60.312C93.712 60.456 93.076 60.528 92.428 60.528ZM92.356 49.332C92.836 49.332 93.292 49.224 93.724 49.008C94.156 48.768 94.492 48.444 94.732 48.036C94.972 47.628 95.14 47.196 95.236 46.74C95.332 46.26 95.38 45.78 95.38 45.3V40.98C95.38 40.5 95.332 40.032 95.236 39.576C95.14 39.096 94.972 38.652 94.732 38.244C94.492 37.836 94.156 37.524 93.724 37.308C93.292 37.068 92.836 36.948 92.356 36.948C91.876 36.948 91.42 37.068 90.988 37.308C90.556 37.524 90.22 37.836 89.98 38.244C89.74 38.652 89.572 39.096 89.476 39.576C89.38 40.032 89.332 40.5 89.332 40.98V45.3C89.332 45.78 89.38 46.26 89.476 46.74C89.572 47.196 89.74 47.628 89.98 48.036C90.22 48.444 90.556 48.768 90.988 49.008C91.42 49.224 91.876 49.332 92.356 49.332ZM124.36 52.5L131.236 29.496H121.624V26.04H135.376V29.496L128.5 52.5H124.36ZM147.436 52.5V45.84H139.336V42.384L147.22 26.04H151.108L143.26 42.384H147.436V36.984H151.432V42.384H153.376V45.84H151.432V52.5H147.436ZM166.552 52.788C166 52.788 165.436 52.716 164.86 52.572C164.308 52.428 163.792 52.188 163.312 51.852C162.856 51.516 162.46 51.108 162.124 50.628C161.812 50.148 161.56 49.644 161.368 49.116C161.176 48.564 161.044 48 160.972 47.424C160.9 46.848 160.864 46.272 160.864 45.696V37.236H158.02V33.78H160.864V26.04H164.896V33.78H170.62V37.236H164.896V45.696C164.896 45.96 164.896 46.212 164.896 46.452C164.92 46.692 164.944 46.932 164.968 47.172C165.016 47.412 165.076 47.652 165.148 47.892C165.22 48.132 165.304 48.36 165.4 48.576C165.52 48.768 165.676 48.948 165.868 49.116C166.084 49.26 166.312 49.332 166.552 49.332C166.792 49.332 167.008 49.26 167.2 49.116C167.416 48.972 167.584 48.804 167.704 48.612C167.824 48.396 167.908 48.18 167.956 47.964C168.028 47.724 168.088 47.496 168.136 47.28C168.184 47.04 168.208 46.8 168.208 46.56C168.232 46.32 168.244 46.092 168.244 45.876V45.696H172.276V46.02C172.276 46.572 172.228 47.124 172.132 47.676C172.036 48.228 171.88 48.768 171.664 49.296C171.472 49.8 171.208 50.28 170.872 50.736C170.56 51.192 170.176 51.588 169.72 51.924C169.264 52.236 168.76 52.452 168.208 52.572C167.68 52.716 167.128 52.788 166.552 52.788ZM175.624 52.5V26.04H179.62V37.02C179.812 36.54 180.04 36.072 180.304 35.616C180.592 35.16 180.928 34.776 181.312 34.464C181.72 34.128 182.176 33.888 182.68 33.744C183.184 33.576 183.7 33.492 184.228 33.492C184.804 33.492 185.356 33.588 185.884 33.78C186.436 33.972 186.916 34.272 187.324 34.68C187.756 35.064 188.104 35.508 188.368 36.012C188.632 36.516 188.836 37.044 188.98 37.596C189.148 38.148 189.256 38.712 189.304 39.288C189.352 39.84 189.376 40.404 189.376 40.98V52.5H185.38V40.98C185.38 40.668 185.356 40.356 185.308 40.044C185.284 39.732 185.224 39.432 185.128 39.144C185.056 38.832 184.936 38.544 184.768 38.28C184.624 38.016 184.432 37.776 184.192 37.56C183.976 37.344 183.712 37.188 183.4 37.092C183.112 36.996 182.812 36.948 182.5 36.948C182.188 36.948 181.876 36.996 181.564 37.092C181.276 37.188 181.012 37.344 180.772 37.56C180.556 37.776 180.364 38.016 180.196 38.28C180.052 38.544 179.932 38.832 179.836 39.144C179.764 39.432 179.704 39.732 179.656 40.044C179.632 40.356 179.62 40.668 179.62 40.98V52.5H175.624Z" fill="white"/>
<g opacity="0.8">
<path d="M290.59 41.4167H261.167V36.5833H290.59L277.056 23.05L280.5 19.6667L299.833 39L280.5 58.3333L277.056 54.95L290.59 41.4167Z" fill="white"/>
</g>
<defs>
<radialGradient id="paint0_radial_10_338" cx="0" cy="0" r="1" gradientUnits="userSpaceOnUse" gradientTransform="translate(169 11.6667) rotate(90) scale(81.1905 343.03)">
<stop/>
<stop offset="1" stop-color="#131F2B"/>
</radialGradient>
</defs>
</svg>
