<svg width="48" height="50" viewBox="0 0 48 50" fill="none" xmlns="http://www.w3.org/2000/svg">
<rect y="2" width="48" height="48" rx="24" fill="url(#paint0_radial_5_162)"/>
<path d="M21.562 23H17.532V13.142C17.532 12.6047 17.4493 12.1603 17.284 11.809C17.1393 11.437 16.943 11.1373 16.695 10.91C16.447 10.6827 16.1577 10.5277 15.827 10.445C15.517 10.3417 15.207 10.29 14.897 10.29C14.587 10.29 14.277 10.3417 13.967 10.445C13.657 10.5483 13.378 10.7137 13.13 10.941C12.882 11.1477 12.6753 11.437 12.51 11.809C12.3653 12.181 12.293 12.6253 12.293 13.142V23H8.263V0.928H12.293V8.337C12.8303 7.779 13.4297 7.36567 14.091 7.097C14.7523 6.80767 15.4447 6.663 16.168 6.663C17.0567 6.663 17.8317 6.80767 18.493 7.097C19.175 7.38633 19.7433 7.79967 20.198 8.337C20.6527 8.85367 20.9937 9.47367 21.221 10.197C21.4483 10.9203 21.562 11.7057 21.562 12.553V23ZM21.593 31.555L14.432 50H10.061L17.222 31.555H11.394V35.027H7.55V27.928H21.593V31.555ZM39.324 46.869H37.309V50H33.434V46.869H24.413V43.056L31.977 27.928H36.379L28.815 43.056H33.434V38.933H37.309V43.056H39.324V46.869Z" fill="white"/>
<defs>
<radialGradient id="paint0_radial_5_162" cx="0" cy="0" r="1" gradientUnits="userSpaceOnUse" gradientTransform="translate(24 9) rotate(90) scale(48.7143)">
<stop/>
<stop offset="1" stop-color="#131F2B"/>
</radialGradient>
</defs>
</svg>
