<svg width="900" height="135" viewBox="0 0 900 135" fill="none" xmlns="http://www.w3.org/2000/svg">
<rect width="900" height="135" rx="30" fill="url(#paint0_radial_52_55)"/>
<path d="M126.016 85.5V50.22H131.68L136 67.548L140.32 50.22H145.984V85.5H140.992V78.444C140.992 76.812 141.008 75.18 141.04 73.548C141.072 71.916 141.136 70.3 141.232 68.7C141.328 67.068 141.424 65.436 141.52 63.804C141.648 62.172 141.76 60.54 141.856 58.908L137.824 74.892H134.176L130.144 58.908C130.24 60.54 130.336 62.172 130.432 63.804C130.56 65.436 130.672 67.068 130.768 68.7C130.864 70.3 130.928 71.916 130.96 73.548C130.992 75.18 131.008 76.812 131.008 78.444V85.5H126.016ZM157.504 85.884C156.544 85.884 155.584 85.74 154.624 85.452C153.696 85.132 152.896 84.62 152.224 83.916C151.584 83.212 151.12 82.396 150.832 81.468C150.576 80.508 150.448 79.548 150.448 78.588C150.448 77.724 150.544 76.892 150.736 76.092C150.96 75.26 151.328 74.508 151.84 73.836C152.352 73.164 152.96 72.588 153.664 72.108C154.368 71.628 155.12 71.26 155.92 71.004C156.72 70.716 157.536 70.524 158.368 70.428C159.232 70.332 160.08 70.284 160.912 70.284H163.84V68.652C163.84 68.108 163.76 67.596 163.6 67.116C163.44 66.604 163.168 66.172 162.784 65.82C162.432 65.436 162 65.164 161.488 65.004C160.976 64.844 160.464 64.764 159.952 64.764C159.472 64.764 159.008 64.812 158.56 64.908C158.112 65.004 157.696 65.196 157.312 65.484C156.928 65.74 156.624 66.092 156.4 66.54C156.176 66.956 156.064 67.388 156.064 67.836V67.932H150.736V67.692C150.736 66.956 150.848 66.236 151.072 65.532C151.296 64.796 151.616 64.124 152.032 63.516C152.448 62.876 152.96 62.348 153.568 61.932C154.208 61.484 154.864 61.132 155.536 60.876C156.24 60.588 156.96 60.396 157.696 60.3C158.464 60.204 159.216 60.156 159.952 60.156C160.752 60.156 161.536 60.22 162.304 60.348C163.104 60.444 163.856 60.652 164.56 60.972C165.296 61.292 165.968 61.724 166.576 62.268C167.184 62.78 167.68 63.388 168.064 64.092C168.48 64.764 168.768 65.5 168.928 66.3C169.088 67.068 169.168 67.852 169.168 68.652V85.5H163.84V81.564C163.584 82.204 163.248 82.812 162.832 83.388C162.416 83.932 161.92 84.396 161.344 84.78C160.8 85.164 160.192 85.436 159.52 85.596C158.848 85.788 158.176 85.884 157.504 85.884ZM159.808 81.276C160.352 81.276 160.896 81.18 161.44 80.988C161.984 80.796 162.448 80.492 162.832 80.076C163.216 79.628 163.472 79.132 163.6 78.588C163.76 78.012 163.84 77.436 163.84 76.86V74.892H160.912C160.528 74.892 160.144 74.908 159.76 74.94C159.408 74.972 159.04 75.036 158.656 75.132C158.304 75.228 157.952 75.356 157.6 75.516C157.248 75.644 156.928 75.836 156.64 76.092C156.352 76.316 156.128 76.604 155.968 76.956C155.84 77.308 155.776 77.676 155.776 78.06C155.776 78.54 155.888 79.004 156.112 79.452C156.336 79.9 156.64 80.268 157.024 80.556C157.44 80.844 157.888 81.036 158.368 81.132C158.848 81.228 159.328 81.276 159.808 81.276ZM183.904 96.204C183.168 96.204 182.432 96.156 181.696 96.06C180.992 95.964 180.288 95.788 179.584 95.532C178.912 95.276 178.272 94.94 177.664 94.524C177.056 94.108 176.528 93.596 176.08 92.988C175.664 92.412 175.328 91.756 175.072 91.02C174.848 90.316 174.736 89.612 174.736 88.908H180.064C180.096 89.324 180.224 89.724 180.448 90.108C180.704 90.492 181.008 90.796 181.36 91.02C181.744 91.244 182.144 91.388 182.56 91.452C183.008 91.548 183.456 91.596 183.904 91.596C184.544 91.596 185.136 91.436 185.68 91.116C186.256 90.796 186.704 90.364 187.024 89.82C187.344 89.308 187.552 88.732 187.648 88.092C187.776 87.484 187.84 86.86 187.84 86.22V81.132C187.584 81.804 187.264 82.444 186.88 83.052C186.496 83.628 186.032 84.14 185.488 84.588C184.944 85.036 184.32 85.356 183.616 85.548C182.912 85.772 182.208 85.884 181.504 85.884C180.736 85.884 179.984 85.756 179.248 85.5C178.512 85.276 177.856 84.908 177.28 84.396C176.704 83.852 176.224 83.244 175.84 82.572C175.488 81.9 175.2 81.196 174.976 80.46C174.784 79.724 174.64 78.972 174.544 78.204C174.48 77.436 174.448 76.668 174.448 75.9V70.14C174.448 69.372 174.48 68.604 174.544 67.836C174.64 67.068 174.784 66.316 174.976 65.58C175.2 64.844 175.488 64.14 175.84 63.468C176.224 62.796 176.704 62.204 177.28 61.692C177.856 61.148 178.512 60.764 179.248 60.54C179.984 60.284 180.736 60.156 181.504 60.156C182.208 60.156 182.912 60.268 183.616 60.492C184.32 60.684 184.944 61.004 185.488 61.452C186.032 61.9 186.496 62.428 186.88 63.036C187.264 63.612 187.584 64.236 187.84 64.908V60.54H193.168V86.22C193.168 87.084 193.104 87.932 192.976 88.764C192.848 89.628 192.608 90.46 192.256 91.26C191.904 92.06 191.44 92.78 190.864 93.42C190.288 94.092 189.616 94.636 188.848 95.052C188.112 95.468 187.312 95.756 186.448 95.916C185.616 96.108 184.768 96.204 183.904 96.204ZM183.808 81.276C184.448 81.276 185.056 81.132 185.632 80.844C186.208 80.524 186.656 80.092 186.976 79.548C187.296 79.004 187.52 78.428 187.648 77.82C187.776 77.18 187.84 76.54 187.84 75.9V70.14C187.84 69.5 187.776 68.876 187.648 68.268C187.52 67.628 187.296 67.036 186.976 66.492C186.656 65.948 186.208 65.532 185.632 65.244C185.056 64.924 184.448 64.764 183.808 64.764C183.168 64.764 182.56 64.924 181.984 65.244C181.408 65.532 180.96 65.948 180.64 66.492C180.32 67.036 180.096 67.628 179.968 68.268C179.84 68.876 179.776 69.5 179.776 70.14V75.9C179.776 76.54 179.84 77.18 179.968 77.82C180.096 78.428 180.32 79.004 180.64 79.548C180.96 80.092 181.408 80.524 181.984 80.844C182.56 81.132 183.168 81.276 183.808 81.276ZM199.6 85.5V80.892H205.648V65.148H200.272V60.54H211.024V80.892H216.4V85.5H199.6ZM208.24 57.18C207.728 57.18 207.216 57.1 206.704 56.94C206.192 56.78 205.76 56.524 205.408 56.172C205.056 55.82 204.8 55.388 204.64 54.876C204.48 54.364 204.4 53.852 204.4 53.34C204.4 52.828 204.48 52.316 204.64 51.804C204.8 51.292 205.056 50.86 205.408 50.508C205.76 50.156 206.192 49.9 206.704 49.74C207.216 49.58 207.728 49.5 208.24 49.5C208.752 49.5 209.264 49.58 209.776 49.74C210.288 49.9 210.72 50.156 211.072 50.508C211.424 50.86 211.68 51.292 211.84 51.804C212 52.316 212.08 52.828 212.08 53.34C212.08 53.852 212 54.364 211.84 54.876C211.68 55.388 211.424 55.82 211.072 56.172C210.72 56.524 210.288 56.78 209.776 56.94C209.264 57.1 208.752 57.18 208.24 57.18ZM231.952 85.884C231.216 85.884 230.48 85.836 229.744 85.74C229.04 85.676 228.352 85.532 227.68 85.308C227.008 85.084 226.352 84.78 225.712 84.396C225.104 83.98 224.576 83.5 224.128 82.956C223.68 82.38 223.328 81.74 223.072 81.036C222.848 80.332 222.736 79.628 222.736 78.924V78.588H228.064V78.684C228.064 79.132 228.192 79.548 228.448 79.932C228.704 80.284 229.024 80.572 229.408 80.796C229.792 80.988 230.192 81.116 230.608 81.18C231.056 81.244 231.504 81.276 231.952 81.276C232.368 81.276 232.784 81.244 233.2 81.18C233.648 81.116 234.064 81.004 234.448 80.844C234.832 80.652 235.152 80.38 235.408 80.028C235.696 79.676 235.84 79.292 235.84 78.876C235.84 78.364 235.664 77.9 235.312 77.484C234.992 77.036 234.608 76.7 234.16 76.476C233.712 76.22 233.232 76.012 232.72 75.852C232.24 75.692 231.744 75.532 231.232 75.372C230.752 75.212 230.272 75.052 229.792 74.892C229.312 74.7 228.832 74.492 228.352 74.268C227.904 74.012 227.456 73.74 227.008 73.452C226.592 73.164 226.192 72.86 225.808 72.54C225.424 72.188 225.072 71.804 224.752 71.388C224.432 70.972 224.16 70.54 223.936 70.092C223.712 69.612 223.536 69.132 223.408 68.652C223.28 68.14 223.216 67.628 223.216 67.116C223.216 66.412 223.328 65.724 223.552 65.052C223.776 64.348 224.096 63.724 224.512 63.18C224.928 62.604 225.424 62.124 226 61.74C226.608 61.324 227.232 61.004 227.872 60.78C228.544 60.524 229.232 60.364 229.936 60.3C230.64 60.204 231.344 60.156 232.048 60.156C232.752 60.156 233.456 60.204 234.16 60.3C234.864 60.364 235.536 60.524 236.176 60.78C236.848 61.004 237.472 61.324 238.048 61.74C238.656 62.124 239.168 62.604 239.584 63.18C240.032 63.756 240.352 64.38 240.544 65.052C240.768 65.724 240.88 66.412 240.88 67.116V67.452H235.552V67.356C235.552 66.94 235.44 66.556 235.216 66.204C234.992 65.82 234.704 65.532 234.352 65.34C234.032 65.116 233.664 64.972 233.248 64.908C232.864 64.812 232.464 64.764 232.048 64.764C231.664 64.764 231.264 64.796 230.848 64.86C230.464 64.924 230.096 65.052 229.744 65.244C229.392 65.436 229.104 65.708 228.88 66.06C228.656 66.38 228.544 66.748 228.544 67.164C228.544 67.676 228.704 68.14 229.024 68.556C229.376 68.972 229.776 69.308 230.224 69.564C230.672 69.82 231.136 70.028 231.616 70.188C232.128 70.348 232.624 70.508 233.104 70.668C233.616 70.796 234.112 70.956 234.592 71.148C235.072 71.34 235.536 71.564 235.984 71.82C236.464 72.044 236.912 72.3 237.328 72.588C237.776 72.876 238.192 73.196 238.576 73.548C238.96 73.868 239.312 74.236 239.632 74.652C239.952 75.036 240.224 75.468 240.448 75.948C240.672 76.396 240.848 76.876 240.976 77.388C241.104 77.9 241.168 78.412 241.168 78.924C241.168 79.628 241.04 80.332 240.784 81.036C240.56 81.74 240.224 82.38 239.776 82.956C239.328 83.5 238.784 83.98 238.144 84.396C237.536 84.78 236.896 85.084 236.224 85.308C235.552 85.532 234.848 85.676 234.112 85.74C233.408 85.836 232.688 85.884 231.952 85.884ZM247.6 85.5V50.22H252.928V70.956L259.792 60.54H265.936L257.68 71.964L265.936 85.5H259.984L254.752 76.092L252.928 78.588V85.5H247.6ZM316.576 66.108V68.22H329.776V66.108H316.576ZM316.576 60.3V62.364H329.776V60.3H316.576ZM326.56 44.7H332.128V48.012H337.552V52.716H332.128V55.452H326.56V52.716H320.992V55.452H315.52V52.716H309.904V48.012H315.52V44.7H320.992V48.012H326.56V44.7ZM311.248 56.316H335.344V72.204H326.08L325.744 74.988H337.744V79.74H329.344C331.552 82.364 334.784 84.108 339.04 84.972C338.432 85.516 337.776 86.252 337.072 87.18C336.4 88.14 335.872 88.988 335.488 89.724C332.768 88.988 330.48 87.852 328.624 86.316C326.768 84.812 325.232 82.956 324.016 80.748C323.024 82.828 321.456 84.62 319.312 86.124C317.168 87.628 314.112 88.86 310.144 89.82C309.92 89.116 309.504 88.3 308.896 87.372C308.32 86.476 307.76 85.756 307.216 85.212C310.224 84.604 312.576 83.852 314.272 82.956C316 82.06 317.312 80.988 318.208 79.74H309.04V74.988H320.08C320.144 74.54 320.208 74.092 320.272 73.644C320.368 73.164 320.432 72.684 320.464 72.204H311.248V56.316ZM299.248 44.7H304.672V53.676H309.04V59.004H304.672V60.684C305.024 61.132 305.472 61.772 306.016 62.604C306.592 63.436 307.184 64.316 307.792 65.244C308.432 66.172 308.992 67.02 309.472 67.788C309.984 68.556 310.336 69.116 310.528 69.468L307.12 73.5C306.544 71.932 305.728 70.092 304.672 67.98V89.772H299.248V73.308C298.736 74.844 298.16 76.284 297.52 77.628C296.912 78.94 296.288 80.108 295.648 81.132C295.36 80.3 294.944 79.324 294.4 78.204C293.856 77.052 293.344 76.092 292.864 75.324C293.76 74.172 294.608 72.764 295.408 71.1C296.208 69.436 296.928 67.66 297.568 65.772C298.24 63.884 298.8 62.028 299.248 60.204V59.004H294.016V53.676H299.248V44.7ZM377.248 66.3V57.708H371.872V62.268C371.872 62.94 371.856 63.612 371.824 64.284C371.824 64.956 371.808 65.628 371.776 66.3H377.248ZM366.352 45.228H371.872V52.332H382.624V66.3H385.648V71.772H374.896C376.016 74.716 377.536 77.324 379.456 79.596C381.376 81.836 383.744 83.564 386.56 84.78C385.92 85.356 385.2 86.156 384.4 87.18C383.6 88.204 382.976 89.116 382.528 89.916C379.616 88.348 377.184 86.268 375.232 83.676C373.28 81.052 371.696 78.012 370.48 74.556C369.616 77.564 368.144 80.396 366.064 83.052C363.984 85.676 360.912 87.964 356.848 89.916C356.592 89.468 356.224 88.972 355.744 88.428C355.296 87.884 354.816 87.34 354.304 86.796C353.792 86.284 353.328 85.868 352.912 85.548C355.472 84.364 357.584 83.052 359.248 81.612C360.912 80.172 362.224 78.62 363.184 76.956C364.144 75.292 364.864 73.564 365.344 71.772H358.048V66.3H366.208C366.304 64.956 366.352 63.612 366.352 62.268V57.708H359.248V52.332H366.352V45.228ZM341.248 76.428C342.08 76.14 343.008 75.804 344.032 75.42C345.056 75.004 346.128 74.572 347.248 74.124V61.308H342.112V55.836H347.248V45.372H352.624V55.836H357.328V61.308H352.624V71.916L356.944 70.092L358.24 75.18C355.744 76.428 353.216 77.66 350.656 78.876C348.096 80.092 345.728 81.196 343.552 82.188L341.248 76.428Z" fill="white"/>
<path d="M841.09 69.9167H811.667V65.0834H841.09L827.556 51.55L831 48.1667L850.333 67.5L831 86.8334L827.556 83.45L841.09 69.9167Z" fill="white"/>
<g opacity="0.8" clip-path="url(#clip0_52_55)">
<path d="M94.6666 64.3334H90.6666V53.6667C90.6666 50.7334 88.2666 48.3334 85.3333 48.3334H74.6666V44.3334C74.6666 40.6534 71.6799 37.6667 67.9999 37.6667C64.3199 37.6667 61.3333 40.6534 61.3333 44.3334V48.3334H50.6666C47.7333 48.3334 45.3599 50.7334 45.3599 53.6667V63.8H49.3333C53.3066 63.8 56.5333 67.0267 56.5333 71C56.5333 74.9734 53.3066 78.2 49.3333 78.2H45.3333V88.3334C45.3333 91.2667 47.7333 93.6667 50.6666 93.6667H60.7999V89.6667C60.7999 85.6934 64.0266 82.4667 67.9999 82.4667C71.9733 82.4667 75.1999 85.6934 75.1999 89.6667V93.6667H85.3333C88.2666 93.6667 90.6666 91.2667 90.6666 88.3334V77.6667H94.6666C98.3466 77.6667 101.333 74.68 101.333 71C101.333 67.32 98.3466 64.3334 94.6666 64.3334Z" fill="white"/>
</g>
<defs>
<radialGradient id="paint0_radial_52_55" cx="0" cy="0" r="1" gradientUnits="userSpaceOnUse" gradientTransform="translate(450 19.6875) rotate(90) scale(137.009 913.393)">
<stop/>
<stop offset="1" stop-color="#132A2B"/>
</radialGradient>
<clipPath id="clip0_52_55">
<rect width="64" height="64" fill="white" transform="translate(40 35)"/>
</clipPath>
</defs>
</svg>
