<svg width="900" height="135" viewBox="0 0 900 135" fill="none" xmlns="http://www.w3.org/2000/svg">
<rect width="900" height="135" rx="30" fill="url(#paint0_radial_52_73)"/>
<path d="M126.016 85.5V50.22H131.68L136 67.548L140.32 50.22H145.984V85.5H140.992V78.444C140.992 76.812 141.008 75.18 141.04 73.548C141.072 71.916 141.136 70.3 141.232 68.7C141.328 67.068 141.424 65.436 141.52 63.804C141.648 62.172 141.76 60.54 141.856 58.908L137.824 74.892H134.176L130.144 58.908C130.24 60.54 130.336 62.172 130.432 63.804C130.56 65.436 130.672 67.068 130.768 68.7C130.864 70.3 130.928 71.916 130.96 73.548C130.992 75.18 131.008 76.812 131.008 78.444V85.5H126.016ZM151.6 85.5V80.892H157.648V65.148H152.272V60.54H163.024V80.892H168.4V85.5H151.6ZM160.24 57.18C159.728 57.18 159.216 57.1 158.704 56.94C158.192 56.78 157.76 56.524 157.408 56.172C157.056 55.82 156.8 55.388 156.64 54.876C156.48 54.364 156.4 53.852 156.4 53.34C156.4 52.828 156.48 52.316 156.64 51.804C156.8 51.292 157.056 50.86 157.408 50.508C157.76 50.156 158.192 49.9 158.704 49.74C159.216 49.58 159.728 49.5 160.24 49.5C160.752 49.5 161.264 49.58 161.776 49.74C162.288 49.9 162.72 50.156 163.072 50.508C163.424 50.86 163.68 51.292 163.84 51.804C164 52.316 164.08 52.828 164.08 53.34C164.08 53.852 164 54.364 163.84 54.876C163.68 55.388 163.424 55.82 163.072 56.172C162.72 56.524 162.288 56.78 161.776 56.94C161.264 57.1 160.752 57.18 160.24 57.18ZM174.832 85.5V60.54H180.16V64.86C180.416 64.22 180.72 63.596 181.072 62.988C181.456 62.38 181.904 61.868 182.416 61.452C182.96 61.004 183.568 60.684 184.24 60.492C184.912 60.268 185.6 60.156 186.304 60.156C187.072 60.156 187.808 60.284 188.512 60.54C189.248 60.796 189.888 61.196 190.432 61.74C191.008 62.252 191.472 62.844 191.824 63.516C192.176 64.188 192.448 64.892 192.64 65.628C192.864 66.364 193.008 67.116 193.072 67.884C193.136 68.62 193.168 69.372 193.168 70.14V85.5H187.84V70.14C187.84 69.724 187.808 69.308 187.744 68.892C187.712 68.476 187.632 68.076 187.504 67.692C187.408 67.276 187.248 66.892 187.024 66.54C186.832 66.188 186.576 65.868 186.256 65.58C185.968 65.292 185.616 65.084 185.2 64.956C184.816 64.828 184.416 64.764 184 64.764C183.584 64.764 183.168 64.828 182.752 64.956C182.368 65.084 182.016 65.292 181.696 65.58C181.408 65.868 181.152 66.188 180.928 66.54C180.736 66.892 180.576 67.276 180.448 67.692C180.352 68.076 180.272 68.476 180.208 68.892C180.176 69.308 180.16 69.724 180.16 70.14V85.5H174.832ZM208 85.884C207.104 85.884 206.224 85.804 205.36 85.644C204.496 85.484 203.68 85.196 202.912 84.78C202.144 84.364 201.456 83.836 200.848 83.196C200.272 82.524 199.792 81.788 199.408 80.988C199.056 80.188 198.8 79.356 198.64 78.492C198.512 77.628 198.448 76.764 198.448 75.9V70.14C198.448 69.276 198.512 68.412 198.64 67.548C198.8 66.652 199.056 65.82 199.408 65.052C199.792 64.252 200.272 63.532 200.848 62.892C201.456 62.22 202.144 61.676 202.912 61.26C203.68 60.844 204.496 60.556 205.36 60.396C206.256 60.236 207.136 60.156 208 60.156C208.864 60.156 209.728 60.236 210.592 60.396C211.488 60.556 212.32 60.844 213.088 61.26C213.856 61.676 214.528 62.22 215.104 62.892C215.712 63.532 216.192 64.252 216.544 65.052C216.928 65.82 217.184 66.652 217.312 67.548C217.472 68.412 217.552 69.276 217.552 70.14V75.324H203.776V75.9C203.776 76.54 203.84 77.18 203.968 77.82C204.096 78.46 204.336 79.052 204.688 79.596C205.04 80.14 205.52 80.556 206.128 80.844C206.736 81.132 207.36 81.276 208 81.276C208.48 81.276 208.96 81.228 209.44 81.132C209.92 81.036 210.352 80.86 210.736 80.604C211.152 80.316 211.472 79.948 211.696 79.5C211.952 79.052 212.096 78.588 212.128 78.108H217.456C217.456 78.876 217.344 79.628 217.12 80.364C216.896 81.1 216.56 81.788 216.112 82.428C215.664 83.068 215.12 83.612 214.48 84.06C213.872 84.508 213.2 84.876 212.464 85.164C211.76 85.452 211.024 85.644 210.256 85.74C209.52 85.836 208.768 85.884 208 85.884ZM203.776 70.716H212.224V70.14C212.224 69.5 212.16 68.86 212.032 68.22C211.904 67.58 211.648 66.988 211.264 66.444C210.912 65.9 210.432 65.484 209.824 65.196C209.248 64.908 208.64 64.764 208 64.764C207.36 64.764 206.736 64.908 206.128 65.196C205.552 65.484 205.072 65.9 204.688 66.444C204.336 66.988 204.096 67.58 203.968 68.22C203.84 68.86 203.776 69.5 203.776 70.14V70.716ZM231.856 85.884C230.992 85.884 230.128 85.804 229.264 85.644C228.4 85.484 227.584 85.196 226.816 84.78C226.08 84.332 225.408 83.788 224.8 83.148C224.224 82.476 223.744 81.756 223.36 80.988C223.008 80.188 222.768 79.356 222.64 78.492C222.512 77.628 222.448 76.764 222.448 75.9V70.14C222.448 69.276 222.512 68.412 222.64 67.548C222.768 66.684 223.008 65.868 223.36 65.1C223.744 64.3 224.224 63.58 224.8 62.94C225.408 62.268 226.08 61.724 226.816 61.308C227.584 60.86 228.4 60.556 229.264 60.396C230.128 60.236 230.992 60.156 231.856 60.156C232.688 60.156 233.504 60.236 234.304 60.396C235.136 60.524 235.92 60.78 236.656 61.164C237.392 61.516 238.048 61.98 238.624 62.556C239.232 63.132 239.728 63.788 240.112 64.524C240.496 65.26 240.784 66.028 240.976 66.828C241.168 67.628 241.264 68.444 241.264 69.276V69.612H235.936V69.468C235.936 68.86 235.856 68.268 235.696 67.692C235.536 67.116 235.28 66.604 234.928 66.156C234.576 65.708 234.112 65.372 233.536 65.148C232.992 64.892 232.432 64.764 231.856 64.764C231.216 64.764 230.608 64.924 230.032 65.244C229.456 65.532 228.992 65.948 228.64 66.492C228.32 67.036 228.096 67.628 227.968 68.268C227.84 68.876 227.776 69.5 227.776 70.14V75.9C227.776 76.54 227.84 77.18 227.968 77.82C228.096 78.428 228.32 79.004 228.64 79.548C228.992 80.092 229.456 80.524 230.032 80.844C230.608 81.132 231.216 81.276 231.856 81.276C232.432 81.276 232.992 81.164 233.536 80.94C234.112 80.684 234.576 80.332 234.928 79.884C235.28 79.436 235.536 78.924 235.696 78.348C235.856 77.772 235.936 77.18 235.936 76.572V76.428H241.264V76.764C241.264 77.596 241.168 78.412 240.976 79.212C240.784 80.012 240.496 80.78 240.112 81.516C239.728 82.252 239.232 82.908 238.624 83.484C238.048 84.06 237.392 84.54 236.656 84.924C235.92 85.276 235.136 85.516 234.304 85.644C233.504 85.804 232.688 85.884 231.856 85.884ZM249.52 85.5V60.54H254.896V65.724C255.088 65.02 255.328 64.348 255.616 63.708C255.936 63.036 256.336 62.428 256.816 61.884C257.296 61.34 257.872 60.924 258.544 60.636C259.216 60.316 259.904 60.156 260.608 60.156C261.216 60.156 261.808 60.252 262.384 60.444C262.992 60.636 263.52 60.94 263.968 61.356C264.416 61.772 264.768 62.252 265.024 62.796C265.312 63.34 265.536 63.916 265.696 64.524C265.856 65.1 265.952 65.692 265.984 66.3C266.048 66.908 266.08 67.516 266.08 68.124H260.704C260.704 67.74 260.672 67.356 260.608 66.972C260.576 66.588 260.48 66.236 260.32 65.916C260.16 65.564 259.904 65.292 259.552 65.1C259.232 64.876 258.88 64.764 258.496 64.764C257.984 64.764 257.504 64.924 257.056 65.244C256.64 65.532 256.304 65.9 256.048 66.348C255.792 66.764 255.584 67.228 255.424 67.74C255.296 68.22 255.184 68.716 255.088 69.228C255.024 69.74 254.976 70.252 254.944 70.764C254.912 71.244 254.896 71.74 254.896 72.252V85.5H249.52ZM277.504 85.884C276.544 85.884 275.584 85.74 274.624 85.452C273.696 85.132 272.896 84.62 272.224 83.916C271.584 83.212 271.12 82.396 270.832 81.468C270.576 80.508 270.448 79.548 270.448 78.588C270.448 77.724 270.544 76.892 270.736 76.092C270.96 75.26 271.328 74.508 271.84 73.836C272.352 73.164 272.96 72.588 273.664 72.108C274.368 71.628 275.12 71.26 275.92 71.004C276.72 70.716 277.536 70.524 278.368 70.428C279.232 70.332 280.08 70.284 280.912 70.284H283.84V68.652C283.84 68.108 283.76 67.596 283.6 67.116C283.44 66.604 283.168 66.172 282.784 65.82C282.432 65.436 282 65.164 281.488 65.004C280.976 64.844 280.464 64.764 279.952 64.764C279.472 64.764 279.008 64.812 278.56 64.908C278.112 65.004 277.696 65.196 277.312 65.484C276.928 65.74 276.624 66.092 276.4 66.54C276.176 66.956 276.064 67.388 276.064 67.836V67.932H270.736V67.692C270.736 66.956 270.848 66.236 271.072 65.532C271.296 64.796 271.616 64.124 272.032 63.516C272.448 62.876 272.96 62.348 273.568 61.932C274.208 61.484 274.864 61.132 275.536 60.876C276.24 60.588 276.96 60.396 277.696 60.3C278.464 60.204 279.216 60.156 279.952 60.156C280.752 60.156 281.536 60.22 282.304 60.348C283.104 60.444 283.856 60.652 284.56 60.972C285.296 61.292 285.968 61.724 286.576 62.268C287.184 62.78 287.68 63.388 288.064 64.092C288.48 64.764 288.768 65.5 288.928 66.3C289.088 67.068 289.168 67.852 289.168 68.652V85.5H283.84V81.564C283.584 82.204 283.248 82.812 282.832 83.388C282.416 83.932 281.92 84.396 281.344 84.78C280.8 85.164 280.192 85.436 279.52 85.596C278.848 85.788 278.176 85.884 277.504 85.884ZM279.808 81.276C280.352 81.276 280.896 81.18 281.44 80.988C281.984 80.796 282.448 80.492 282.832 80.076C283.216 79.628 283.472 79.132 283.6 78.588C283.76 78.012 283.84 77.436 283.84 76.86V74.892H280.912C280.528 74.892 280.144 74.908 279.76 74.94C279.408 74.972 279.04 75.036 278.656 75.132C278.304 75.228 277.952 75.356 277.6 75.516C277.248 75.644 276.928 75.836 276.64 76.092C276.352 76.316 276.128 76.604 275.968 76.956C275.84 77.308 275.776 77.676 275.776 78.06C275.776 78.54 275.888 79.004 276.112 79.452C276.336 79.9 276.64 80.268 277.024 80.556C277.44 80.844 277.888 81.036 278.368 81.132C278.848 81.228 279.328 81.276 279.808 81.276ZM299.92 85.5V67.116H294.832V62.508H299.92V58.092C299.92 57.42 299.968 56.748 300.064 56.076C300.16 55.372 300.336 54.7 300.592 54.06C300.848 53.42 301.184 52.828 301.6 52.284C302.016 51.708 302.512 51.244 303.088 50.892C303.664 50.508 304.288 50.236 304.96 50.076C305.664 49.916 306.352 49.836 307.024 49.836C307.984 49.836 308.928 49.98 309.856 50.268C310.784 50.556 311.568 51.036 312.208 51.708C312.88 52.38 313.376 53.18 313.696 54.108C314.016 55.036 314.176 55.964 314.176 56.892V57.036H308.8V56.988C308.8 56.7 308.768 56.412 308.704 56.124C308.672 55.836 308.576 55.564 308.416 55.308C308.288 55.052 308.096 54.844 307.84 54.684C307.616 54.524 307.344 54.444 307.024 54.444C306.672 54.444 306.368 54.604 306.112 54.924C305.856 55.212 305.664 55.532 305.536 55.884C305.44 56.236 305.36 56.604 305.296 56.988C305.264 57.34 305.248 57.708 305.248 58.092V62.508H312.256V67.116H305.248V85.5H299.92ZM330.736 85.884C330 85.884 329.248 85.788 328.48 85.596C327.744 85.404 327.056 85.084 326.416 84.636C325.808 84.188 325.28 83.644 324.832 83.004C324.416 82.364 324.08 81.692 323.824 80.988C323.568 80.252 323.392 79.5 323.296 78.732C323.2 77.964 323.152 77.196 323.152 76.428V65.148H319.36V60.54H323.152V50.22H328.528V60.54H336.16V65.148H328.528V76.428C328.528 76.78 328.528 77.116 328.528 77.436C328.56 77.756 328.592 78.076 328.624 78.396C328.688 78.716 328.768 79.036 328.864 79.356C328.96 79.676 329.072 79.98 329.2 80.268C329.36 80.524 329.568 80.764 329.824 80.988C330.112 81.18 330.416 81.276 330.736 81.276C331.056 81.276 331.344 81.18 331.6 80.988C331.888 80.796 332.112 80.572 332.272 80.316C332.432 80.028 332.544 79.74 332.608 79.452C332.704 79.132 332.784 78.828 332.848 78.54C332.912 78.22 332.944 77.9 332.944 77.58C332.976 77.26 332.992 76.956 332.992 76.668V76.428H338.368V76.86C338.368 77.596 338.304 78.332 338.176 79.068C338.048 79.804 337.84 80.524 337.552 81.228C337.296 81.9 336.944 82.54 336.496 83.148C336.08 83.756 335.568 84.284 334.96 84.732C334.352 85.148 333.68 85.436 332.944 85.596C332.24 85.788 331.504 85.884 330.736 85.884ZM392.8 62.316H398.608V72.204C398.608 73.868 398.368 75.532 397.888 77.196C397.408 78.828 396.56 80.428 395.344 81.996C394.16 83.532 392.48 84.972 390.304 86.316C388.16 87.66 385.392 88.86 382 89.916C381.648 89.308 381.104 88.556 380.368 87.66C379.632 86.764 378.944 86.044 378.304 85.5C381.536 84.7 384.112 83.788 386.032 82.764C387.952 81.708 389.392 80.588 390.352 79.404C391.344 78.188 392 76.972 392.32 75.756C392.64 74.508 392.8 73.292 392.8 72.108V62.316ZM396.928 82.044L400.48 78.588C401.632 79.228 402.864 79.98 404.176 80.844C405.488 81.676 406.736 82.524 407.92 83.388C409.104 84.22 410.08 84.988 410.848 85.692L407.008 89.58C406.304 88.876 405.376 88.076 404.224 87.18C403.104 86.284 401.888 85.388 400.576 84.492C399.296 83.564 398.08 82.748 396.928 82.044ZM364.912 75.468L371.296 73.836V55.356H365.728V49.884H381.76V55.356H377.008V72.348L381.952 71.052L382.624 75.852C379.808 76.876 376.976 77.884 374.128 78.876C371.28 79.868 368.672 80.764 366.304 81.564L364.912 75.468ZM383.728 55.452H390.64C390.896 54.844 391.12 54.22 391.312 53.58C391.536 52.94 391.744 52.316 391.936 51.708H382.384V46.572H410.224V51.708H398.656L396.688 55.452H407.824V77.964H401.92V60.492H389.344V78.108H383.728V55.452ZM424.576 63.9V69.564H446.848V63.9H424.576ZM424.576 58.428H446.848V52.956H424.576V58.428ZM424.576 75.036V80.652H446.848V75.036H424.576ZM418.768 47.34H452.992V89.292H446.848V86.268H424.576V89.292H418.768V47.34Z" fill="white"/>
<path d="M841.09 69.9167H811.667V65.0834H841.09L827.556 51.55L831 48.1667L850.333 67.5L831 86.8334L827.556 83.45L841.09 69.9167Z" fill="white"/>
<g opacity="0.8">
<path d="M69.3333 86.8V68.5333L53.3333 59.2666V77.5333L69.3333 86.8ZM74.6667 86.8L90.6667 77.5333V59.2666L74.6667 68.5333V86.8ZM72 63.9333L87.8 54.8L72 45.6666L56.2 54.8L72 63.9333ZM50.6667 82.2C49.8222 81.7111 49.1667 81.0666 48.7 80.2666C48.2333 79.4666 48 78.5778 48 77.6V56.4C48 55.4222 48.2333 54.5333 48.7 53.7333C49.1667 52.9333 49.8222 52.2889 50.6667 51.8L69.3333 41.0666C70.1778 40.5778 71.0667 40.3333 72 40.3333C72.9333 40.3333 73.8222 40.5778 74.6667 41.0666L93.3333 51.8C94.1778 52.2889 94.8333 52.9333 95.3 53.7333C95.7667 54.5333 96 55.4222 96 56.4V77.6C96 78.5778 95.7667 79.4666 95.3 80.2666C94.8333 81.0666 94.1778 81.7111 93.3333 82.2L74.6667 92.9333C73.8222 93.4222 72.9333 93.6666 72 93.6666C71.0667 93.6666 70.1778 93.4222 69.3333 92.9333L50.6667 82.2Z" fill="white"/>
</g>
<defs>
<radialGradient id="paint0_radial_52_73" cx="0" cy="0" r="1" gradientUnits="userSpaceOnUse" gradientTransform="translate(450 19.6875) rotate(90) scale(137.009 913.393)">
<stop/>
<stop offset="1" stop-color="#132B1D"/>
</radialGradient>
</defs>
</svg>
