<svg width="800" height="336" viewBox="0 0 800 336" fill="none" xmlns="http://www.w3.org/2000/svg">
<g clip-path="url(#clip0_92_53)">
<rect width="800" height="336" fill="url(#paint0_linear_92_53)"/>
<path opacity="0.8" d="M52.432 215.24C51.12 215.24 50.056 214.8 49.24 213.92C48.44 213.04 48.04 211.848 48.04 210.344V206.48C48.04 204.96 48.44 203.76 49.24 202.88C50.04 202 51.104 201.56 52.432 201.56C53.52 201.56 54.392 201.856 55.048 202.448C55.704 203.04 56.032 203.832 56.032 204.824L55.6 204.32H56.08L56.032 201.32V197.48H58.192V215H56.032V212.48H55.6L56.032 211.976C56.032 212.984 55.704 213.784 55.048 214.376C54.392 214.952 53.52 215.24 52.432 215.24ZM53.152 213.368C54.048 213.368 54.752 213.088 55.264 212.528C55.776 211.968 56.032 211.192 56.032 210.2V206.6C56.032 205.608 55.776 204.832 55.264 204.272C54.752 203.712 54.048 203.432 53.152 203.432C52.24 203.432 51.52 203.704 50.992 204.248C50.464 204.792 50.2 205.576 50.2 206.6V210.2C50.2 211.224 50.464 212.008 50.992 212.552C51.52 213.096 52.24 213.368 53.152 213.368ZM66.4386 215.24C65.0466 215.24 63.9506 214.888 63.1506 214.184C62.3506 213.464 61.9506 212.496 61.9506 211.28C61.9506 210.048 62.3506 209.08 63.1506 208.376C63.9506 207.672 65.0306 207.32 66.3906 207.32H70.4706V206C70.4706 205.184 70.2226 204.56 69.7266 204.128C69.2466 203.68 68.5586 203.456 67.6626 203.456C66.8786 203.456 66.2226 203.624 65.6946 203.96C65.1666 204.28 64.8626 204.72 64.7826 205.28H62.6226C62.7666 204.144 63.3026 203.24 64.2306 202.568C65.1586 201.896 66.3186 201.56 67.7106 201.56C69.2306 201.56 70.4306 201.952 71.3106 202.736C72.1906 203.52 72.6306 204.584 72.6306 205.928V215H70.5186V212.48H70.1586L70.5186 212.12C70.5186 213.08 70.1426 213.84 69.3906 214.4C68.6546 214.96 67.6706 215.24 66.4386 215.24ZM66.9666 213.536C67.9906 213.536 68.8306 213.28 69.4866 212.768C70.1426 212.256 70.4706 211.6 70.4706 210.8V208.928H66.4386C65.7186 208.928 65.1506 209.128 64.7346 209.528C64.3186 209.928 64.1106 210.472 64.1106 211.16C64.1106 211.896 64.3586 212.48 64.8546 212.912C65.3666 213.328 66.0706 213.536 66.9666 213.536ZM81.5733 215.192C80.6773 215.192 79.8933 215.056 79.2213 214.784C78.5653 214.496 78.0373 214.096 77.6373 213.584C77.2533 213.072 77.0213 212.464 76.9413 211.76H79.1013C79.1973 212.224 79.4533 212.592 79.8693 212.864C80.3013 213.136 80.8693 213.272 81.5733 213.272H82.5813C83.4293 213.272 84.0613 213.104 84.4773 212.768C84.8933 212.416 85.1013 211.952 85.1013 211.376C85.1013 210.816 84.9093 210.376 84.5253 210.056C84.1573 209.72 83.6053 209.496 82.8693 209.384L81.0933 209.096C79.7973 208.872 78.8293 208.472 78.1893 207.896C77.5653 207.304 77.2533 206.448 77.2533 205.328C77.2533 204.144 77.6293 203.232 78.3813 202.592C79.1333 201.936 80.2613 201.608 81.7653 201.608H82.6773C83.9413 201.608 84.9573 201.904 85.7253 202.496C86.4933 203.088 86.9573 203.888 87.1172 204.896H84.9573C84.8613 204.48 84.6213 204.152 84.2373 203.912C83.8533 203.656 83.3333 203.528 82.6773 203.528H81.7653C80.9493 203.528 80.3493 203.68 79.9653 203.984C79.5973 204.288 79.4133 204.744 79.4133 205.352C79.4133 205.896 79.5733 206.296 79.8933 206.552C80.2133 206.808 80.7173 206.992 81.4053 207.104L83.1813 207.392C84.6053 207.616 85.6373 208.032 86.2773 208.64C86.9333 209.248 87.2613 210.128 87.2613 211.28C87.2613 212.496 86.8693 213.456 86.0853 214.16C85.3173 214.848 84.1493 215.192 82.5813 215.192H81.5733ZM91.3799 215V197.48H93.5399V201.8V204.32H93.9959L93.5399 204.824C93.5399 203.784 93.8519 202.984 94.4759 202.424C95.0999 201.848 95.9639 201.56 97.0679 201.56C98.3959 201.56 99.4519 201.968 100.236 202.784C101.02 203.6 101.412 204.712 101.412 206.12V215H99.2519V206.36C99.2519 205.416 98.9959 204.688 98.4839 204.176C97.9879 203.648 97.3079 203.384 96.4439 203.384C95.5479 203.384 94.8359 203.664 94.3079 204.224C93.7959 204.784 93.5399 205.576 93.5399 206.6V215H91.3799ZM111.531 215.24C110.443 215.24 109.571 214.952 108.915 214.376C108.259 213.784 107.931 212.984 107.931 211.976L108.363 212.48H107.931V215H105.771V197.48H107.931V201.32L107.883 204.32H108.363L107.931 204.824C107.931 203.832 108.259 203.04 108.915 202.448C109.587 201.856 110.459 201.56 111.531 201.56C112.859 201.56 113.923 202 114.723 202.88C115.523 203.76 115.923 204.96 115.923 206.48V210.344C115.923 211.848 115.523 213.04 114.723 213.92C113.923 214.8 112.859 215.24 111.531 215.24ZM110.811 213.368C111.723 213.368 112.443 213.096 112.971 212.552C113.499 212.008 113.763 211.224 113.763 210.2V206.6C113.763 205.576 113.499 204.792 112.971 204.248C112.443 203.704 111.723 203.432 110.811 203.432C109.931 203.432 109.227 203.712 108.699 204.272C108.187 204.832 107.931 205.608 107.931 206.6V210.2C107.931 211.192 108.187 211.968 108.699 212.528C109.227 213.088 109.931 213.368 110.811 213.368ZM125.153 215.192C124.097 215.192 123.185 214.992 122.417 214.592C121.649 214.192 121.049 213.616 120.617 212.864C120.201 212.096 119.993 211.192 119.993 210.152V206.648C119.993 205.592 120.201 204.688 120.617 203.936C121.049 203.184 121.649 202.608 122.417 202.208C123.185 201.808 124.097 201.608 125.153 201.608C126.209 201.608 127.121 201.808 127.889 202.208C128.657 202.608 129.249 203.184 129.665 203.936C130.097 204.688 130.313 205.584 130.313 206.624V210.152C130.313 211.192 130.097 212.096 129.665 212.864C129.249 213.616 128.657 214.192 127.889 214.592C127.121 214.992 126.209 215.192 125.153 215.192ZM125.153 213.272C126.097 213.272 126.833 213.008 127.361 212.48C127.889 211.952 128.153 211.176 128.153 210.152V206.648C128.153 205.624 127.889 204.848 127.361 204.32C126.833 203.792 126.097 203.528 125.153 203.528C124.225 203.528 123.489 203.792 122.945 204.32C122.417 204.848 122.153 205.624 122.153 206.648V210.152C122.153 211.176 122.417 211.952 122.945 212.48C123.489 213.008 124.225 213.272 125.153 213.272ZM138.392 215.24C137 215.24 135.904 214.888 135.104 214.184C134.304 213.464 133.904 212.496 133.904 211.28C133.904 210.048 134.304 209.08 135.104 208.376C135.904 207.672 136.984 207.32 138.344 207.32H142.424V206C142.424 205.184 142.176 204.56 141.68 204.128C141.2 203.68 140.512 203.456 139.616 203.456C138.832 203.456 138.176 203.624 137.648 203.96C137.12 204.28 136.816 204.72 136.736 205.28H134.576C134.72 204.144 135.256 203.24 136.184 202.568C137.112 201.896 138.272 201.56 139.664 201.56C141.184 201.56 142.384 201.952 143.264 202.736C144.144 203.52 144.584 204.584 144.584 205.928V215H142.472V212.48H142.112L142.472 212.12C142.472 213.08 142.096 213.84 141.344 214.4C140.608 214.96 139.624 215.24 138.392 215.24ZM138.92 213.536C139.944 213.536 140.784 213.28 141.44 212.768C142.096 212.256 142.424 211.6 142.424 210.8V208.928H138.392C137.672 208.928 137.104 209.128 136.688 209.528C136.272 209.928 136.064 210.472 136.064 211.16C136.064 211.896 136.312 212.48 136.808 212.912C137.32 213.328 138.024 213.536 138.92 213.536ZM149.398 215V201.8H151.51V204.32H152.014L151.318 205.88C151.318 204.456 151.622 203.384 152.23 202.664C152.854 201.928 153.774 201.56 154.99 201.56C156.382 201.56 157.486 202 158.302 202.88C159.134 203.744 159.55 204.92 159.55 206.408V207.2H157.39V206.6C157.39 205.56 157.134 204.768 156.622 204.224C156.126 203.664 155.414 203.384 154.486 203.384C153.574 203.384 152.854 203.664 152.326 204.224C151.814 204.784 151.558 205.576 151.558 206.6V215H149.398ZM167.557 215.24C166.245 215.24 165.181 214.8 164.365 213.92C163.565 213.04 163.165 211.848 163.165 210.344V206.48C163.165 204.96 163.565 203.76 164.365 202.88C165.165 202 166.229 201.56 167.557 201.56C168.645 201.56 169.517 201.856 170.173 202.448C170.829 203.04 171.157 203.832 171.157 204.824L170.725 204.32H171.205L171.157 201.32V197.48H173.317V215H171.157V212.48H170.725L171.157 211.976C171.157 212.984 170.829 213.784 170.173 214.376C169.517 214.952 168.645 215.24 167.557 215.24ZM168.277 213.368C169.173 213.368 169.877 213.088 170.389 212.528C170.901 211.968 171.157 211.192 171.157 210.2V206.6C171.157 205.608 170.901 204.832 170.389 204.272C169.877 203.712 169.173 203.432 168.277 203.432C167.365 203.432 166.645 203.704 166.117 204.248C165.589 204.792 165.325 205.576 165.325 206.6V210.2C165.325 211.224 165.589 212.008 166.117 212.552C166.645 213.096 167.365 213.368 168.277 213.368Z" fill="white"/>
<path d="M82.72 233.28L90.24 229.44C91.36 230.987 92.4533 232.693 93.52 234.56C94.64 236.373 95.6267 238.16 96.48 239.92C97.3867 241.68 98.0533 243.28 98.48 244.72L90.48 249.04C90.0533 247.653 89.4133 246.053 88.56 244.24C87.76 242.427 86.8533 240.56 85.84 238.64C84.8267 236.72 83.7867 234.933 82.72 233.28ZM105.12 232.96L114.72 234.48C113.12 243.387 110.987 251.787 108.32 259.68C105.653 267.573 101.92 274.747 97.12 281.2C99.9467 284.133 103.093 286.773 106.56 289.12C110.08 291.467 114 293.44 118.32 295.04C117.2 295.947 115.973 297.227 114.64 298.88C113.307 300.587 112.267 302.08 111.52 303.36C107.2 301.547 103.28 299.44 99.76 297.04C96.2933 294.64 93.1467 291.947 90.32 288.96C87.3867 291.787 84.0533 294.4 80.32 296.8C76.64 299.253 72.5067 301.413 67.92 303.28C67.28 302.213 66.3733 300.933 65.2 299.44C64.0267 297.947 62.9867 296.747 62.08 295.84C66.7733 294.08 70.96 292.027 74.64 289.68C78.32 287.28 81.6 284.613 84.48 281.68C80.3733 275.653 77.04 268.747 74.48 260.96C71.9733 253.173 69.92 244.613 68.32 235.28L77.44 234C78.6667 241.733 80.3733 248.933 82.56 255.6C84.7467 262.267 87.6267 268.267 91.2 273.6C95.04 267.893 98.0267 261.6 100.16 254.72C102.293 247.84 103.947 240.587 105.12 232.96ZM59.36 228.32L68.4 231.2C66.32 236.747 63.76 242.267 60.72 247.76V303.04H51.6V262C50.7467 263.173 49.8667 264.293 48.96 265.36C48.0533 266.427 47.1467 267.44 46.24 268.4C45.9733 267.6 45.52 266.56 44.88 265.28C44.2933 264 43.6533 262.72 42.96 261.44C42.2667 260.16 41.6533 259.147 41.12 258.4C43.52 256 45.84 253.2 48.08 250C50.3733 246.747 52.48 243.28 54.4 239.6C56.3733 235.867 58.0267 232.107 59.36 228.32ZM138.8 303.12C138.64 302.32 138.32 301.387 137.84 300.32C137.413 299.253 136.933 298.187 136.4 297.12C135.867 296.107 135.333 295.28 134.8 294.64C135.707 294.16 136.613 293.413 137.52 292.4C138.427 291.387 138.88 290 138.88 288.24V282.4C135.2 284.373 131.547 286.027 127.92 287.36C127.227 286.24 126.267 284.907 125.04 283.36C123.813 281.813 122.693 280.56 121.68 279.6C126.16 278.213 130.667 276.373 135.2 274.08C139.733 271.733 143.733 269.173 147.2 266.4H124.48V258.24H154.96V253.76H131.92V246.16H154.96V241.92H127.92V233.84H154.96V228H164.64V233.84H192.64V241.92H164.64V246.16H189.52V253.76H164.64V258.24H195.36V266.4H168.32C169.92 270.347 172 273.973 174.56 277.28C176.693 275.84 178.827 274.293 180.96 272.64C183.093 270.987 184.907 269.413 186.4 267.92L194.4 273.84C192.107 275.493 189.707 277.147 187.2 278.8C184.747 280.4 182.347 281.867 180 283.2C182.453 285.333 185.2 287.227 188.24 288.88C191.28 290.533 194.587 291.867 198.16 292.88C197.147 293.893 196.027 295.227 194.8 296.88C193.573 298.533 192.587 300 191.84 301.28C183.52 298.453 176.747 294.16 171.52 288.4C166.347 282.64 162.24 275.6 159.2 267.28C156.107 270.48 152.667 273.44 148.88 276.16V289.76L166.16 285.04C166.267 286.373 166.48 287.893 166.8 289.6C167.173 291.253 167.493 292.587 167.76 293.6C162.053 295.307 157.413 296.693 153.84 297.76C150.32 298.88 147.573 299.76 145.6 300.4C143.627 301.04 142.133 301.547 141.12 301.92C140.16 302.347 139.387 302.747 138.8 303.12ZM203.36 292.72H212V275.36C211.573 274.72 210.933 273.973 210.08 273.12C209.227 272.267 208.347 271.44 207.44 270.64C206.533 269.84 205.733 269.227 205.04 268.8C207.28 267.413 209.067 265.92 210.4 264.32C211.787 262.667 212.827 260.987 213.52 259.28H203.76V251.04H215.36L215.44 247.68V233.84H233.28C233.707 232.773 234.133 231.653 234.56 230.48C234.987 229.307 235.307 228.267 235.52 227.36L246.08 229.12L243.76 233.84H266.88V251.04H276.88V259.28H266.88V264.48C266.88 266.507 266.613 268.107 266.08 269.28C265.6 270.453 264.613 271.36 263.12 272C261.627 272.64 259.867 273.04 257.84 273.2C255.813 273.307 253.387 273.36 250.56 273.36C250.4 272.293 250.053 271.04 249.52 269.6C249.04 268.16 248.507 266.907 247.92 265.84L243.52 271.6C242.56 270.853 241.307 270.027 239.76 269.12C238.267 268.213 236.64 267.333 234.88 266.48C233.173 265.627 231.547 264.907 230 264.32L234.08 259.28H223.52C222.827 262.107 221.653 264.88 220 267.6C218.4 270.267 216.16 272.613 213.28 274.64H268.48V292.72H276.64V300.96H203.36V292.72ZM231.12 246.72L235.36 241.36H224.88V247.92L224.8 251.04H240.24C238.853 250.24 237.333 249.467 235.68 248.72C234.08 247.92 232.56 247.253 231.12 246.72ZM257.28 241.36H236C238.24 242.053 240.587 243.013 243.04 244.24C245.493 245.413 247.467 246.56 248.96 247.68L246.4 251.04H257.28V241.36ZM257.28 259.28H236C238.133 260.133 240.347 261.12 242.64 262.24C244.987 263.36 246.853 264.427 248.24 265.44L255.84 265.52C256.8 265.467 257.28 265.067 257.28 264.32V259.28ZM220.88 292.72H227.76V282H220.88V292.72ZM236.48 292.72H243.36V282H236.48V292.72ZM252.16 292.72H259.12V282H252.16V292.72Z" fill="white"/>
<mask id="mask0_92_53" style="mask-type:alpha" maskUnits="userSpaceOnUse" x="464" y="0" width="336" height="336">
<rect x="464" width="336" height="336" fill="#D9D9D9"/>
</mask>
<g mask="url(#mask0_92_53)">
<path d="M660 126C656.033 126 652.708 124.658 650.025 121.975C647.342 119.292 646 115.967 646 112V55.9999C646 52.0332 647.342 48.7082 650.025 46.0249C652.708 43.3415 656.033 41.9999 660 41.9999H744C747.967 41.9999 751.292 43.3415 753.975 46.0249C756.658 48.7082 758 52.0332 758 55.9999V112C758 115.967 756.658 119.292 753.975 121.975C751.292 124.658 747.967 126 744 126H660ZM520 182C516.033 182 512.708 180.658 510.025 177.975C507.342 175.292 506 171.967 506 168V55.9999C506 52.0332 507.342 48.7082 510.025 46.0249C512.708 43.3415 516.033 41.9999 520 41.9999H604C607.967 41.9999 611.292 43.3415 613.975 46.0249C616.658 48.7082 618 52.0332 618 55.9999V168C618 171.967 616.658 175.292 613.975 177.975C611.292 180.658 607.967 182 604 182H520ZM660 294C656.033 294 652.708 292.658 650.025 289.975C647.342 287.292 646 283.967 646 280V168C646 164.033 647.342 160.708 650.025 158.025C652.708 155.342 656.033 154 660 154H744C747.967 154 751.292 155.342 753.975 158.025C756.658 160.708 758 164.033 758 168V280C758 283.967 756.658 287.292 753.975 289.975C751.292 292.658 747.967 294 744 294H660ZM520 294C516.033 294 512.708 292.658 510.025 289.975C507.342 287.292 506 283.967 506 280V224C506 220.033 507.342 216.708 510.025 214.025C512.708 211.342 516.033 210 520 210H604C607.967 210 611.292 211.342 613.975 214.025C616.658 216.708 618 220.033 618 224V280C618 283.967 616.658 287.292 613.975 289.975C611.292 292.658 607.967 294 604 294H520Z" fill="url(#paint1_radial_92_53)"/>
</g>
</g>
<defs>
<linearGradient id="paint0_linear_92_53" x1="0" y1="0" x2="800" y2="336" gradientUnits="userSpaceOnUse">
<stop/>
<stop offset="0.408755" stop-color="#16252A"/>
<stop offset="1" stop-color="#1D123A"/>
</linearGradient>
<radialGradient id="paint1_radial_92_53" cx="0" cy="0" r="1" gradientTransform="matrix(-254 261 -277.132 -201.249 709 83.9999)" gradientUnits="userSpaceOnUse">
<stop stop-color="white" stop-opacity="0.5"/>
<stop offset="0.563345" stop-color="white" stop-opacity="0.07"/>
<stop offset="0.813671" stop-color="white" stop-opacity="0"/>
</radialGradient>
<clipPath id="clip0_92_53">
<rect width="800" height="336" fill="white"/>
</clipPath>
</defs>
</svg>
