<svg width="900" height="135" viewBox="0 0 900 135" fill="none" xmlns="http://www.w3.org/2000/svg">
<rect width="900" height="135" rx="30" fill="url(#paint0_radial_93_67)"/>
<path d="M135.28 85.5H126.832V50.22H135.28C136.112 50.22 136.944 50.3 137.776 50.46C138.64 50.62 139.44 50.892 140.176 51.276C140.944 51.66 141.616 52.172 142.192 52.812C142.8 53.42 143.28 54.108 143.632 54.876C144.016 55.612 144.272 56.412 144.4 57.276C144.56 58.108 144.64 58.94 144.64 59.772C144.64 60.508 144.576 61.244 144.448 61.98C144.352 62.684 144.144 63.356 143.824 63.996C143.504 64.636 143.088 65.228 142.576 65.772C142.096 66.284 141.536 66.732 140.896 67.116C141.696 67.468 142.432 67.916 143.104 68.46C143.776 69.004 144.32 69.644 144.736 70.38C145.184 71.116 145.488 71.916 145.648 72.78C145.84 73.612 145.936 74.46 145.936 75.324C145.936 76.252 145.84 77.18 145.648 78.108C145.488 79.036 145.184 79.916 144.736 80.748C144.288 81.548 143.712 82.268 143.008 82.908C142.304 83.548 141.536 84.076 140.704 84.492C139.872 84.876 138.992 85.148 138.064 85.308C137.136 85.436 136.208 85.5 135.28 85.5ZM132.16 64.956H135.28C135.888 64.956 136.48 64.828 137.056 64.572C137.632 64.284 138.08 63.884 138.4 63.372C138.752 62.86 138.992 62.3 139.12 61.692C139.248 61.084 139.312 60.476 139.312 59.868C139.312 59.26 139.248 58.652 139.12 58.044C138.992 57.436 138.752 56.892 138.4 56.412C138.048 55.9 137.584 55.516 137.008 55.26C136.464 54.972 135.888 54.828 135.28 54.828H132.16V64.956ZM132.16 80.892H135.28C136.016 80.892 136.736 80.78 137.44 80.556C138.144 80.3 138.736 79.9 139.216 79.356C139.728 78.812 140.08 78.172 140.272 77.436C140.496 76.7 140.608 75.964 140.608 75.228C140.608 74.492 140.496 73.772 140.272 73.068C140.08 72.332 139.744 71.692 139.264 71.148C138.784 70.572 138.176 70.172 137.44 69.948C136.736 69.692 136.016 69.564 135.28 69.564H132.16V80.892ZM151.6 85.5V80.892H157.648V54.828H152.272V50.22H163.024V80.892H168.4V85.5H151.6ZM184 85.884C183.136 85.884 182.256 85.804 181.36 85.644C180.496 85.484 179.68 85.196 178.912 84.78C178.144 84.364 177.456 83.836 176.848 83.196C176.272 82.524 175.792 81.804 175.408 81.036C175.056 80.236 174.8 79.404 174.64 78.54C174.512 77.644 174.448 76.764 174.448 75.9V70.14C174.448 69.276 174.512 68.412 174.64 67.548C174.8 66.652 175.056 65.82 175.408 65.052C175.792 64.252 176.272 63.532 176.848 62.892C177.456 62.22 178.144 61.676 178.912 61.26C179.68 60.844 180.496 60.556 181.36 60.396C182.256 60.236 183.136 60.156 184 60.156C184.864 60.156 185.728 60.236 186.592 60.396C187.488 60.556 188.32 60.844 189.088 61.26C189.856 61.676 190.528 62.22 191.104 62.892C191.712 63.532 192.192 64.252 192.544 65.052C192.928 65.82 193.184 66.652 193.312 67.548C193.472 68.412 193.552 69.276 193.552 70.14V75.9C193.552 76.764 193.472 77.644 193.312 78.54C193.184 79.404 192.928 80.236 192.544 81.036C192.192 81.804 191.712 82.524 191.104 83.196C190.528 83.836 189.856 84.364 189.088 84.78C188.32 85.196 187.488 85.484 186.592 85.644C185.728 85.804 184.864 85.884 184 85.884ZM184 81.276C184.64 81.276 185.248 81.132 185.824 80.844C186.432 80.556 186.912 80.14 187.264 79.596C187.648 79.052 187.904 78.46 188.032 77.82C188.16 77.18 188.224 76.54 188.224 75.9V70.14C188.224 69.5 188.16 68.86 188.032 68.22C187.904 67.58 187.648 66.988 187.264 66.444C186.912 65.9 186.432 65.484 185.824 65.196C185.248 64.908 184.64 64.764 184 64.764C183.36 64.764 182.736 64.908 182.128 65.196C181.552 65.484 181.072 65.9 180.688 66.444C180.336 66.988 180.096 67.58 179.968 68.22C179.84 68.86 179.776 69.5 179.776 70.14V75.9C179.776 76.54 179.84 77.18 179.968 77.82C180.096 78.46 180.336 79.052 180.688 79.596C181.072 80.14 181.552 80.556 182.128 80.844C182.736 81.132 183.36 81.276 184 81.276ZM207.904 96.204C207.168 96.204 206.432 96.156 205.696 96.06C204.992 95.964 204.288 95.788 203.584 95.532C202.912 95.276 202.272 94.94 201.664 94.524C201.056 94.108 200.528 93.596 200.08 92.988C199.664 92.412 199.328 91.756 199.072 91.02C198.848 90.316 198.736 89.612 198.736 88.908H204.064C204.096 89.324 204.224 89.724 204.448 90.108C204.704 90.492 205.008 90.796 205.36 91.02C205.744 91.244 206.144 91.388 206.56 91.452C207.008 91.548 207.456 91.596 207.904 91.596C208.544 91.596 209.136 91.436 209.68 91.116C210.256 90.796 210.704 90.364 211.024 89.82C211.344 89.308 211.552 88.732 211.648 88.092C211.776 87.484 211.84 86.86 211.84 86.22V81.132C211.584 81.804 211.264 82.444 210.88 83.052C210.496 83.628 210.032 84.14 209.488 84.588C208.944 85.036 208.32 85.356 207.616 85.548C206.912 85.772 206.208 85.884 205.504 85.884C204.736 85.884 203.984 85.756 203.248 85.5C202.512 85.276 201.856 84.908 201.28 84.396C200.704 83.852 200.224 83.244 199.84 82.572C199.488 81.9 199.2 81.196 198.976 80.46C198.784 79.724 198.64 78.972 198.544 78.204C198.48 77.436 198.448 76.668 198.448 75.9V70.14C198.448 69.372 198.48 68.604 198.544 67.836C198.64 67.068 198.784 66.316 198.976 65.58C199.2 64.844 199.488 64.14 199.84 63.468C200.224 62.796 200.704 62.204 201.28 61.692C201.856 61.148 202.512 60.764 203.248 60.54C203.984 60.284 204.736 60.156 205.504 60.156C206.208 60.156 206.912 60.268 207.616 60.492C208.32 60.684 208.944 61.004 209.488 61.452C210.032 61.9 210.496 62.428 210.88 63.036C211.264 63.612 211.584 64.236 211.84 64.908V60.54H217.168V86.22C217.168 87.084 217.104 87.932 216.976 88.764C216.848 89.628 216.608 90.46 216.256 91.26C215.904 92.06 215.44 92.78 214.864 93.42C214.288 94.092 213.616 94.636 212.848 95.052C212.112 95.468 211.312 95.756 210.448 95.916C209.616 96.108 208.768 96.204 207.904 96.204ZM207.808 81.276C208.448 81.276 209.056 81.132 209.632 80.844C210.208 80.524 210.656 80.092 210.976 79.548C211.296 79.004 211.52 78.428 211.648 77.82C211.776 77.18 211.84 76.54 211.84 75.9V70.14C211.84 69.5 211.776 68.876 211.648 68.268C211.52 67.628 211.296 67.036 210.976 66.492C210.656 65.948 210.208 65.532 209.632 65.244C209.056 64.924 208.448 64.764 207.808 64.764C207.168 64.764 206.56 64.924 205.984 65.244C205.408 65.532 204.96 65.948 204.64 66.492C204.32 67.036 204.096 67.628 203.968 68.268C203.84 68.876 203.776 69.5 203.776 70.14V75.9C203.776 76.54 203.84 77.18 203.968 77.82C204.096 78.428 204.32 79.004 204.64 79.548C204.96 80.092 205.408 80.524 205.984 80.844C206.56 81.132 207.168 81.276 207.808 81.276ZM269.632 47.868L274.144 45.564C274.816 46.492 275.472 47.516 276.112 48.636C276.784 49.724 277.376 50.796 277.888 51.852C278.432 52.908 278.832 53.868 279.088 54.732L274.288 57.324C274.032 56.492 273.648 55.532 273.136 54.444C272.656 53.356 272.112 52.236 271.504 51.084C270.896 49.932 270.272 48.86 269.632 47.868ZM283.072 47.676L288.832 48.588C287.872 53.932 286.592 58.972 284.992 63.708C283.392 68.444 281.152 72.748 278.272 76.62C279.968 78.38 281.856 79.964 283.936 81.372C286.048 82.78 288.4 83.964 290.992 84.924C290.32 85.468 289.584 86.236 288.784 87.228C287.984 88.252 287.36 89.148 286.912 89.916C284.32 88.828 281.968 87.564 279.856 86.124C277.776 84.684 275.888 83.068 274.192 81.276C272.432 82.972 270.432 84.54 268.192 85.98C265.984 87.452 263.504 88.748 260.752 89.868C260.368 89.228 259.824 88.46 259.12 87.564C258.416 86.668 257.792 85.948 257.248 85.404C260.064 84.348 262.576 83.116 264.784 81.708C266.992 80.268 268.96 78.668 270.688 76.908C268.224 73.292 266.224 69.148 264.688 64.476C263.184 59.804 261.952 54.668 260.992 49.068L266.464 48.3C267.2 52.94 268.224 57.26 269.536 61.26C270.848 65.26 272.576 68.86 274.72 72.06C277.024 68.636 278.816 64.86 280.096 60.732C281.376 56.604 282.368 52.252 283.072 47.676ZM255.616 44.892L261.04 46.62C259.792 49.948 258.256 53.26 256.432 56.556V89.724H250.96V65.1C250.448 65.804 249.92 66.476 249.376 67.116C248.832 67.756 248.288 68.364 247.744 68.94C247.584 68.46 247.312 67.836 246.928 67.068C246.576 66.3 246.192 65.532 245.776 64.764C245.36 63.996 244.992 63.388 244.672 62.94C246.112 61.5 247.504 59.82 248.848 57.9C250.224 55.948 251.488 53.868 252.64 51.66C253.824 49.42 254.816 47.164 255.616 44.892ZM303.28 89.772C303.184 89.292 302.992 88.732 302.704 88.092C302.448 87.452 302.16 86.812 301.84 86.172C301.52 85.564 301.2 85.068 300.88 84.684C301.424 84.396 301.968 83.948 302.512 83.34C303.056 82.732 303.328 81.9 303.328 80.844V77.34C301.12 78.524 298.928 79.516 296.752 80.316C296.336 79.644 295.76 78.844 295.024 77.916C294.288 76.988 293.616 76.236 293.008 75.66C295.696 74.828 298.4 73.724 301.12 72.348C303.84 70.94 306.24 69.404 308.32 67.74H294.688V62.844H312.976V60.156H299.152V55.596H312.976V53.052H296.752V48.204H312.976V44.7H318.784V48.204H335.584V53.052H318.784V55.596H333.712V60.156H318.784V62.844H337.216V67.74H320.992C321.952 70.108 323.2 72.284 324.736 74.268C326.016 73.404 327.296 72.476 328.576 71.484C329.856 70.492 330.944 69.548 331.84 68.652L336.64 72.204C335.264 73.196 333.824 74.188 332.32 75.18C330.848 76.14 329.408 77.02 328 77.82C329.472 79.1 331.12 80.236 332.944 81.228C334.768 82.22 336.752 83.02 338.896 83.628C338.288 84.236 337.616 85.036 336.88 86.028C336.144 87.02 335.552 87.9 335.104 88.668C330.112 86.972 326.048 84.396 322.912 80.94C319.808 77.484 317.344 73.26 315.52 68.268C313.664 70.188 311.6 71.964 309.328 73.596V81.756L319.696 78.924C319.76 79.724 319.888 80.636 320.08 81.66C320.304 82.652 320.496 83.452 320.656 84.06C317.232 85.084 314.448 85.916 312.304 86.556C310.192 87.228 308.544 87.756 307.36 88.14C306.176 88.524 305.28 88.828 304.672 89.052C304.096 89.308 303.632 89.548 303.28 89.772ZM342.016 83.532H347.2V73.116C346.944 72.732 346.56 72.284 346.048 71.772C345.536 71.26 345.008 70.764 344.464 70.284C343.92 69.804 343.44 69.436 343.024 69.18C344.368 68.348 345.44 67.452 346.24 66.492C347.072 65.5 347.696 64.492 348.112 63.468H342.256V58.524H349.216L349.264 56.508V48.204H359.968C360.224 47.564 360.48 46.892 360.736 46.188C360.992 45.484 361.184 44.86 361.312 44.316L367.648 45.372L366.256 48.204H380.128V58.524H386.128V63.468H380.128V66.588C380.128 67.804 379.968 68.764 379.648 69.468C379.36 70.172 378.768 70.716 377.872 71.1C376.976 71.484 375.92 71.724 374.704 71.82C373.488 71.884 372.032 71.916 370.336 71.916C370.24 71.276 370.032 70.524 369.712 69.66C369.424 68.796 369.104 68.044 368.752 67.404L366.112 70.86C365.536 70.412 364.784 69.916 363.856 69.372C362.96 68.828 361.984 68.3 360.928 67.788C359.904 67.276 358.928 66.844 358 66.492L360.448 63.468H354.112C353.696 65.164 352.992 66.828 352 68.46C351.04 70.06 349.696 71.468 347.968 72.684H381.088V83.532H385.984V88.476H342.016V83.532ZM358.672 55.932L361.216 52.716H354.928V56.652L354.88 58.524H364.144C363.312 58.044 362.4 57.58 361.408 57.132C360.448 56.652 359.536 56.252 358.672 55.932ZM374.368 52.716H361.6C362.944 53.132 364.352 53.708 365.824 54.444C367.296 55.148 368.48 55.836 369.376 56.508L367.84 58.524H374.368V52.716ZM374.368 63.468H361.6C362.88 63.98 364.208 64.572 365.584 65.244C366.992 65.916 368.112 66.556 368.944 67.164L373.504 67.212C374.08 67.18 374.368 66.94 374.368 66.492V63.468ZM352.528 83.532H356.656V77.1H352.528V83.532ZM361.888 83.532H366.016V77.1H361.888V83.532ZM371.296 83.532H375.472V77.1H371.296V83.532Z" fill="white"/>
<path d="M841.09 69.9167H811.667V65.0833H841.09L827.556 51.55L831 48.1667L850.333 67.5L831 86.8333L827.556 83.45L841.09 69.9167Z" fill="white"/>
<g opacity="0.8">
<mask id="mask0_93_67" style="mask-type:alpha" maskUnits="userSpaceOnUse" x="40" y="35" width="64" height="64">
<rect x="40" y="35" width="64" height="64" fill="#D9D9D9"/>
</mask>
<g mask="url(#mask0_93_67)">
<path d="M77.3333 59C76.5778 59 75.9444 58.7444 75.4333 58.2333C74.9222 57.7222 74.6667 57.0889 74.6667 56.3333V45.6666C74.6667 44.9111 74.9222 44.2777 75.4333 43.7666C75.9444 43.2555 76.5778 43 77.3333 43H93.3333C94.0889 43 94.7222 43.2555 95.2333 43.7666C95.7444 44.2777 96 44.9111 96 45.6666V56.3333C96 57.0889 95.7444 57.7222 95.2333 58.2333C94.7222 58.7444 94.0889 59 93.3333 59H77.3333ZM50.6667 69.6666C49.9111 69.6666 49.2778 69.4111 48.7667 68.9C48.2556 68.3889 48 67.7555 48 67V45.6666C48 44.9111 48.2556 44.2777 48.7667 43.7666C49.2778 43.2555 49.9111 43 50.6667 43H66.6667C67.4222 43 68.0556 43.2555 68.5667 43.7666C69.0778 44.2777 69.3333 44.9111 69.3333 45.6666V67C69.3333 67.7555 69.0778 68.3889 68.5667 68.9C68.0556 69.4111 67.4222 69.6666 66.6667 69.6666H50.6667ZM77.3333 91C76.5778 91 75.9444 90.7444 75.4333 90.2333C74.9222 89.7222 74.6667 89.0889 74.6667 88.3333V67C74.6667 66.2444 74.9222 65.6111 75.4333 65.1C75.9444 64.5889 76.5778 64.3333 77.3333 64.3333H93.3333C94.0889 64.3333 94.7222 64.5889 95.2333 65.1C95.7444 65.6111 96 66.2444 96 67V88.3333C96 89.0889 95.7444 89.7222 95.2333 90.2333C94.7222 90.7444 94.0889 91 93.3333 91H77.3333ZM50.6667 91C49.9111 91 49.2778 90.7444 48.7667 90.2333C48.2556 89.7222 48 89.0889 48 88.3333V77.6666C48 76.9111 48.2556 76.2777 48.7667 75.7666C49.2778 75.2555 49.9111 75 50.6667 75H66.6667C67.4222 75 68.0556 75.2555 68.5667 75.7666C69.0778 76.2777 69.3333 76.9111 69.3333 77.6666V88.3333C69.3333 89.0889 69.0778 89.7222 68.5667 90.2333C68.0556 90.7444 67.4222 91 66.6667 91H50.6667Z" fill="white"/>
</g>
</g>
<defs>
<radialGradient id="paint0_radial_93_67" cx="0" cy="0" r="1" gradientUnits="userSpaceOnUse" gradientTransform="translate(450 19.6875) rotate(90) scale(137.009 913.393)">
<stop/>
<stop offset="1" stop-color="#124C64"/>
</radialGradient>
</defs>
</svg>
