<svg width="800" height="336" viewBox="0 0 800 336" fill="none" xmlns="http://www.w3.org/2000/svg">
<g clip-path="url(#clip0_3_60)">
<rect width="800" height="336" fill="url(#paint0_radial_3_60)"/>
<path opacity="0.8" d="M48.208 219.32V201.8H50.368V204.32H50.8L50.368 204.824C50.368 203.816 50.696 203.024 51.352 202.448C52.024 201.856 52.904 201.56 53.992 201.56C55.32 201.56 56.376 202 57.16 202.88C57.96 203.744 58.36 204.936 58.36 206.456V210.32C58.36 211.328 58.176 212.2 57.808 212.936C57.456 213.672 56.952 214.24 56.296 214.64C55.656 215.04 54.888 215.24 53.992 215.24C52.92 215.24 52.048 214.944 51.376 214.352C50.704 213.76 50.368 212.968 50.368 211.976L50.8 212.48H50.32L50.368 215.48V219.32H48.208ZM53.272 213.368C54.184 213.368 54.896 213.096 55.408 212.552C55.936 212.008 56.2 211.224 56.2 210.2V206.6C56.2 205.576 55.936 204.792 55.408 204.248C54.896 203.704 54.184 203.432 53.272 203.432C52.392 203.432 51.688 203.712 51.16 204.272C50.632 204.832 50.368 205.608 50.368 206.6V210.2C50.368 211.192 50.632 211.968 51.16 212.528C51.688 213.088 52.392 213.368 53.272 213.368ZM67.5906 215.192C66.5346 215.192 65.6226 214.992 64.8546 214.592C64.0866 214.192 63.4866 213.616 63.0546 212.864C62.6386 212.096 62.4306 211.192 62.4306 210.152V206.648C62.4306 205.592 62.6386 204.688 63.0546 203.936C63.4866 203.184 64.0866 202.608 64.8546 202.208C65.6226 201.808 66.5346 201.608 67.5906 201.608C68.6466 201.608 69.5586 201.808 70.3266 202.208C71.0946 202.608 71.6866 203.184 72.1026 203.936C72.5346 204.688 72.7506 205.584 72.7506 206.624V210.152C72.7506 211.192 72.5346 212.096 72.1026 212.864C71.6866 213.616 71.0946 214.192 70.3266 214.592C69.5586 214.992 68.6466 215.192 67.5906 215.192ZM67.5906 213.272C68.5346 213.272 69.2706 213.008 69.7986 212.48C70.3266 211.952 70.5906 211.176 70.5906 210.152V206.648C70.5906 205.624 70.3266 204.848 69.7986 204.32C69.2706 203.792 68.5346 203.528 67.5906 203.528C66.6626 203.528 65.9266 203.792 65.3826 204.32C64.8546 204.848 64.5906 205.624 64.5906 206.648V210.152C64.5906 211.176 64.8546 211.952 65.3826 212.48C65.9266 213.008 66.6626 213.272 67.5906 213.272ZM77.4453 215V201.8H79.5573V204.32H80.0613L79.3653 205.88C79.3653 204.456 79.6693 203.384 80.2773 202.664C80.9013 201.928 81.8213 201.56 83.0373 201.56C84.4293 201.56 85.5333 202 86.3493 202.88C87.1813 203.744 87.5973 204.92 87.5973 206.408V207.2H85.4373V206.6C85.4373 205.56 85.1813 204.768 84.6693 204.224C84.1733 203.664 83.4613 203.384 82.5333 203.384C81.6213 203.384 80.9013 203.664 80.3733 204.224C79.8613 204.784 79.6053 205.576 79.6053 206.6V215H77.4453ZM97.8119 215C96.6759 215 95.7879 214.696 95.1479 214.088C94.5239 213.48 94.2119 212.624 94.2119 211.52V203.768H90.4919V201.8H94.2119V198.08H96.3719V201.8H101.652V203.768H96.3719V211.52C96.3719 212.528 96.8519 213.032 97.8119 213.032H101.412V215H97.8119ZM109.611 215.24C108.219 215.24 107.123 214.888 106.323 214.184C105.523 213.464 105.123 212.496 105.123 211.28C105.123 210.048 105.523 209.08 106.323 208.376C107.123 207.672 108.203 207.32 109.562 207.32H113.643V206C113.643 205.184 113.395 204.56 112.899 204.128C112.419 203.68 111.731 203.456 110.835 203.456C110.051 203.456 109.395 203.624 108.867 203.96C108.339 204.28 108.035 204.72 107.955 205.28H105.795C105.939 204.144 106.475 203.24 107.403 202.568C108.331 201.896 109.491 201.56 110.883 201.56C112.403 201.56 113.603 201.952 114.483 202.736C115.363 203.52 115.803 204.584 115.803 205.928V215H113.691V212.48H113.331L113.691 212.12C113.691 213.08 113.315 213.84 112.563 214.4C111.827 214.96 110.843 215.24 109.611 215.24ZM110.139 213.536C111.163 213.536 112.003 213.28 112.659 212.768C113.315 212.256 113.643 211.6 113.643 210.8V208.928H109.611C108.891 208.928 108.323 209.128 107.907 209.528C107.491 209.928 107.283 210.472 107.283 211.16C107.283 211.896 107.531 212.48 108.027 212.912C108.539 213.328 109.243 213.536 110.139 213.536ZM126.953 215C126.185 215 125.513 214.848 124.937 214.544C124.361 214.24 123.913 213.808 123.593 213.248C123.273 212.688 123.113 212.032 123.113 211.28V199.448H118.673V197.48H125.273V211.28C125.273 211.824 125.425 212.256 125.729 212.576C126.033 212.88 126.441 213.032 126.953 213.032H131.153V215H126.953Z" fill="white"/>
<path d="M59.2 228.32L68.32 231.2C67.2533 233.973 66.0533 236.8 64.72 239.68C63.44 242.507 62.0267 245.28 60.48 248V303.04H51.12V262.48C50.2667 263.547 49.4133 264.587 48.56 265.6C47.76 266.56 46.9333 267.493 46.08 268.4C45.8133 267.6 45.36 266.56 44.72 265.28C44.1333 264 43.4933 262.72 42.8 261.44C42.1067 260.16 41.4933 259.147 40.96 258.4C43.4133 256 45.76 253.2 48 250C50.2933 246.747 52.4 243.28 54.32 239.6C56.24 235.867 57.8667 232.107 59.2 228.32ZM75.92 286.8L82.56 280.96C83.68 281.547 84.8 282.187 85.92 282.88C87.0933 283.573 88.2667 284.267 89.44 284.96C90.9333 283.467 92.4 281.973 93.84 280.48C95.28 278.987 96.6667 277.52 98 276.08H70.96C71.7067 273.893 72.48 271.467 73.28 268.8C74.1333 266.08 74.9867 263.253 75.84 260.32H63.44V251.44H78.32L80 245.28H68.08V236.48H82.16L83.92 228.88L93.52 230.08L91.92 236.48H112.96V245.28H89.76L88.08 251.44H117.12V260.32H85.76L83.84 267.12H106.72L108.16 266.64L114.88 270.88C112.32 273.76 109.493 276.88 106.4 280.24C103.307 283.547 100.187 286.8 97.04 290C98.5867 291.12 100.027 292.213 101.36 293.28C102.693 294.293 103.867 295.253 104.88 296.16L98.08 303.36C96.5333 301.813 94.5333 300.053 92.08 298.08C89.6267 296.107 86.9867 294.133 84.16 292.16C81.3333 290.187 78.5867 288.4 75.92 286.8ZM125.44 232.96L133.12 228.48C134.4 230.027 135.733 231.707 137.12 233.52C138.507 235.333 139.813 237.147 141.04 238.96C142.267 240.72 143.227 242.293 143.92 243.68L135.68 248.72C135.04 247.28 134.133 245.653 132.96 243.84C131.84 242.027 130.613 240.16 129.28 238.24C127.947 236.32 126.667 234.56 125.44 232.96ZM152.64 231.36L160.64 228.16C161.813 229.973 163.067 231.973 164.4 234.16C165.733 236.347 166.747 238.213 167.44 239.76L163.04 241.68H175.04C176.267 239.6 177.467 237.333 178.64 234.88C179.867 232.373 180.853 230.08 181.6 228L191.28 230.88C190.267 232.693 189.173 234.533 188 236.4C186.827 238.267 185.707 240.027 184.64 241.68H193.36V250.4H174.96V259.12H196.08V267.84H176.4C178.533 269.653 180.667 271.52 182.8 273.44C184.987 275.307 187.04 277.093 188.96 278.8C190.88 280.507 192.48 282.053 193.76 283.44L187.04 290.16C185.333 288.133 183.013 285.76 180.08 283.04C177.2 280.267 174.267 277.493 171.28 274.72C169.627 277.76 167.253 280.693 164.16 283.52C161.067 286.293 156.96 288.853 151.84 291.2C151.147 290.133 150.133 288.88 148.8 287.44C147.52 286 146.32 284.853 145.2 284C149.2 282.507 152.453 280.88 154.96 279.12C157.467 277.36 159.413 275.52 160.8 273.6C162.24 271.68 163.253 269.76 163.84 267.84H145.44V259.12H165.04V250.4H148.24V241.68H158.08C157.387 240.133 156.533 238.427 155.52 236.56C154.507 234.64 153.547 232.907 152.64 231.36ZM141.44 254.56V286.72C142.027 287.093 142.64 287.52 143.28 288C143.973 288.427 144.72 288.853 145.52 289.28C148.293 290.88 151.547 291.893 155.28 292.32C159.067 292.747 163.28 292.96 167.92 292.96C170.853 292.96 174.16 292.88 177.84 292.72C181.52 292.56 185.2 292.32 188.88 292C192.56 291.68 195.787 291.307 198.56 290.88C198.187 291.787 197.76 292.907 197.28 294.24C196.853 295.52 196.453 296.8 196.08 298.08C195.76 299.36 195.573 300.48 195.52 301.44C194.08 301.547 192.213 301.653 189.92 301.76C187.68 301.867 185.227 301.973 182.56 302.08C179.893 302.187 177.253 302.267 174.64 302.32C172.027 302.373 169.653 302.4 167.52 302.4C162.24 302.4 157.76 302.107 154.08 301.52C150.4 300.933 147.067 299.813 144.08 298.16C142.213 297.093 140.56 296.053 139.12 295.04C137.733 293.973 136.587 293.44 135.68 293.44C134.933 293.44 134.053 293.973 133.04 295.04C132.08 296.053 131.093 297.36 130.08 298.96C129.067 300.56 128.08 302.16 127.12 303.76L120.32 294.24C122.347 292.053 124.373 290.16 126.4 288.56C128.48 286.96 130.427 285.813 132.24 285.12V263.44H123.28V254.56H141.44ZM208.8 232.4L216.16 227.52C217.547 229.013 218.987 230.667 220.48 232.48C222.027 234.293 223.467 236.08 224.8 237.84C226.187 239.547 227.28 241.093 228.08 242.48L220.24 248.16C219.493 246.72 218.48 245.093 217.2 243.28C215.92 241.467 214.533 239.6 213.04 237.68C211.6 235.76 210.187 234 208.8 232.4ZM206.4 245.76H216.24V303.04H206.4V245.76ZM229.2 230.64H273.92V292.32C273.92 294.933 273.573 296.933 272.88 298.32C272.24 299.707 271.067 300.773 269.36 301.52C267.707 302.267 265.573 302.72 262.96 302.88C260.4 303.093 257.253 303.173 253.52 303.12C253.307 301.84 252.88 300.293 252.24 298.48C251.6 296.72 250.933 295.253 250.24 294.08C251.84 294.133 253.44 294.187 255.04 294.24C256.64 294.293 258.08 294.32 259.36 294.32C260.64 294.267 261.547 294.24 262.08 294.24C262.827 294.24 263.36 294.107 263.68 293.84C264 293.52 264.16 292.96 264.16 292.16V239.84H229.2V230.64Z" fill="white"/>
<path d="M534 294C526.3 294 519.708 291.258 514.225 285.775C508.742 280.292 506 273.7 506 266V70C506 62.3 508.742 55.7083 514.225 50.225C519.708 44.7417 526.3 42 534 42H632V70H534V266H730V168H758V266C758 273.7 755.258 280.292 749.775 285.775C744.292 291.258 737.7 294 730 294H534ZM599.8 219.8L580.2 200.2L710.4 70H660V42H758V140H730V89.6L599.8 219.8Z" fill="url(#paint1_radial_3_60)"/>
</g>
<defs>
<radialGradient id="paint0_radial_3_60" cx="0" cy="0" r="1" gradientUnits="userSpaceOnUse" gradientTransform="translate(400 49) rotate(90) scale(341 811.905)">
<stop/>
<stop offset="1" stop-color="#21132B"/>
</radialGradient>
<radialGradient id="paint1_radial_3_60" cx="0" cy="0" r="1" gradientUnits="userSpaceOnUse" gradientTransform="translate(709 84) rotate(134.221) scale(364.194 338.964)">
<stop stop-color="white" stop-opacity="0.5"/>
<stop offset="0.563345" stop-color="white" stop-opacity="0.07"/>
<stop offset="0.813671" stop-color="white" stop-opacity="0"/>
</radialGradient>
<clipPath id="clip0_3_60">
<rect width="800" height="336" fill="white"/>
</clipPath>
</defs>
</svg>
