<svg width="800" height="336" viewBox="0 0 800 336" fill="none" xmlns="http://www.w3.org/2000/svg">
<g clip-path="url(#clip0_1_36)">
<rect width="800" height="336" fill="url(#paint0_radial_1_36)"/>
<path opacity="0.8" d="M53.296 215.24C52.24 215.24 51.312 215.04 50.512 214.64C49.728 214.24 49.12 213.664 48.688 212.912C48.256 212.144 48.04 211.24 48.04 210.2V206.6C48.04 205.544 48.256 204.64 48.688 203.888C49.12 203.136 49.728 202.56 50.512 202.16C51.312 201.76 52.24 201.56 53.296 201.56C54.816 201.56 56.04 201.968 56.968 202.784C57.896 203.6 58.384 204.712 58.432 206.12H56.272C56.224 205.272 55.936 204.624 55.408 204.176C54.896 203.712 54.192 203.48 53.296 203.48C52.352 203.48 51.6 203.752 51.04 204.296C50.48 204.824 50.2 205.584 50.2 206.576V210.2C50.2 211.192 50.48 211.96 51.04 212.504C51.6 213.048 52.352 213.32 53.296 213.32C54.192 213.32 54.896 213.088 55.408 212.624C55.936 212.16 56.224 211.512 56.272 210.68H58.432C58.384 212.088 57.896 213.2 56.968 214.016C56.04 214.832 54.816 215.24 53.296 215.24ZM63.0546 215V201.8H65.1666V204.32H65.6706L64.9746 205.88C64.9746 204.456 65.2786 203.384 65.8866 202.664C66.5106 201.928 67.4306 201.56 68.6466 201.56C70.0386 201.56 71.1426 202 71.9586 202.88C72.7906 203.744 73.2066 204.92 73.2066 206.408V207.2H71.0466V206.6C71.0466 205.56 70.7906 204.768 70.2786 204.224C69.7826 203.664 69.0706 203.384 68.1426 203.384C67.2306 203.384 66.5106 203.664 65.9826 204.224C65.4706 204.784 65.2146 205.576 65.2146 206.6V215H63.0546ZM81.9813 215.24C80.9413 215.24 80.0293 215.032 79.2453 214.616C78.4773 214.2 77.8773 213.616 77.4453 212.864C77.0293 212.096 76.8213 211.208 76.8213 210.2V206.6C76.8213 205.576 77.0293 204.688 77.4453 203.936C77.8773 203.184 78.4773 202.6 79.2453 202.184C80.0293 201.768 80.9413 201.56 81.9813 201.56C83.0213 201.56 83.9253 201.768 84.6933 202.184C85.4773 202.6 86.0773 203.184 86.4933 203.936C86.9253 204.688 87.1413 205.576 87.1413 206.6V208.928H78.9333V210.2C78.9333 211.24 79.1973 212.04 79.7253 212.6C80.2533 213.144 81.0053 213.416 81.9813 213.416C82.8133 213.416 83.4853 213.272 83.9973 212.984C84.5093 212.68 84.8213 212.232 84.9333 211.64H87.0933C86.9493 212.744 86.4053 213.624 85.4613 214.28C84.5333 214.92 83.3733 215.24 81.9813 215.24ZM85.0293 207.488V206.6C85.0293 205.56 84.7653 204.76 84.2373 204.2C83.7253 203.64 82.9733 203.36 81.9813 203.36C81.0053 203.36 80.2533 203.64 79.7253 204.2C79.1973 204.76 78.9333 205.56 78.9333 206.6V207.296H85.1973L85.0293 207.488ZM95.2199 215.24C93.8279 215.24 92.7319 214.888 91.9319 214.184C91.1319 213.464 90.7319 212.496 90.7319 211.28C90.7319 210.048 91.1319 209.08 91.9319 208.376C92.7319 207.672 93.8119 207.32 95.1719 207.32H99.2519V206C99.2519 205.184 99.0039 204.56 98.5079 204.128C98.0279 203.68 97.3399 203.456 96.4439 203.456C95.6599 203.456 95.0039 203.624 94.4759 203.96C93.9479 204.28 93.6439 204.72 93.5639 205.28H91.4039C91.5479 204.144 92.0839 203.24 93.0119 202.568C93.9399 201.896 95.0999 201.56 96.4919 201.56C98.0119 201.56 99.2119 201.952 100.092 202.736C100.972 203.52 101.412 204.584 101.412 205.928V215H99.2999V212.48H98.9399L99.2999 212.12C99.2999 213.08 98.9239 213.84 98.1719 214.4C97.4359 214.96 96.4519 215.24 95.2199 215.24ZM95.7479 213.536C96.7719 213.536 97.6119 213.28 98.2679 212.768C98.9239 212.256 99.2519 211.6 99.2519 210.8V208.928H95.2199C94.4999 208.928 93.9319 209.128 93.5159 209.528C93.0999 209.928 92.8919 210.472 92.8919 211.16C92.8919 211.896 93.1399 212.48 93.6359 212.912C94.1479 213.328 94.8519 213.536 95.7479 213.536ZM112.203 215C111.067 215 110.179 214.696 109.539 214.088C108.915 213.48 108.603 212.624 108.603 211.52V203.768H104.883V201.8H108.603V198.08H110.763V201.8H116.043V203.768H110.763V211.52C110.763 212.528 111.243 213.032 112.203 213.032H115.803V215H112.203ZM119.993 215V213.032H124.673V203.768H120.593V201.8H126.833V213.032H131.273V215H119.993ZM125.513 199.424C124.985 199.424 124.569 199.288 124.265 199.016C123.961 198.744 123.809 198.376 123.809 197.912C123.809 197.432 123.961 197.056 124.265 196.784C124.569 196.496 124.985 196.352 125.513 196.352C126.041 196.352 126.457 196.496 126.761 196.784C127.065 197.056 127.217 197.432 127.217 197.912C127.217 198.376 127.065 198.744 126.761 199.016C126.457 199.288 126.041 199.424 125.513 199.424ZM139.544 215.192C138.488 215.192 137.576 214.992 136.808 214.592C136.04 214.192 135.44 213.616 135.008 212.864C134.592 212.096 134.384 211.192 134.384 210.152V206.648C134.384 205.592 134.592 204.688 135.008 203.936C135.44 203.184 136.04 202.608 136.808 202.208C137.576 201.808 138.488 201.608 139.544 201.608C140.6 201.608 141.512 201.808 142.28 202.208C143.048 202.608 143.64 203.184 144.056 203.936C144.488 204.688 144.704 205.584 144.704 206.624V210.152C144.704 211.192 144.488 212.096 144.056 212.864C143.64 213.616 143.048 214.192 142.28 214.592C141.512 214.992 140.6 215.192 139.544 215.192ZM139.544 213.272C140.488 213.272 141.224 213.008 141.752 212.48C142.28 211.952 142.544 211.176 142.544 210.152V206.648C142.544 205.624 142.28 204.848 141.752 204.32C141.224 203.792 140.488 203.528 139.544 203.528C138.616 203.528 137.88 203.792 137.336 204.32C136.808 204.848 136.544 205.624 136.544 206.648V210.152C136.544 211.176 136.808 211.952 137.336 212.48C137.88 213.008 138.616 213.272 139.544 213.272ZM148.942 215V201.8H151.102V204.32H151.558L151.102 204.824C151.102 203.784 151.414 202.984 152.038 202.424C152.662 201.848 153.526 201.56 154.63 201.56C155.958 201.56 157.014 201.968 157.798 202.784C158.582 203.6 158.974 204.712 158.974 206.12V215H156.814V206.36C156.814 205.416 156.558 204.696 156.046 204.2C155.55 203.688 154.87 203.432 154.006 203.432C153.11 203.432 152.398 203.704 151.87 204.248C151.358 204.792 151.102 205.576 151.102 206.6V215H148.942Z" fill="white"/>
<path d="M81.28 228.8L90.48 231.2C89.9467 232.853 89.3333 234.507 88.64 236.16C88 237.813 87.3067 239.467 86.56 241.12H117.76V250.24H94.96V258.64H115.76V267.36H94.96V276.4H116.8V285.36H94.96V303.12H85.04V250.24H82.08C80.4267 253.227 78.72 256.053 76.96 258.72C75.2 261.387 73.3867 263.76 71.52 265.84C71.04 265.253 70.3467 264.533 69.44 263.68C68.5333 262.827 67.6 261.973 66.64 261.12C65.68 260.267 64.8533 259.6 64.16 259.12C66.56 256.72 68.8267 253.893 70.96 250.64C73.0933 247.387 75.04 243.893 76.8 240.16C78.56 236.427 80.0533 232.64 81.28 228.8ZM60.08 228.32L69.36 231.28C68.3467 234.053 67.1733 236.853 65.84 239.68C64.56 242.507 63.1733 245.28 61.68 248V303.04H52V262.88C51.2 263.893 50.3733 264.88 49.52 265.84C48.72 266.8 47.8933 267.733 47.04 268.64C46.7733 267.84 46.32 266.8 45.68 265.52C45.04 264.187 44.3733 262.88 43.68 261.6C42.9867 260.267 42.3467 259.2 41.76 258.4C44.2133 256 46.56 253.2 48.8 250C51.0933 246.747 53.2 243.28 55.12 239.6C57.0933 235.867 58.7467 232.107 60.08 228.32ZM145.92 240.4V251.12H174.08V240.4H145.92ZM136.64 231.2H183.84V260.24H136.64V231.2ZM125.6 266.96H156.24V302.72H146.64V299.12H134.72V303.2H125.6V266.96ZM134.72 289.92H146.64V276.16H134.72V289.92ZM162.96 266.96H194.64V302.8H185.04V299.12H172.16V303.2H162.96V266.96ZM172.16 289.92H185.04V276.16H172.16V289.92Z" fill="white"/>
<path d="M534 266H553.95L690.8 129.15L670.85 109.2L534 246.05V266ZM506 294V234.5L690.8 50.05C693.6 47.4833 696.692 45.5 700.075 44.1C703.458 42.7 707.017 42 710.75 42C714.483 42 718.1 42.7 721.6 44.1C725.1 45.5 728.133 47.6 730.7 50.4L749.95 70C752.75 72.5667 754.792 75.6 756.075 79.1C757.358 82.6 758 86.1 758 89.6C758 93.3333 757.358 96.8917 756.075 100.275C754.792 103.658 752.75 106.75 749.95 109.55L565.5 294H506ZM680.65 119.35L670.85 109.2L690.8 129.15L680.65 119.35Z" fill="url(#paint1_radial_1_36)"/>
</g>
<defs>
<radialGradient id="paint0_radial_1_36" cx="0" cy="0" r="1" gradientUnits="userSpaceOnUse" gradientTransform="translate(400 49) rotate(90) scale(341 811.905)">
<stop/>
<stop offset="1" stop-color="#13152B"/>
</radialGradient>
<radialGradient id="paint1_radial_1_36" cx="0" cy="0" r="1" gradientUnits="userSpaceOnUse" gradientTransform="translate(709 84) rotate(134.221) scale(364.194 338.964)">
<stop stop-color="white" stop-opacity="0.5"/>
<stop offset="0.563345" stop-color="white" stop-opacity="0.07"/>
<stop offset="0.813671" stop-color="white" stop-opacity="0"/>
</radialGradient>
<clipPath id="clip0_1_36">
<rect width="800" height="336" fill="white"/>
</clipPath>
</defs>
</svg>
