<svg width="800" height="336" viewBox="0 0 800 336" fill="none" xmlns="http://www.w3.org/2000/svg">
<g clip-path="url(#clip0_1_35)">
<rect width="800" height="336" fill="url(#paint0_radial_1_35)"/>
<path opacity="0.8" d="M52.048 215.24C50.656 215.24 49.56 214.888 48.76 214.184C47.96 213.464 47.56 212.496 47.56 211.28C47.56 210.048 47.96 209.08 48.76 208.376C49.56 207.672 50.64 207.32 52 207.32H56.08V206C56.08 205.184 55.832 204.56 55.336 204.128C54.856 203.68 54.168 203.456 53.272 203.456C52.488 203.456 51.832 203.624 51.304 203.96C50.776 204.28 50.472 204.72 50.392 205.28H48.232C48.376 204.144 48.912 203.24 49.84 202.568C50.768 201.896 51.928 201.56 53.32 201.56C54.84 201.56 56.04 201.952 56.92 202.736C57.8 203.52 58.24 204.584 58.24 205.928V215H56.128V212.48H55.768L56.128 212.12C56.128 213.08 55.752 213.84 55 214.4C54.264 214.96 53.28 215.24 52.048 215.24ZM52.576 213.536C53.6 213.536 54.44 213.28 55.096 212.768C55.752 212.256 56.08 211.6 56.08 210.8V208.928H52.048C51.328 208.928 50.76 209.128 50.344 209.528C49.928 209.928 49.72 210.472 49.72 211.16C49.72 211.896 49.968 212.48 50.464 212.912C50.976 213.328 51.68 213.536 52.576 213.536ZM68.3586 215.24C67.2706 215.24 66.3986 214.952 65.7426 214.376C65.0866 213.784 64.7586 212.984 64.7586 211.976L65.1906 212.48H64.7586V215H62.5986V197.48H64.7586V201.32L64.7106 204.32H65.1906L64.7586 204.824C64.7586 203.832 65.0866 203.04 65.7426 202.448C66.4146 201.856 67.2866 201.56 68.3586 201.56C69.6866 201.56 70.7506 202 71.5506 202.88C72.3506 203.76 72.7506 204.96 72.7506 206.48V210.344C72.7506 211.848 72.3506 213.04 71.5506 213.92C70.7506 214.8 69.6866 215.24 68.3586 215.24ZM67.6386 213.368C68.5506 213.368 69.2706 213.096 69.7986 212.552C70.3266 212.008 70.5906 211.224 70.5906 210.2V206.6C70.5906 205.576 70.3266 204.792 69.7986 204.248C69.2706 203.704 68.5506 203.432 67.6386 203.432C66.7586 203.432 66.0546 203.712 65.5266 204.272C65.0146 204.832 64.7586 205.608 64.7586 206.6V210.2C64.7586 211.192 65.0146 211.968 65.5266 212.528C66.0546 213.088 66.7586 213.368 67.6386 213.368ZM81.9813 215.192C80.9253 215.192 80.0133 214.992 79.2453 214.592C78.4773 214.192 77.8773 213.616 77.4453 212.864C77.0293 212.096 76.8213 211.192 76.8213 210.152V206.648C76.8213 205.592 77.0293 204.688 77.4453 203.936C77.8773 203.184 78.4773 202.608 79.2453 202.208C80.0133 201.808 80.9253 201.608 81.9813 201.608C83.0373 201.608 83.9493 201.808 84.7173 202.208C85.4853 202.608 86.0773 203.184 86.4933 203.936C86.9253 204.688 87.1413 205.584 87.1413 206.624V210.152C87.1413 211.192 86.9253 212.096 86.4933 212.864C86.0773 213.616 85.4853 214.192 84.7173 214.592C83.9493 214.992 83.0373 215.192 81.9813 215.192ZM81.9813 213.272C82.9253 213.272 83.6613 213.008 84.1893 212.48C84.7173 211.952 84.9813 211.176 84.9813 210.152V206.648C84.9813 205.624 84.7173 204.848 84.1893 204.32C83.6613 203.792 82.9253 203.528 81.9813 203.528C81.0533 203.528 80.3173 203.792 79.7733 204.32C79.2453 204.848 78.9813 205.624 78.9813 206.648V210.152C78.9813 211.176 79.2453 211.952 79.7733 212.48C80.3173 213.008 81.0533 213.272 81.9813 213.272ZM96.3479 215.24C94.8279 215.24 93.6119 214.792 92.6999 213.896C91.7879 212.984 91.3319 211.752 91.3319 210.2V201.8H93.4919V210.2C93.4919 211.192 93.7479 211.968 94.2599 212.528C94.7719 213.072 95.4679 213.344 96.3479 213.344C97.2439 213.344 97.9479 213.072 98.4599 212.528C98.9879 211.968 99.2519 211.192 99.2519 210.2V201.8H101.412V210.2C101.412 211.752 100.948 212.984 100.02 213.896C99.0919 214.792 97.8679 215.24 96.3479 215.24ZM112.203 215C111.067 215 110.179 214.696 109.539 214.088C108.915 213.48 108.603 212.624 108.603 211.52V203.768H104.883V201.8H108.603V198.08H110.763V201.8H116.043V203.768H110.763V211.52C110.763 212.528 111.243 213.032 112.203 213.032H115.803V215H112.203ZM122.393 215L128.657 199.448H122.033V202.04H119.873V197.48H130.793V199.592L124.721 215H122.393ZM142.184 215V211.16H134.264V207.776L141.2 197.48H143.552L136.424 208.232V209.192H142.184V204.92H144.344V215H142.184Z" fill="white"/>
<path d="M56.32 232.32L64.4 228.24C66.1067 230.213 67.7333 232.453 69.28 234.96C70.88 237.467 72.08 239.653 72.88 241.52L68 244.24H87.2C88.7467 241.893 90.24 239.227 91.68 236.24C93.1733 233.253 94.3733 230.533 95.28 228.08L105.76 231.52C104.48 233.653 103.173 235.84 101.84 238.08C100.507 240.267 99.1733 242.32 97.84 244.24H111.28V253.76H86.32V264.16V264.72H115.44V274.24H88.4C91.4933 278.933 95.52 282.907 100.48 286.16C105.44 289.36 111.387 291.707 118.32 293.2C117.573 293.947 116.747 294.88 115.84 296C114.987 297.12 114.16 298.267 113.36 299.44C112.613 300.667 112 301.76 111.52 302.72C104.853 300.853 99.12 298.16 94.32 294.64C89.52 291.12 85.44 286.8 82.08 281.68C80.5333 284.347 78.3733 286.96 75.6 289.52C72.88 292.08 69.3867 294.507 65.12 296.8C60.8533 299.093 55.6533 301.2 49.52 303.12C49.0933 302.373 48.48 301.467 47.68 300.4C46.88 299.333 46 298.267 45.04 297.2C44.1333 296.133 43.2533 295.227 42.4 294.48C48.9067 292.613 54.2133 290.587 58.32 288.4C62.48 286.213 65.7067 283.92 68 281.52C70.3467 279.12 72.0533 276.693 73.12 274.24H44.8V264.72H75.04V263.92V253.76H50.16V244.24H63.44C62.64 242.373 61.5733 240.373 60.24 238.24C58.96 236.053 57.6533 234.08 56.32 232.32ZM129.44 233.12H190.56V242.64H165.92V259.12H196.08V268.64H165.92V290.88C165.92 293.813 165.547 296.027 164.8 297.52C164.053 299.067 162.693 300.213 160.72 300.96C158.853 301.76 156.427 302.267 153.44 302.48C150.507 302.693 147.067 302.8 143.12 302.8C142.853 301.36 142.32 299.653 141.52 297.68C140.72 295.707 139.92 294.027 139.12 292.64C141.147 292.747 143.12 292.827 145.04 292.88C146.96 292.933 148.64 292.96 150.08 292.96C151.573 292.907 152.64 292.88 153.28 292.88C154.187 292.827 154.827 292.667 155.2 292.4C155.573 292.08 155.76 291.52 155.76 290.72V268.64H124V259.12H155.76V242.64H129.44V233.12ZM256.4 235.12L263.6 230.24C265.04 231.467 266.533 232.853 268.08 234.4C269.627 235.893 271.067 237.413 272.4 238.96C273.733 240.453 274.773 241.84 275.52 243.12L267.76 248.48C267.12 247.2 266.16 245.787 264.88 244.24C263.653 242.693 262.293 241.12 260.8 239.52C259.307 237.92 257.84 236.453 256.4 235.12ZM265.2 262.48L273.6 266.16C270.027 272.56 265.6 278.453 260.32 283.84C261.387 286.933 262.533 289.36 263.76 291.12C264.987 292.827 266.213 293.68 267.44 293.68C268.24 293.68 268.88 292.64 269.36 290.56C269.84 288.48 270.187 285.067 270.4 280.32C271.467 281.44 272.72 282.507 274.16 283.52C275.653 284.533 277.04 285.307 278.32 285.84C277.84 290.533 277.12 294.133 276.16 296.64C275.253 299.2 274.027 300.96 272.48 301.92C270.933 302.933 268.933 303.44 266.48 303.44C263.547 303.44 260.933 302.293 258.64 300C256.347 297.76 254.347 294.693 252.64 290.8C250.347 292.667 247.947 294.4 245.44 296C242.933 297.653 240.373 299.173 237.76 300.56C237.067 299.387 236.107 298.08 234.88 296.64C233.707 295.2 232.507 293.947 231.28 292.88C234.427 291.44 237.52 289.76 240.56 287.84C243.653 285.867 246.587 283.733 249.36 281.44C248.507 278.293 247.733 274.88 247.04 271.2C246.347 267.52 245.76 263.733 245.28 259.84H228.8V269.04L241.36 266.8L242 275.44L228.8 278.24V291.92C228.8 294.533 228.48 296.56 227.84 298C227.253 299.44 226.16 300.533 224.56 301.28C222.96 302.027 220.96 302.507 218.56 302.72C216.16 302.987 213.307 303.12 210 303.12C209.787 301.787 209.333 300.16 208.64 298.24C208 296.373 207.333 294.773 206.64 293.44C208.88 293.547 211.04 293.6 213.12 293.6C215.2 293.6 216.587 293.573 217.28 293.52C218.507 293.52 219.12 292.96 219.12 291.84V280.24L204.8 283.04L202.48 273.36C204.773 273.04 207.333 272.667 210.16 272.24C212.987 271.76 215.973 271.253 219.12 270.72V259.84H204V250.8H219.12V241.68C216.987 242 214.827 242.293 212.64 242.56C210.453 242.827 208.347 243.093 206.32 243.36C206.107 242.187 205.733 240.827 205.2 239.28C204.667 237.68 204.133 236.347 203.6 235.28C207.333 234.8 211.12 234.213 214.96 233.52C218.853 232.827 222.56 232.053 226.08 231.2C229.653 230.347 232.8 229.467 235.52 228.56L242.08 236.72C240.053 237.307 237.92 237.893 235.68 238.48C233.44 239.013 231.147 239.52 228.8 240V250.8H244.4C244.08 247.173 243.84 243.493 243.68 239.76C243.573 236.027 243.493 232.32 243.44 228.64H253.44C253.387 232.373 253.413 236.107 253.52 239.84C253.68 243.573 253.92 247.227 254.24 250.8H276.16V259.84H255.2C255.84 264.693 256.613 269.227 257.52 273.44C259.013 271.733 260.4 269.973 261.68 268.16C263.013 266.347 264.187 264.453 265.2 262.48Z" fill="white"/>
<path d="M554.732 130.78L517.814 139.985V98.9292C517.814 96.968 517.053 95.8503 515.15 96.3247C512.866 96.8941 512.359 98.8511 512.359 100.42V141.345L475.44 150.55V48.5643L512.359 39.3596V71.2627C515.15 67.1673 519.971 63.7426 529.993 61.2437C546.232 57.1949 554.732 66.0586 554.732 80.3104V130.78ZM625.563 71.2797C623.28 70.8031 620.235 71.0393 617.063 71.83C609.198 73.7912 600.571 78.8187 600.571 82.7412V119.351L563.652 128.556V54.9435L597.018 46.6244V52.6389C600.951 46.5591 609.705 41.3692 625.563 37.4153V71.2797ZM707.135 71.6003C707.135 86.7674 695.971 97.5268 668.948 104.264C645.604 110.084 630.634 106.103 630.634 87.2746L659.179 80.1575C659.179 83.6878 661.843 84.5925 666.791 83.3589C669.202 82.7579 670.344 81.8195 670.344 80.9042C670.344 80.3812 669.836 79.7232 668.821 79.3225C666.284 78.1246 660.955 77.2304 656.642 77.2599C638.754 77.5359 631.522 72.1476 631.522 59.2032C631.522 44.0362 645.097 32.5451 669.709 26.4085C691.911 20.873 706.374 24.3276 706.374 43.1557L678.336 50.1463C678.336 47.4005 676.433 45.783 670.978 47.1431C668.694 47.7125 667.552 49.0432 667.552 50.0892C667.552 50.8737 668.314 51.4684 669.582 51.5443C673.135 51.5739 681.762 52.2995 684.553 52.3881C699.903 52.8755 707.135 59.179 707.135 71.6003ZM770.388 53.3453L767.851 79.6051C728.776 89.3476 720.149 86.53 720.149 65.6099V41.6825L710.634 44.0548V18.2969L720.149 15.9246V-6.04153L757.067 -15.2463V6.71983L769.5 3.61995V29.3778L757.067 32.4777V49.3446C757.067 54.7053 759.097 56.1605 770.388 53.3453ZM554.732 242.78L517.814 251.985V210.929C517.814 208.968 517.053 207.85 515.15 208.325C512.866 208.894 512.359 210.851 512.359 212.42V253.345L475.44 262.55V160.564L512.359 151.36V183.263C515.15 179.167 519.971 175.743 529.993 173.244C546.232 169.195 554.732 178.059 554.732 192.31V242.78ZM625.563 183.28C623.28 182.803 620.235 183.039 617.063 183.83C609.198 185.791 600.571 190.819 600.571 194.741V231.351L563.652 240.556V166.943L597.018 158.624V164.639C600.951 158.559 609.705 153.369 625.563 149.415V183.28ZM688.866 185.671L686.329 211.931C647.254 221.673 638.627 218.856 638.627 197.936V174.008L629.112 176.381V150.623L638.627 148.25V126.284L675.545 117.079V139.046L687.978 135.946V161.704L675.545 164.803V181.67C675.545 187.031 677.575 188.486 688.866 185.671ZM686.906 251.482C668.637 271.727 657.98 300.403 657.98 329.038L617.89 339.033C617.89 307.653 632.226 278.582 644.151 265.41L607.741 274.489V239.578L686.906 219.84V251.482ZM779.416 282.678L771.17 284.734V300.816L734.886 309.863V293.78L696.319 303.396V269.009L723.468 210.724L771.17 198.831V249.562L779.416 247.506V282.678ZM736.155 258.292V239.726L726.64 260.665L736.155 258.292Z" fill="url(#paint1_radial_1_35)"/>
</g>
<defs>
<radialGradient id="paint0_radial_1_35" cx="0" cy="0" r="1" gradientUnits="userSpaceOnUse" gradientTransform="translate(400 49) rotate(90) scale(341 811.905)">
<stop/>
<stop offset="1" stop-color="#131F2B"/>
</radialGradient>
<radialGradient id="paint1_radial_1_35" cx="0" cy="0" r="1" gradientUnits="userSpaceOnUse" gradientTransform="translate(720.575 18.0574) rotate(130.929) scale(427.176 313.323)">
<stop stop-color="white" stop-opacity="0.5"/>
<stop offset="0.543271" stop-color="white" stop-opacity="0.07"/>
<stop offset="0.812511" stop-color="white" stop-opacity="0"/>
</radialGradient>
<clipPath id="clip0_1_35">
<rect width="800" height="336" fill="white"/>
</clipPath>
</defs>
</svg>
