<svg width="900" height="135" viewBox="0 0 900 135" fill="none" xmlns="http://www.w3.org/2000/svg">
<rect width="900" height="135" rx="30" fill="url(#paint0_radial_25_29)"/>
<path d="M130.096 47.004H167.296V83.436C167.296 84.908 167.104 86.044 166.72 86.844C166.368 87.676 165.728 88.332 164.8 88.812C163.872 89.228 162.688 89.484 161.248 89.58C159.84 89.676 158.096 89.724 156.016 89.724C155.92 88.988 155.696 88.092 155.344 87.036C154.992 85.98 154.624 85.1 154.24 84.396C155.488 84.46 156.72 84.492 157.936 84.492C159.152 84.492 159.968 84.492 160.384 84.492C161.152 84.492 161.536 84.124 161.536 83.388V52.332H135.808V63.756C135.808 65.708 135.728 67.852 135.568 70.188C135.44 72.492 135.168 74.844 134.752 77.244C134.336 79.612 133.728 81.9 132.928 84.108C132.128 86.316 131.072 88.284 129.76 90.012C129.44 89.66 128.992 89.244 128.416 88.764C127.84 88.284 127.248 87.82 126.64 87.372C126.032 86.924 125.52 86.588 125.104 86.364C126.256 84.796 127.168 83.068 127.84 81.18C128.512 79.292 129.008 77.34 129.328 75.324C129.648 73.308 129.856 71.324 129.952 69.372C130.048 67.388 130.096 65.516 130.096 63.756V47.004ZM145.552 53.052H151.024V56.268H158.56V60.636H151.024V63.66H159.52V68.22H137.344V63.66H145.552V60.636H138.352V56.268H145.552V53.052ZM139.12 70.956H157.696V84.06H144.304V86.7H139.12V70.956ZM144.304 75.324V79.692H152.368V75.324H144.304ZM175.36 48.108L179.872 44.892C180.704 45.692 181.568 46.572 182.464 47.532C183.392 48.492 184.256 49.436 185.056 50.364C185.888 51.292 186.56 52.14 187.072 52.908L182.272 56.604C181.824 55.804 181.216 54.908 180.448 53.916C179.68 52.924 178.848 51.916 177.952 50.892C177.056 49.868 176.192 48.94 175.36 48.108ZM197.584 45.18H203.776C203.712 47.772 203.616 50.284 203.488 52.716H216.928C216.928 52.716 216.928 52.876 216.928 53.196C216.928 53.484 216.928 53.836 216.928 54.252C216.928 54.636 216.912 54.956 216.88 55.212C216.752 60.428 216.592 64.636 216.4 67.836C216.208 71.036 215.952 73.5 215.632 75.228C215.312 76.924 214.88 78.124 214.336 78.828C213.728 79.628 213.072 80.204 212.368 80.556C211.664 80.876 210.832 81.1 209.872 81.228C209.072 81.356 208.032 81.42 206.752 81.42C205.472 81.42 204.144 81.404 202.768 81.372C202.736 80.508 202.528 79.516 202.144 78.396C201.76 77.244 201.296 76.268 200.752 75.468C202.096 75.596 203.344 75.676 204.496 75.708C205.68 75.708 206.576 75.708 207.184 75.708C208.016 75.708 208.656 75.484 209.104 75.036C209.456 74.652 209.744 73.852 209.968 72.636C210.192 71.388 210.384 69.596 210.544 67.26C210.704 64.924 210.832 61.932 210.928 58.284H203.008C202.624 61.42 202 64.428 201.136 67.308C200.272 70.156 199.024 72.812 197.392 75.276C195.76 77.708 193.584 79.884 190.864 81.804C190.448 81.1 189.84 80.348 189.04 79.548C188.272 78.716 187.52 78.044 186.784 77.532C189.088 75.964 190.928 74.188 192.304 72.204C193.712 70.22 194.768 68.06 195.472 65.724C196.176 63.356 196.672 60.876 196.96 58.284H188.32V52.716H197.392C197.456 51.5 197.488 50.268 197.488 49.02C197.52 47.74 197.552 46.46 197.584 45.18ZM184.864 60.636V79.596C185.248 79.852 185.664 80.14 186.112 80.46C186.592 80.748 187.136 81.052 187.744 81.372C189.376 82.364 191.312 83.004 193.552 83.292C195.792 83.548 198.304 83.676 201.088 83.676C202.816 83.676 204.768 83.628 206.944 83.532C209.152 83.436 211.344 83.292 213.52 83.1C215.696 82.908 217.6 82.684 219.232 82.428C219.008 82.972 218.768 83.644 218.512 84.444C218.256 85.244 218.032 86.028 217.84 86.796C217.648 87.596 217.536 88.284 217.504 88.86C216.64 88.892 215.52 88.94 214.144 89.004C212.8 89.068 211.344 89.132 209.776 89.196C208.208 89.26 206.64 89.308 205.072 89.34C203.536 89.372 202.128 89.388 200.848 89.388C197.68 89.388 194.992 89.196 192.784 88.812C190.608 88.46 188.608 87.788 186.784 86.796C185.696 86.156 184.736 85.532 183.904 84.924C183.072 84.284 182.384 83.964 181.84 83.964C181.36 83.964 180.832 84.284 180.256 84.924C179.68 85.564 179.072 86.364 178.432 87.324C177.824 88.284 177.232 89.26 176.656 90.252L172.432 84.444C173.552 83.196 174.688 82.124 175.84 81.228C176.992 80.332 178.08 79.644 179.104 79.164V66.3H173.632V60.636H184.864Z" fill="white"/>
<path d="M841.09 69.9166H811.667V65.0833H841.09L827.556 51.55L831 48.1666L850.333 67.5L831 86.8333L827.556 83.45L841.09 69.9166Z" fill="white"/>
<g opacity="0.8">
<path d="M84.4 69.6665L69.3333 54.5999L84.4 39.5332L99.4667 54.5999L84.4 69.6665ZM48 64.3332V42.9999H69.3333V64.3332H48ZM74.6667 90.9999V69.6665H96V90.9999H74.6667ZM48 90.9999V69.6665H69.3333V90.9999H48ZM53.3333 58.9999H64V48.3332H53.3333V58.9999ZM84.4667 62.1999L92 54.6665L84.4667 47.1332L76.9333 54.6665L84.4667 62.1999ZM80 85.6665H90.6667V74.9999H80V85.6665ZM53.3333 85.6665H64V74.9999H53.3333V85.6665Z" fill="white"/>
</g>
<defs>
<radialGradient id="paint0_radial_25_29" cx="0" cy="0" r="1" gradientUnits="userSpaceOnUse" gradientTransform="translate(450 19.6875) rotate(90) scale(137.009 913.393)">
<stop/>
<stop offset="1" stop-color="#132B1D"/>
</radialGradient>
</defs>
</svg>
