<svg width="900" height="135" viewBox="0 0 900 135" fill="none" xmlns="http://www.w3.org/2000/svg">
<rect width="900" height="135" rx="30" fill="url(#paint0_radial_25_29)"/>
<path d="M130.096 47.004H167.296V83.436C167.296 84.908 167.104 86.044 166.72 86.844C166.368 87.676 165.728 88.332 164.8 88.812C163.872 89.228 162.688 89.484 161.248 89.58C159.84 89.676 158.096 89.724 156.016 89.724C155.92 88.988 155.696 88.092 155.344 87.036C154.992 85.98 154.624 85.1 154.24 84.396C155.488 84.46 156.72 84.492 157.936 84.492C159.152 84.492 159.968 84.492 160.384 84.492C161.152 84.492 161.536 84.124 161.536 83.388V52.332H135.808V63.756C135.808 65.708 135.728 67.852 135.568 70.188C135.44 72.492 135.168 74.844 134.752 77.244C134.336 79.612 133.728 81.9 132.928 84.108C132.128 86.316 131.072 88.284 129.76 90.012C129.44 89.66 128.992 89.244 128.416 88.764C127.84 88.284 127.248 87.82 126.64 87.372C126.032 86.924 125.52 86.588 125.104 86.364C126.256 84.796 127.168 83.068 127.84 81.18C128.512 79.292 129.008 77.34 129.328 75.324C129.648 73.308 129.856 71.324 129.952 69.372C130.048 67.388 130.096 65.516 130.096 63.756V47.004ZM145.552 53.052H151.024V56.268H158.56V60.636H151.024V63.66H159.52V68.22H137.344V63.66H145.552V60.636H138.352V56.268H145.552V53.052ZM139.12 70.956H157.696V84.06H144.304V86.7H139.12V70.956ZM144.304 75.324V79.692H152.368V75.324H144.304ZM175.36 48.108L179.872 44.892C180.704 45.692 181.568 46.572 182.464 47.532C183.392 48.492 184.256 49.436 185.056 50.364C185.888 51.292 186.56 52.14 187.072 52.908L182.272 56.604C181.824 55.804 181.216 54.908 180.448 53.916C179.68 52.924 178.848 51.916 177.952 50.892C177.056 49.868 176.192 48.94 175.36 48.108ZM197.584 45.18H203.776C203.712 47.772 203.616 50.284 203.488 52.716H216.928C216.928 52.716 216.928 52.876 216.928 53.196C216.928 53.484 216.928 53.836 216.928 54.252C216.928 54.636 216.912 54.956 216.88 55.212C216.752 60.428 216.592 64.636 216.4 67.836C216.208 71.036 215.952 73.5 215.632 75.228C215.312 76.924 214.88 78.124 214.336 78.828C213.728 79.628 213.072 80.204 212.368 80.556C211.664 80.876 210.832 81.1 209.872 81.228C209.072 81.356 208.032 81.42 206.752 81.42C205.472 81.42 204.144 81.404 202.768 81.372C202.736 80.508 202.528 79.516 202.144 78.396C201.76 77.244 201.296 76.268 200.752 75.468C202.096 75.596 203.344 75.676 204.496 75.708C205.68 75.708 206.576 75.708 207.184 75.708C208.016 75.708 208.656 75.484 209.104 75.036C209.456 74.652 209.744 73.852 209.968 72.636C210.192 71.388 210.384 69.596 210.544 67.26C210.704 64.924 210.832 61.932 210.928 58.284H203.008C202.624 61.42 202 64.428 201.136 67.308C200.272 70.156 199.024 72.812 197.392 75.276C195.76 77.708 193.584 79.884 190.864 81.804C190.448 81.1 189.84 80.348 189.04 79.548C188.272 78.716 187.52 78.044 186.784 77.532C189.088 75.964 190.928 74.188 192.304 72.204C193.712 70.22 194.768 68.06 195.472 65.724C196.176 63.356 196.672 60.876 196.96 58.284H188.32V52.716H197.392C197.456 51.5 197.488 50.268 197.488 49.02C197.52 47.74 197.552 46.46 197.584 45.18ZM184.864 60.636V79.596C185.248 79.852 185.664 80.14 186.112 80.46C186.592 80.748 187.136 81.052 187.744 81.372C189.376 82.364 191.312 83.004 193.552 83.292C195.792 83.548 198.304 83.676 201.088 83.676C202.816 83.676 204.768 83.628 206.944 83.532C209.152 83.436 211.344 83.292 213.52 83.1C215.696 82.908 217.6 82.684 219.232 82.428C219.008 82.972 218.768 83.644 218.512 84.444C218.256 85.244 218.032 86.028 217.84 86.796C217.648 87.596 217.536 88.284 217.504 88.86C216.64 88.892 215.52 88.94 214.144 89.004C212.8 89.068 211.344 89.132 209.776 89.196C208.208 89.26 206.64 89.308 205.072 89.34C203.536 89.372 202.128 89.388 200.848 89.388C197.68 89.388 194.992 89.196 192.784 88.812C190.608 88.46 188.608 87.788 186.784 86.796C185.696 86.156 184.736 85.532 183.904 84.924C183.072 84.284 182.384 83.964 181.84 83.964C181.36 83.964 180.832 84.284 180.256 84.924C179.68 85.564 179.072 86.364 178.432 87.324C177.824 88.284 177.232 89.26 176.656 90.252L172.432 84.444C173.552 83.196 174.688 82.124 175.84 81.228C176.992 80.332 178.08 79.644 179.104 79.164V66.3H173.632V60.636H184.864ZM224.8 48.828L228.496 45.324C229.36 46.028 230.288 46.812 231.28 47.676C232.272 48.54 233.216 49.404 234.112 50.268C235.008 51.132 235.728 51.916 236.272 52.62L232.336 56.604C231.824 55.868 231.136 55.052 230.272 54.156C229.44 53.228 228.544 52.3 227.584 51.372C226.624 50.444 225.696 49.596 224.8 48.828ZM221.68 59.532H232.96V77.772L237.088 74.268C237.344 75.036 237.68 75.9 238.096 76.86C238.544 77.788 238.928 78.524 239.248 79.068C237.04 80.956 235.232 82.492 233.824 83.676C232.448 84.86 231.36 85.804 230.56 86.508C229.76 87.212 229.168 87.756 228.784 88.14C228.4 88.524 228.112 88.86 227.92 89.148C227.76 88.668 227.504 88.108 227.152 87.468C226.832 86.86 226.48 86.268 226.096 85.692C225.712 85.116 225.36 84.636 225.04 84.252C225.584 83.868 226.112 83.276 226.624 82.476C227.168 81.644 227.44 80.668 227.44 79.548V65.052H221.68V59.532ZM242.512 46.284H259.744V56.796C259.744 57.5 259.792 57.996 259.888 58.284C260.016 58.572 260.256 58.716 260.608 58.716C260.864 58.716 261.264 58.716 261.808 58.716C262.352 58.716 262.768 58.716 263.056 58.716C263.44 58.716 263.888 58.7 264.4 58.668C264.912 58.604 265.328 58.524 265.648 58.428C265.712 59.132 265.776 59.948 265.84 60.876C265.904 61.772 266 62.54 266.128 63.18C265.744 63.34 265.28 63.452 264.736 63.516C264.224 63.548 263.696 63.564 263.152 63.564C262.768 63.564 262.24 63.564 261.568 63.564C260.896 63.564 260.384 63.564 260.032 63.564C258.464 63.564 257.264 63.324 256.432 62.844C255.6 62.364 255.04 61.628 254.752 60.636C254.464 59.612 254.32 58.3 254.32 56.7V51.612H247.888C247.888 53.212 247.664 54.86 247.216 56.556C246.8 58.22 245.984 59.788 244.768 61.26C243.552 62.732 241.792 63.996 239.488 65.052C239.264 64.668 238.912 64.204 238.432 63.66C237.984 63.084 237.504 62.54 236.992 62.028C236.512 61.484 236.08 61.084 235.696 60.828C237.744 59.964 239.248 59.02 240.208 57.996C241.168 56.972 241.792 55.9 242.08 54.78C242.368 53.66 242.512 52.556 242.512 51.468V46.284ZM256.624 70.908H245.056C246.592 73.596 248.56 75.916 250.96 77.868C252.144 76.908 253.2 75.852 254.128 74.7C255.088 73.548 255.92 72.284 256.624 70.908ZM238.288 65.58H259.456L260.416 65.34L263.968 66.828C263.072 69.836 261.92 72.508 260.512 74.844C259.104 77.148 257.456 79.18 255.568 80.94C257.2 81.804 258.944 82.556 260.8 83.196C262.688 83.836 264.688 84.348 266.8 84.732C266.192 85.34 265.536 86.14 264.832 87.132C264.16 88.156 263.648 89.068 263.296 89.868C258.56 88.716 254.4 86.94 250.816 84.54C248.896 85.724 246.832 86.732 244.624 87.564C242.416 88.428 240.08 89.148 237.616 89.724C237.392 88.988 237.024 88.124 236.512 87.132C236 86.14 235.488 85.34 234.976 84.732C237.088 84.348 239.104 83.852 241.024 83.244C242.944 82.604 244.736 81.836 246.4 80.94C243.776 78.316 241.568 75.212 239.776 71.628L241.888 70.908H238.288V65.58ZM273.52 48.924L277.216 45.18C278.112 45.852 279.072 46.62 280.096 47.484C281.12 48.316 282.096 49.164 283.024 50.028C283.984 50.86 284.752 51.628 285.328 52.332L281.44 56.508C280.896 55.804 280.176 55.004 279.28 54.108C278.384 53.212 277.424 52.316 276.4 51.42C275.408 50.492 274.448 49.66 273.52 48.924ZM269.824 59.532H282.688V78.108L287.584 74.652C287.744 75.484 288.016 76.428 288.4 77.484C288.784 78.54 289.12 79.372 289.408 79.98C286.976 81.74 284.992 83.18 283.456 84.3C281.952 85.42 280.768 86.316 279.904 86.988C279.04 87.66 278.4 88.188 277.984 88.572C277.568 88.956 277.248 89.292 277.024 89.58C276.896 89.068 276.656 88.476 276.304 87.804C275.984 87.132 275.632 86.46 275.248 85.788C274.864 85.148 274.512 84.62 274.192 84.204C274.736 83.852 275.312 83.292 275.92 82.524C276.528 81.756 276.832 80.828 276.832 79.74V65.244H269.824V59.532ZM297.136 44.94H303.328V59.868H314.416V65.868H303.328V89.82H297.136V65.868H285.616V59.868H297.136V44.94Z" fill="white"/>
<path d="M841.09 69.9166H811.667V65.0833H841.09L827.556 51.55L831 48.1666L850.333 67.5L831 86.8333L827.556 83.45L841.09 69.9166Z" fill="white"/>
<g opacity="0.8">
<path d="M84.4 69.6665L69.3333 54.5999L84.4 39.5332L99.4667 54.5999L84.4 69.6665ZM48 64.3332V42.9999H69.3333V64.3332H48ZM74.6667 90.9999V69.6665H96V90.9999H74.6667ZM48 90.9999V69.6665H69.3333V90.9999H48ZM53.3333 58.9999H64V48.3332H53.3333V58.9999ZM84.4667 62.1999L92 54.6665L84.4667 47.1332L76.9333 54.6665L84.4667 62.1999ZM80 85.6665H90.6667V74.9999H80V85.6665ZM53.3333 85.6665H64V74.9999H53.3333V85.6665Z" fill="white"/>
</g>
<defs>
<radialGradient id="paint0_radial_25_29" cx="0" cy="0" r="1" gradientUnits="userSpaceOnUse" gradientTransform="translate(450 19.6875) rotate(90) scale(137.009 913.393)">
<stop/>
<stop offset="1" stop-color="#2B1313"/>
</radialGradient>
</defs>
</svg>
