<svg width="900" height="135" viewBox="0 0 900 135" fill="none" xmlns="http://www.w3.org/2000/svg">
<rect width="900" height="135" rx="30" fill="url(#paint0_radial_10_299)"/>
<path d="M149.92 79.164L152.896 75.036C155.072 75.932 157.232 76.94 159.376 78.06C161.552 79.18 163.568 80.316 165.424 81.468C167.312 82.62 168.88 83.708 170.128 84.732L166.384 89.196C165.168 88.108 163.664 86.956 161.872 85.74C160.112 84.556 158.208 83.388 156.16 82.236C154.112 81.084 152.032 80.06 149.92 79.164ZM132.064 50.22L135.184 46.14C136.464 46.524 137.808 47.02 139.216 47.628C140.656 48.236 142.032 48.892 143.344 49.596C144.656 50.268 145.728 50.924 146.56 51.564L143.2 56.172C142.432 55.5 141.424 54.796 140.176 54.06C138.928 53.324 137.584 52.62 136.144 51.948C134.736 51.276 133.376 50.7 132.064 50.22ZM127.696 59.34L131.008 55.308C132.32 55.756 133.696 56.316 135.136 56.988C136.608 57.628 137.984 58.316 139.264 59.052C140.576 59.756 141.648 60.46 142.48 61.164L138.88 65.628C138.112 64.956 137.088 64.236 135.808 63.468C134.56 62.7 133.216 61.948 131.776 61.212C130.368 60.476 129.008 59.852 127.696 59.34ZM126.352 66.204H147.424C148.064 63.26 148.4 60.028 148.432 56.508C148.496 52.956 148.544 49.1 148.576 44.94H154.576C154.544 48.908 154.48 52.668 154.384 56.22C154.288 59.772 153.952 63.1 153.376 66.204H169.792V71.532H152.032C151.072 74.348 149.68 76.908 147.856 79.212C146.032 81.516 143.6 83.548 140.56 85.308C137.52 87.068 133.712 88.54 129.136 89.724C128.816 88.988 128.336 88.14 127.696 87.18C127.088 86.252 126.464 85.484 125.824 84.876C129.632 83.948 132.832 82.844 135.424 81.564C138.048 80.284 140.192 78.812 141.856 77.148C143.52 75.452 144.816 73.58 145.744 71.532H126.352V66.204ZM195.76 52.38C195.44 52.796 195.104 53.212 194.752 53.628C194.4 54.044 194.048 54.46 193.696 54.876H200.944C201.584 54.172 202.24 53.34 202.912 52.38H195.76ZM183.184 44.892L188.656 46.62C188.048 48.284 187.36 49.964 186.592 51.66C185.856 53.324 185.056 54.972 184.192 56.604C186.72 54.876 188.848 52.956 190.576 50.844C192.304 48.7 193.664 46.668 194.656 44.748L200.032 45.804L198.688 48.156H206.08L207.136 47.868L210.352 50.316C209.872 51.052 209.344 51.82 208.768 52.62C208.192 53.388 207.584 54.14 206.944 54.876H215.68V66.108H201.856L201.088 66.972C201.952 67.708 202.704 68.508 203.344 69.372C204.016 70.236 204.592 71.132 205.072 72.06C206.48 71.324 207.904 70.524 209.344 69.66C210.816 68.796 212.048 67.98 213.04 67.212L216.832 70.764C216.128 71.18 215.392 71.596 214.624 72.012C213.856 72.396 213.072 72.796 212.272 73.212C212.944 75.228 213.856 77.1 215.008 78.828C216.192 80.524 217.568 81.852 219.136 82.812C218.56 83.292 217.92 83.948 217.216 84.78C216.512 85.612 215.952 86.364 215.536 87.036C213.776 85.788 212.288 84.124 211.072 82.044C209.856 79.932 208.88 77.628 208.144 75.132L206.512 75.804C206.96 77.436 207.184 79.036 207.184 80.604C207.184 82.172 207.008 83.58 206.656 84.828C206.336 86.076 205.856 87.036 205.216 87.708C204.576 88.508 203.872 89.052 203.104 89.34C202.336 89.628 201.472 89.788 200.512 89.82C200.096 89.852 199.632 89.852 199.12 89.82C198.608 89.82 198.096 89.804 197.584 89.772C197.552 89.1 197.44 88.284 197.248 87.324C197.056 86.396 196.736 85.58 196.288 84.876C196.896 84.94 197.456 84.988 197.968 85.02C198.48 85.052 198.928 85.068 199.312 85.068C199.76 85.068 200.144 85.004 200.464 84.876C200.784 84.748 201.056 84.476 201.28 84.06C201.824 83.356 202.096 82.108 202.096 80.316C200.144 81.884 197.984 83.324 195.616 84.636C193.28 85.948 190.992 87.004 188.752 87.804C188.368 87.196 187.856 86.492 187.216 85.692C186.576 84.924 185.984 84.3 185.44 83.82C187.36 83.276 189.296 82.572 191.248 81.708C193.232 80.844 195.104 79.9 196.864 78.876C198.624 77.82 200.112 76.732 201.328 75.612L200.704 73.98C199.072 75.26 197.2 76.492 195.088 77.676C193.008 78.86 191.024 79.788 189.136 80.46C188.816 79.916 188.352 79.292 187.744 78.588C187.136 77.884 186.592 77.324 186.112 76.908C187.584 76.492 189.104 75.98 190.672 75.372C192.272 74.732 193.792 74.028 195.232 73.26C196.672 72.46 197.872 71.66 198.832 70.86L197.776 69.756C196.656 70.524 195.344 71.26 193.84 71.964C192.336 72.636 190.608 73.26 188.656 73.836C188.336 73.388 187.872 72.828 187.264 72.156C186.656 71.484 186.096 70.908 185.584 70.428C187.696 69.788 189.536 69.116 191.104 68.412C192.672 67.676 194 66.908 195.088 66.108H189.136V59.292L187.792 60.348C187.408 59.772 186.848 59.116 186.112 58.38C185.408 57.644 184.768 57.068 184.192 56.652L184.096 56.844V89.724H178.624V65.58C178.176 66.188 177.712 66.78 177.232 67.356C176.784 67.9 176.32 68.428 175.84 68.94C175.68 68.46 175.408 67.836 175.024 67.068C174.672 66.3 174.288 65.548 173.872 64.812C173.456 64.044 173.088 63.42 172.768 62.94C174.176 61.468 175.52 59.772 176.8 57.852C178.112 55.9 179.312 53.82 180.4 51.612C181.488 49.404 182.416 47.164 183.184 44.892ZM194.224 59.004V61.98H199.12C199.472 61.436 199.744 60.924 199.936 60.444C200.128 59.932 200.272 59.452 200.368 59.004H194.224ZM205.024 59.004C204.96 59.452 204.864 59.932 204.736 60.444C204.64 60.924 204.48 61.436 204.256 61.98H210.4V59.004H205.024Z" fill="white"/>
<path d="M841.09 69.9166H811.667V65.0833H841.09L827.556 51.55L831 48.1666L850.333 67.5L831 86.8333L827.556 83.45L841.09 69.9166Z" fill="white"/>
<path opacity="0.8" d="M55.8617 60.5234L47.5454 62.7518V53.4616C47.5454 53.0178 47.3739 52.7679 46.9453 52.8827C46.4309 53.0206 46.3165 53.4654 46.3165 53.8205V63.081L38.0002 65.3094V42.2319L46.3165 40.0036V47.2227C46.9453 46.285 48.0312 45.491 50.2889 44.886C53.947 43.9059 55.8617 45.8781 55.8617 49.103V60.5234ZM71.8174 46.7804C71.303 46.6816 70.6171 46.747 69.9026 46.9384C68.1308 47.4132 66.1874 48.5848 66.1874 49.4724V57.7566L57.8711 59.985V43.3278L65.3872 41.3139V42.6748C66.2732 41.2836 68.2451 40.0747 71.8174 39.1175V46.7804ZM90.1924 46.5315C90.1924 49.9636 87.6775 52.4422 81.5903 54.0733C76.3319 55.4822 72.9596 54.6402 72.9596 50.3798L79.3897 48.6568C79.3897 49.4557 79.9899 49.6499 81.1045 49.3513C81.6474 49.2058 81.9046 48.9889 81.9046 48.7818C81.9046 48.6635 81.7903 48.5166 81.5617 48.4299C80.9901 48.1688 79.7898 47.9875 78.8182 48.0111C74.7886 48.1441 73.1597 46.9533 73.1597 44.0243C73.1597 40.5922 76.2176 37.9385 81.7618 36.4529C86.763 35.1129 90.0209 35.8376 90.0209 40.098L83.7051 41.7903C83.7051 41.169 83.2764 40.8105 82.0475 41.1398C81.5331 41.2776 81.2759 41.5832 81.2759 41.8199C81.2759 41.9974 81.4474 42.129 81.7332 42.1412C82.5334 42.1339 84.4767 42.2641 85.1054 42.2731C88.5634 42.3229 90.1924 43.7208 90.1924 46.5315ZM104.441 42.1515L103.869 48.1036C95.0672 50.4621 93.1239 49.8586 93.1239 45.1247V39.7104L90.9805 40.2847V34.4562L93.1239 33.8818V28.9113L101.44 26.683V31.6535L104.241 30.9031V36.7316L101.44 37.482V41.2987C101.44 42.5117 101.897 42.833 104.441 42.1515ZM55.8617 85.5234L47.5454 87.7518V78.4616C47.5454 78.0178 47.3739 77.7679 46.9453 77.8827C46.4309 78.0206 46.3165 78.4654 46.3165 78.8205V88.081L38.0002 90.3094V67.2319L46.3165 65.0036V72.2227C46.9453 71.285 48.0312 70.491 50.2889 69.886C53.947 68.9059 55.8617 70.8781 55.8617 74.103V85.5234ZM71.8174 71.7804C71.303 71.6816 70.6171 71.747 69.9026 71.9384C68.1308 72.4132 66.1874 73.5848 66.1874 74.4724V82.7566L57.8711 84.985V68.3278L65.3872 66.3139V67.6748C66.2732 66.2836 68.2451 65.0747 71.8174 64.1175V71.7804ZM86.0771 72.0721L85.5055 78.0242C76.7034 80.3827 74.7601 79.7791 74.7601 75.0453V69.631L72.6167 70.2053V64.3767L74.7601 63.8024V58.8319L83.0764 56.6035V61.5741L85.877 60.8236V66.6522L83.0764 67.4026V71.2193C83.0764 72.4323 83.5336 72.7536 86.0771 72.0721ZM85.6355 86.628C81.5202 91.2811 79.1196 97.812 79.1196 104.291L70.0888 106.711C70.0888 99.6105 73.3182 92.9758 76.0046 89.9483L67.8026 92.146V84.2464L85.6355 79.4681V86.628ZM106.475 93.3226L104.617 93.8203V97.4595L96.4437 99.6495V96.0104L87.7558 98.3383V90.557L93.8716 77.2612L104.617 74.382V85.8615L106.475 85.3638V93.3226ZM96.7294 87.975V83.7737L94.5861 88.5493L96.7294 87.975Z" fill="white"/>
<defs>
<radialGradient id="paint0_radial_10_299" cx="0" cy="0" r="1" gradientUnits="userSpaceOnUse" gradientTransform="translate(450 19.6875) rotate(90) scale(137.009 913.393)">
<stop/>
<stop offset="1" stop-color="#303013"/>
</radialGradient>
</defs>
</svg>
