<svg width="800" height="336" viewBox="0 0 800 336" fill="none" xmlns="http://www.w3.org/2000/svg">
<g clip-path="url(#clip0_1_48)">
<rect width="800" height="336" fill="url(#paint0_radial_1_48)"/>
<path opacity="0.8" d="M54.64 215C53.504 215 52.616 214.696 51.976 214.088C51.352 213.48 51.04 212.624 51.04 211.52V203.768H47.32V201.8H51.04V198.08H53.2V201.8H58.48V203.768H53.2V211.52C53.2 212.528 53.68 213.032 54.64 213.032H58.24V215H54.64ZM67.5906 215.24C66.5506 215.24 65.6386 215.032 64.8546 214.616C64.0866 214.2 63.4866 213.616 63.0546 212.864C62.6386 212.096 62.4306 211.208 62.4306 210.2V206.6C62.4306 205.576 62.6386 204.688 63.0546 203.936C63.4866 203.184 64.0866 202.6 64.8546 202.184C65.6386 201.768 66.5506 201.56 67.5906 201.56C68.6306 201.56 69.5346 201.768 70.3026 202.184C71.0866 202.6 71.6866 203.184 72.1026 203.936C72.5346 204.688 72.7506 205.576 72.7506 206.6V208.928H64.5426V210.2C64.5426 211.24 64.8066 212.04 65.3346 212.6C65.8626 213.144 66.6146 213.416 67.5906 213.416C68.4226 213.416 69.0946 213.272 69.6066 212.984C70.1186 212.68 70.4306 212.232 70.5426 211.64H72.7026C72.5586 212.744 72.0146 213.624 71.0706 214.28C70.1426 214.92 68.9826 215.24 67.5906 215.24ZM70.6386 207.488V206.6C70.6386 205.56 70.3746 204.76 69.8466 204.2C69.3346 203.64 68.5826 203.36 67.5906 203.36C66.6146 203.36 65.8626 203.64 65.3346 204.2C64.8066 204.76 64.5426 205.56 64.5426 206.6V207.296H70.8066L70.6386 207.488ZM82.0773 215.24C81.0213 215.24 80.0933 215.04 79.2933 214.64C78.5093 214.24 77.9013 213.664 77.4693 212.912C77.0373 212.144 76.8213 211.24 76.8213 210.2V206.6C76.8213 205.544 77.0373 204.64 77.4693 203.888C77.9013 203.136 78.5093 202.56 79.2933 202.16C80.0933 201.76 81.0213 201.56 82.0773 201.56C83.5973 201.56 84.8213 201.968 85.7493 202.784C86.6773 203.6 87.1653 204.712 87.2133 206.12H85.0533C85.0053 205.272 84.7173 204.624 84.1893 204.176C83.6773 203.712 82.9733 203.48 82.0773 203.48C81.1333 203.48 80.3813 203.752 79.8213 204.296C79.2613 204.824 78.9813 205.584 78.9813 206.576V210.2C78.9813 211.192 79.2613 211.96 79.8213 212.504C80.3813 213.048 81.1333 213.32 82.0773 213.32C82.9733 213.32 83.6773 213.088 84.1893 212.624C84.7173 212.16 85.0053 211.512 85.0533 210.68H87.2133C87.1653 212.088 86.6773 213.2 85.7493 214.016C84.8213 214.832 83.5973 215.24 82.0773 215.24ZM91.3799 215V197.48H93.5399V201.8V204.32H93.9959L93.5399 204.824C93.5399 203.784 93.8519 202.984 94.4759 202.424C95.0999 201.848 95.9639 201.56 97.0679 201.56C98.3959 201.56 99.4519 201.968 100.236 202.784C101.02 203.6 101.412 204.712 101.412 206.12V215H99.2519V206.36C99.2519 205.416 98.9959 204.688 98.4839 204.176C97.9879 203.648 97.3079 203.384 96.4439 203.384C95.5479 203.384 94.8359 203.664 94.3079 204.224C93.7959 204.784 93.5399 205.576 93.5399 206.6V215H91.3799ZM105.771 215V201.8H107.931V204.32H108.387L107.931 204.824C107.931 203.784 108.243 202.984 108.867 202.424C109.491 201.848 110.355 201.56 111.459 201.56C112.787 201.56 113.843 201.968 114.627 202.784C115.411 203.6 115.803 204.712 115.803 206.12V215H113.643V206.36C113.643 205.416 113.387 204.696 112.875 204.2C112.379 203.688 111.699 203.432 110.835 203.432C109.939 203.432 109.227 203.704 108.699 204.248C108.187 204.792 107.931 205.576 107.931 206.6V215H105.771ZM119.993 215V213.032H124.673V203.768H120.593V201.8H126.833V213.032H131.273V215H119.993ZM125.513 199.424C124.985 199.424 124.569 199.288 124.265 199.016C123.961 198.744 123.809 198.376 123.809 197.912C123.809 197.432 123.961 197.056 124.265 196.784C124.569 196.496 124.985 196.352 125.513 196.352C126.041 196.352 126.457 196.496 126.761 196.784C127.065 197.056 127.217 197.432 127.217 197.912C127.217 198.376 127.065 198.744 126.761 199.016C126.457 199.288 126.041 199.424 125.513 199.424ZM139.64 215.24C138.584 215.24 137.656 215.04 136.856 214.64C136.072 214.24 135.464 213.664 135.032 212.912C134.6 212.144 134.384 211.24 134.384 210.2V206.6C134.384 205.544 134.6 204.64 135.032 203.888C135.464 203.136 136.072 202.56 136.856 202.16C137.656 201.76 138.584 201.56 139.64 201.56C141.16 201.56 142.384 201.968 143.312 202.784C144.24 203.6 144.728 204.712 144.776 206.12H142.616C142.568 205.272 142.28 204.624 141.752 204.176C141.24 203.712 140.536 203.48 139.64 203.48C138.696 203.48 137.944 203.752 137.384 204.296C136.824 204.824 136.544 205.584 136.544 206.576V210.2C136.544 211.192 136.824 211.96 137.384 212.504C137.944 213.048 138.696 213.32 139.64 213.32C140.536 213.32 141.24 213.088 141.752 212.624C142.28 212.16 142.568 211.512 142.616 210.68H144.776C144.728 212.088 144.24 213.2 143.312 214.016C142.384 214.832 141.16 215.24 139.64 215.24ZM152.782 215.24C151.39 215.24 150.294 214.888 149.494 214.184C148.694 213.464 148.294 212.496 148.294 211.28C148.294 210.048 148.694 209.08 149.494 208.376C150.294 207.672 151.374 207.32 152.734 207.32H156.814V206C156.814 205.184 156.566 204.56 156.07 204.128C155.59 203.68 154.902 203.456 154.006 203.456C153.222 203.456 152.566 203.624 152.038 203.96C151.51 204.28 151.206 204.72 151.126 205.28H148.966C149.11 204.144 149.646 203.24 150.574 202.568C151.502 201.896 152.662 201.56 154.054 201.56C155.574 201.56 156.774 201.952 157.654 202.736C158.534 203.52 158.974 204.584 158.974 205.928V215H156.862V212.48H156.502L156.862 212.12C156.862 213.08 156.486 213.84 155.734 214.4C154.998 214.96 154.014 215.24 152.782 215.24ZM153.31 213.536C154.334 213.536 155.174 213.28 155.83 212.768C156.486 212.256 156.814 211.6 156.814 210.8V208.928H152.782C152.062 208.928 151.494 209.128 151.078 209.528C150.662 209.928 150.454 210.472 150.454 211.16C150.454 211.896 150.702 212.48 151.198 212.912C151.71 213.328 152.414 213.536 153.31 213.536ZM170.125 215C169.357 215 168.685 214.848 168.109 214.544C167.533 214.24 167.085 213.808 166.765 213.248C166.445 212.688 166.285 212.032 166.285 211.28V199.448H161.845V197.48H168.445V211.28C168.445 211.824 168.597 212.256 168.901 212.576C169.205 212.88 169.613 213.032 170.125 213.032H174.325V215H170.125Z" fill="white"/>
<path d="M88.08 228H97.6V239.44H115.6V248.32H97.6V257.92H107.28L108.88 257.6L115.04 260.08C113.547 265.68 111.52 270.693 108.96 275.12C106.453 279.547 103.493 283.467 100.08 286.88C105.307 290.507 111.52 293.2 118.72 294.96C117.707 295.92 116.587 297.227 115.36 298.88C114.187 300.533 113.253 301.973 112.56 303.2C104.827 300.96 98.1333 297.6 92.48 293.12C89.3867 295.253 86.08 297.12 82.56 298.72C79.04 300.373 75.3067 301.787 71.36 302.96C70.8267 301.733 70.0533 300.24 69.04 298.48C68.08 296.72 67.1467 295.333 66.24 294.32C69.8133 293.467 73.2 292.4 76.4 291.12C79.6533 289.84 82.6933 288.293 85.52 286.48C83.1733 283.76 81.04 280.8 79.12 277.6C77.2533 274.4 75.5467 270.96 74 267.28L76.48 266.56H72.24V257.92H88.08V248.32H70.88V239.44H88.08V228ZM83.36 266.56C84.5333 269.227 85.8933 271.76 87.44 274.16C89.04 276.56 90.8267 278.773 92.8 280.8C94.9333 278.773 96.8533 276.587 98.56 274.24C100.32 271.893 101.787 269.333 102.96 266.56H83.36ZM52.48 228H61.92V243.28H69.84V252.16H61.92V264.08L69.28 262.24L70.48 271.04L61.92 273.36V292.56C61.92 294.853 61.6533 296.64 61.12 297.92C60.64 299.253 59.7067 300.293 58.32 301.04C56.9867 301.733 55.3067 302.187 53.28 302.4C51.3067 302.613 48.9067 302.72 46.08 302.72C45.92 301.493 45.5733 300.027 45.04 298.32C44.5067 296.667 43.9467 295.227 43.36 294C44.96 294.053 46.48 294.08 47.92 294.08C49.4133 294.08 50.4267 294.08 50.96 294.08C51.9733 294.08 52.48 293.547 52.48 292.48V275.84L44.64 277.84L42.16 268.64C43.6533 268.373 45.2533 268.053 46.96 267.68C48.72 267.253 50.56 266.827 52.48 266.4V252.16H43.2V243.28H52.48V228ZM168.48 234.64L175.52 228.8C176.96 229.867 178.533 231.093 180.24 232.48C182 233.813 183.68 235.147 185.28 236.48C186.88 237.813 188.187 239.013 189.2 240.08L181.68 246.72C180.773 245.6 179.547 244.347 178 242.96C176.507 241.52 174.907 240.08 173.2 238.64C171.547 237.147 169.973 235.813 168.48 234.64ZM154.96 228.16H165.52V247.68H194.88V257.2H169.68C172.027 260.827 174.773 264.427 177.92 268C181.067 271.573 184.4 274.907 187.92 278C191.44 281.093 194.907 283.733 198.32 285.92C197.093 286.933 195.707 288.267 194.16 289.92C192.667 291.573 191.467 293.093 190.56 294.48C186.187 291.173 181.813 287.093 177.44 282.24C173.067 277.387 169.093 272.24 165.52 266.8V303.2H154.96V270.32C151.44 275.493 147.467 280.213 143.04 284.48C138.613 288.747 133.947 292.293 129.04 295.12C128.187 293.893 127.04 292.427 125.6 290.72C124.213 289.013 122.933 287.653 121.76 286.64C125.867 284.613 129.813 282.053 133.6 278.96C137.44 275.867 140.96 272.453 144.16 268.72C147.36 264.987 150.053 261.147 152.24 257.2H124.88V247.68H154.96V228.16Z" fill="white"/>
<path d="M728.6 294L651.95 217.35L681.35 187.95L758 264.6L728.6 294ZM535.4 294L506 264.6L602.6 168L578.8 144.2L569 154L551.15 136.15V164.85L541.35 174.65L499 132.3L508.8 122.5H537.5L520 105L569.7 55.3001C574.367 50.6334 579.383 47.2501 584.75 45.1501C590.117 43.0501 595.6 42.0001 601.2 42.0001C606.8 42.0001 612.283 43.0501 617.65 45.1501C623.017 47.2501 628.033 50.6334 632.7 55.3001L600.5 87.5001L618 105L608.2 114.8L632 138.6L663.5 107.1C662.567 104.533 661.808 101.85 661.225 99.0501C660.642 96.2501 660.35 93.4501 660.35 90.6501C660.35 76.8834 665.075 65.2751 674.525 55.8251C683.975 46.3751 695.583 41.6501 709.35 41.6501C712.85 41.6501 716.175 42.0001 719.325 42.7001C722.475 43.4001 725.683 44.4501 728.95 45.8501L694.3 80.5001L719.5 105.7L754.15 71.0501C755.783 74.3167 756.892 77.5251 757.475 80.6751C758.058 83.8251 758.35 87.1501 758.35 90.6501C758.35 104.417 753.625 116.025 744.175 125.475C734.725 134.925 723.117 139.65 709.35 139.65C706.55 139.65 703.75 139.417 700.95 138.95C698.15 138.483 695.467 137.667 692.9 136.5L535.4 294Z" fill="url(#paint1_radial_1_48)"/>
</g>
<defs>
<radialGradient id="paint0_radial_1_48" cx="0" cy="0" r="1" gradientUnits="userSpaceOnUse" gradientTransform="translate(400 49) rotate(90) scale(341 811.905)">
<stop/>
<stop offset="1" stop-color="#132B1D"/>
</radialGradient>
<radialGradient id="paint1_radial_1_48" cx="0" cy="0" r="1" gradientUnits="userSpaceOnUse" gradientTransform="translate(707.921 83.7084) rotate(135.005) scale(369.655 344.174)">
<stop stop-color="white" stop-opacity="0.5"/>
<stop offset="0.563345" stop-color="white" stop-opacity="0.07"/>
<stop offset="0.813671" stop-color="white" stop-opacity="0"/>
</radialGradient>
<clipPath id="clip0_1_48">
<rect width="800" height="336" fill="white"/>
</clipPath>
</defs>
</svg>
