<svg width="800" height="336" viewBox="0 0 800 336" fill="none" xmlns="http://www.w3.org/2000/svg">
<g clip-path="url(#clip0_1_48)">
<rect width="800" height="336" fill="url(#paint0_radial_1_48)"/>
<path opacity="0.8" d="M54.64 215C53.504 215 52.616 214.696 51.976 214.088C51.352 213.48 51.04 212.624 51.04 211.52V203.768H47.32V201.8H51.04V198.08H53.2V201.8H58.48V203.768H53.2V211.52C53.2 212.528 53.68 213.032 54.64 213.032H58.24V215H54.64ZM67.5906 215.24C66.5506 215.24 65.6386 215.032 64.8546 214.616C64.0866 214.2 63.4866 213.616 63.0546 212.864C62.6386 212.096 62.4306 211.208 62.4306 210.2V206.6C62.4306 205.576 62.6386 204.688 63.0546 203.936C63.4866 203.184 64.0866 202.6 64.8546 202.184C65.6386 201.768 66.5506 201.56 67.5906 201.56C68.6306 201.56 69.5346 201.768 70.3026 202.184C71.0866 202.6 71.6866 203.184 72.1026 203.936C72.5346 204.688 72.7506 205.576 72.7506 206.6V208.928H64.5426V210.2C64.5426 211.24 64.8066 212.04 65.3346 212.6C65.8626 213.144 66.6146 213.416 67.5906 213.416C68.4226 213.416 69.0946 213.272 69.6066 212.984C70.1186 212.68 70.4306 212.232 70.5426 211.64H72.7026C72.5586 212.744 72.0146 213.624 71.0706 214.28C70.1426 214.92 68.9826 215.24 67.5906 215.24ZM70.6386 207.488V206.6C70.6386 205.56 70.3746 204.76 69.8466 204.2C69.3346 203.64 68.5826 203.36 67.5906 203.36C66.6146 203.36 65.8626 203.64 65.3346 204.2C64.8066 204.76 64.5426 205.56 64.5426 206.6V207.296H70.8066L70.6386 207.488ZM82.0773 215.24C81.0213 215.24 80.0933 215.04 79.2933 214.64C78.5093 214.24 77.9013 213.664 77.4693 212.912C77.0373 212.144 76.8213 211.24 76.8213 210.2V206.6C76.8213 205.544 77.0373 204.64 77.4693 203.888C77.9013 203.136 78.5093 202.56 79.2933 202.16C80.0933 201.76 81.0213 201.56 82.0773 201.56C83.5973 201.56 84.8213 201.968 85.7493 202.784C86.6773 203.6 87.1653 204.712 87.2133 206.12H85.0533C85.0053 205.272 84.7173 204.624 84.1893 204.176C83.6773 203.712 82.9733 203.48 82.0773 203.48C81.1333 203.48 80.3813 203.752 79.8213 204.296C79.2613 204.824 78.9813 205.584 78.9813 206.576V210.2C78.9813 211.192 79.2613 211.96 79.8213 212.504C80.3813 213.048 81.1333 213.32 82.0773 213.32C82.9733 213.32 83.6773 213.088 84.1893 212.624C84.7173 212.16 85.0053 211.512 85.0533 210.68H87.2133C87.1653 212.088 86.6773 213.2 85.7493 214.016C84.8213 214.832 83.5973 215.24 82.0773 215.24ZM91.3799 215V197.48H93.5399V201.8V204.32H93.9959L93.5399 204.824C93.5399 203.784 93.8519 202.984 94.4759 202.424C95.0999 201.848 95.9639 201.56 97.0679 201.56C98.3959 201.56 99.4519 201.968 100.236 202.784C101.02 203.6 101.412 204.712 101.412 206.12V215H99.2519V206.36C99.2519 205.416 98.9959 204.688 98.4839 204.176C97.9879 203.648 97.3079 203.384 96.4439 203.384C95.5479 203.384 94.8359 203.664 94.3079 204.224C93.7959 204.784 93.5399 205.576 93.5399 206.6V215H91.3799ZM105.771 215V201.8H107.931V204.32H108.387L107.931 204.824C107.931 203.784 108.243 202.984 108.867 202.424C109.491 201.848 110.355 201.56 111.459 201.56C112.787 201.56 113.843 201.968 114.627 202.784C115.411 203.6 115.803 204.712 115.803 206.12V215H113.643V206.36C113.643 205.416 113.387 204.696 112.875 204.2C112.379 203.688 111.699 203.432 110.835 203.432C109.939 203.432 109.227 203.704 108.699 204.248C108.187 204.792 107.931 205.576 107.931 206.6V215H105.771ZM119.993 215V213.032H124.673V203.768H120.593V201.8H126.833V213.032H131.273V215H119.993ZM125.513 199.424C124.985 199.424 124.569 199.288 124.265 199.016C123.961 198.744 123.809 198.376 123.809 197.912C123.809 197.432 123.961 197.056 124.265 196.784C124.569 196.496 124.985 196.352 125.513 196.352C126.041 196.352 126.457 196.496 126.761 196.784C127.065 197.056 127.217 197.432 127.217 197.912C127.217 198.376 127.065 198.744 126.761 199.016C126.457 199.288 126.041 199.424 125.513 199.424ZM139.64 215.24C138.584 215.24 137.656 215.04 136.856 214.64C136.072 214.24 135.464 213.664 135.032 212.912C134.6 212.144 134.384 211.24 134.384 210.2V206.6C134.384 205.544 134.6 204.64 135.032 203.888C135.464 203.136 136.072 202.56 136.856 202.16C137.656 201.76 138.584 201.56 139.64 201.56C141.16 201.56 142.384 201.968 143.312 202.784C144.24 203.6 144.728 204.712 144.776 206.12H142.616C142.568 205.272 142.28 204.624 141.752 204.176C141.24 203.712 140.536 203.48 139.64 203.48C138.696 203.48 137.944 203.752 137.384 204.296C136.824 204.824 136.544 205.584 136.544 206.576V210.2C136.544 211.192 136.824 211.96 137.384 212.504C137.944 213.048 138.696 213.32 139.64 213.32C140.536 213.32 141.24 213.088 141.752 212.624C142.28 212.16 142.568 211.512 142.616 210.68H144.776C144.728 212.088 144.24 213.2 143.312 214.016C142.384 214.832 141.16 215.24 139.64 215.24ZM152.782 215.24C151.39 215.24 150.294 214.888 149.494 214.184C148.694 213.464 148.294 212.496 148.294 211.28C148.294 210.048 148.694 209.08 149.494 208.376C150.294 207.672 151.374 207.32 152.734 207.32H156.814V206C156.814 205.184 156.566 204.56 156.07 204.128C155.59 203.68 154.902 203.456 154.006 203.456C153.222 203.456 152.566 203.624 152.038 203.96C151.51 204.28 151.206 204.72 151.126 205.28H148.966C149.11 204.144 149.646 203.24 150.574 202.568C151.502 201.896 152.662 201.56 154.054 201.56C155.574 201.56 156.774 201.952 157.654 202.736C158.534 203.52 158.974 204.584 158.974 205.928V215H156.862V212.48H156.502L156.862 212.12C156.862 213.08 156.486 213.84 155.734 214.4C154.998 214.96 154.014 215.24 152.782 215.24ZM153.31 213.536C154.334 213.536 155.174 213.28 155.83 212.768C156.486 212.256 156.814 211.6 156.814 210.8V208.928H152.782C152.062 208.928 151.494 209.128 151.078 209.528C150.662 209.928 150.454 210.472 150.454 211.16C150.454 211.896 150.702 212.48 151.198 212.912C151.71 213.328 152.414 213.536 153.31 213.536ZM170.125 215C169.357 215 168.685 214.848 168.109 214.544C167.533 214.24 167.085 213.808 166.765 213.248C166.445 212.688 166.285 212.032 166.285 211.28V199.448H161.845V197.48H168.445V211.28C168.445 211.824 168.597 212.256 168.901 212.576C169.205 212.88 169.613 213.032 170.125 213.032H174.325V215H170.125Z" fill="white"/>
<path d="M80.88 253.2V257.76H102.16V253.2H80.88ZM72.56 246.8H111.04V264.24H72.56V246.8ZM86.88 284.16V288.96H94.88V284.16H86.88ZM80.16 277.84H102V295.28H80.16V277.84ZM51.36 228.08H60.24V243.2H66.96V252H60.24V263.92L65.52 262.48L66.72 271.04L60.24 273.04V292C60.24 294.187 60 295.947 59.52 297.28C59.0933 298.613 58.2667 299.653 57.04 300.4C55.8133 301.147 54.2933 301.627 52.48 301.84C50.6667 302.107 48.48 302.24 45.92 302.24C45.76 301.013 45.44 299.52 44.96 297.76C44.48 296.053 43.9467 294.56 43.36 293.28C44.8 293.333 46.16 293.36 47.44 293.36C48.72 293.36 49.6 293.333 50.08 293.28C50.9333 293.28 51.36 292.827 51.36 291.92V275.68L43.76 277.84L41.68 268.64C43.0667 268.32 44.56 267.973 46.16 267.6C47.8133 267.173 49.5467 266.72 51.36 266.24V252H42.64V243.2H51.36V228.08ZM84.24 230.24L93.28 227.92C93.8667 229.093 94.48 230.4 95.12 231.84C95.8133 233.28 96.4 234.64 96.88 235.92H116.88V244H68.08V235.92H86.56C86.1867 234.96 85.8133 234 85.44 233.04C85.0667 232.027 84.6667 231.093 84.24 230.24ZM67.92 267.12H114.48V294.96C114.48 296.773 114.293 298.24 113.92 299.36C113.547 300.48 112.8 301.333 111.68 301.92C110.56 302.56 109.227 302.933 107.68 303.04C106.187 303.147 104.427 303.2 102.4 303.2C102.24 302.08 101.947 300.8 101.52 299.36C101.093 297.973 100.64 296.773 100.16 295.76C101.12 295.813 102.053 295.84 102.96 295.84C103.867 295.84 104.507 295.84 104.88 295.84C105.467 295.84 105.76 295.547 105.76 294.96V274.88H76.48V303.2H67.92V267.12ZM159.04 232.64H187.84V289.44C187.84 291.627 187.92 292.827 188.08 293.04C188.347 293.36 188.64 293.52 188.96 293.52C189.173 293.52 189.387 293.52 189.6 293.52C189.867 293.52 190.107 293.52 190.32 293.52C190.8 293.52 191.147 293.36 191.36 293.04C191.573 292.773 191.76 291.813 191.92 290.16C191.973 289.253 192.027 287.893 192.08 286.08C192.133 284.267 192.16 282.16 192.16 279.76C194.187 281.413 196.48 282.693 199.04 283.6C199.04 285.04 198.987 286.56 198.88 288.16C198.827 289.76 198.72 291.253 198.56 292.64C198.453 294.027 198.32 295.12 198.16 295.92C197.68 298.213 196.8 299.867 195.52 300.88C194.88 301.413 194.107 301.787 193.2 302C192.347 302.213 191.467 302.32 190.56 302.32C189.867 302.32 189.093 302.32 188.24 302.32C187.44 302.32 186.72 302.32 186.08 302.32C185.12 302.32 184.107 302.133 183.04 301.76C182.027 301.387 181.173 300.853 180.48 300.16C180 299.627 179.6 298.987 179.28 298.24C178.96 297.493 178.72 296.48 178.56 295.2C178.4 293.867 178.32 292.053 178.32 289.76V241.68H168.32V258.56C168.32 261.973 168.16 265.653 167.84 269.6C167.52 273.547 166.88 277.547 165.92 281.6C165.013 285.6 163.653 289.467 161.84 293.2C160.08 296.88 157.76 300.16 154.88 303.04C154.4 302.453 153.707 301.76 152.8 300.96C151.893 300.16 150.96 299.36 150 298.56C149.04 297.813 148.187 297.253 147.44 296.88C150.107 294.213 152.213 291.307 153.76 288.16C155.307 284.96 156.453 281.68 157.2 278.32C158 274.907 158.507 271.52 158.72 268.16C158.933 264.8 159.04 261.6 159.04 258.56V232.64ZM135.44 228H144.64V244.56H155.04V253.6H144.64V258.4C145.333 259.093 146.213 260.08 147.28 261.36C148.4 262.64 149.547 264 150.72 265.44C151.893 266.827 152.96 268.107 153.92 269.28C154.933 270.453 155.627 271.307 156 271.84L150.56 279.6C149.92 278.32 149.067 276.8 148 275.04C146.933 273.227 145.813 271.413 144.64 269.6V303.12H135.44V271.12C134.16 274.693 132.72 278.08 131.12 281.28C129.573 284.427 127.92 287.12 126.16 289.36C125.733 288.027 125.04 286.507 124.08 284.8C123.173 283.04 122.347 281.573 121.6 280.4C123.36 278.267 125.04 275.733 126.64 272.8C128.24 269.867 129.68 266.747 130.96 263.44C132.293 260.08 133.387 256.8 134.24 253.6H123.6V244.56H135.44V228Z" fill="white"/>
<path d="M728.6 294L651.95 217.35L681.35 187.95L758 264.6L728.6 294ZM535.4 294L506 264.6L602.6 168L578.8 144.2L569 154L551.15 136.15V164.85L541.35 174.65L499 132.3L508.8 122.5H537.5L520 105L569.7 55.3001C574.367 50.6334 579.383 47.2501 584.75 45.1501C590.117 43.0501 595.6 42.0001 601.2 42.0001C606.8 42.0001 612.283 43.0501 617.65 45.1501C623.017 47.2501 628.033 50.6334 632.7 55.3001L600.5 87.5001L618 105L608.2 114.8L632 138.6L663.5 107.1C662.567 104.533 661.808 101.85 661.225 99.0501C660.642 96.2501 660.35 93.4501 660.35 90.6501C660.35 76.8834 665.075 65.2751 674.525 55.8251C683.975 46.3751 695.583 41.6501 709.35 41.6501C712.85 41.6501 716.175 42.0001 719.325 42.7001C722.475 43.4001 725.683 44.4501 728.95 45.8501L694.3 80.5001L719.5 105.7L754.15 71.0501C755.783 74.3168 756.892 77.5251 757.475 80.6751C758.058 83.8251 758.35 87.1501 758.35 90.6501C758.35 104.417 753.625 116.025 744.175 125.475C734.725 134.925 723.117 139.65 709.35 139.65C706.55 139.65 703.75 139.417 700.95 138.95C698.15 138.483 695.467 137.667 692.9 136.5L535.4 294Z" fill="url(#paint1_radial_1_48)"/>
</g>
<defs>
<radialGradient id="paint0_radial_1_48" cx="0" cy="0" r="1" gradientUnits="userSpaceOnUse" gradientTransform="translate(400 49) rotate(90) scale(341 811.905)">
<stop/>
<stop offset="1" stop-color="#132B1D"/>
</radialGradient>
<radialGradient id="paint1_radial_1_48" cx="0" cy="0" r="1" gradientUnits="userSpaceOnUse" gradientTransform="translate(707.921 83.7084) rotate(135.005) scale(369.655 344.174)">
<stop stop-color="white" stop-opacity="0.5"/>
<stop offset="0.563345" stop-color="white" stop-opacity="0.07"/>
<stop offset="0.813671" stop-color="white" stop-opacity="0"/>
</radialGradient>
<clipPath id="clip0_1_48">
<rect width="800" height="336" fill="white"/>
</clipPath>
</defs>
</svg>
