<svg width="900" height="135" viewBox="0 0 900 135" fill="none" xmlns="http://www.w3.org/2000/svg">
<rect width="900" height="135" rx="30" fill="url(#paint0_radial_99_66)"/>
<path d="M128.272 85.5V50.22H133.6V80.892H145.456V85.5H128.272ZM160 85.884C159.136 85.884 158.256 85.804 157.36 85.644C156.496 85.484 155.68 85.196 154.912 84.78C154.144 84.364 153.456 83.836 152.848 83.196C152.272 82.524 151.792 81.804 151.408 81.036C151.056 80.236 150.8 79.404 150.64 78.54C150.512 77.644 150.448 76.764 150.448 75.9V70.14C150.448 69.276 150.512 68.412 150.64 67.548C150.8 66.652 151.056 65.82 151.408 65.052C151.792 64.252 152.272 63.532 152.848 62.892C153.456 62.22 154.144 61.676 154.912 61.26C155.68 60.844 156.496 60.556 157.36 60.396C158.256 60.236 159.136 60.156 160 60.156C160.864 60.156 161.728 60.236 162.592 60.396C163.488 60.556 164.32 60.844 165.088 61.26C165.856 61.676 166.528 62.22 167.104 62.892C167.712 63.532 168.192 64.252 168.544 65.052C168.928 65.82 169.184 66.652 169.312 67.548C169.472 68.412 169.552 69.276 169.552 70.14V75.9C169.552 76.764 169.472 77.644 169.312 78.54C169.184 79.404 168.928 80.236 168.544 81.036C168.192 81.804 167.712 82.524 167.104 83.196C166.528 83.836 165.856 84.364 165.088 84.78C164.32 85.196 163.488 85.484 162.592 85.644C161.728 85.804 160.864 85.884 160 85.884ZM160 81.276C160.64 81.276 161.248 81.132 161.824 80.844C162.432 80.556 162.912 80.14 163.264 79.596C163.648 79.052 163.904 78.46 164.032 77.82C164.16 77.18 164.224 76.54 164.224 75.9V70.14C164.224 69.5 164.16 68.86 164.032 68.22C163.904 67.58 163.648 66.988 163.264 66.444C162.912 65.9 162.432 65.484 161.824 65.196C161.248 64.908 160.64 64.764 160 64.764C159.36 64.764 158.736 64.908 158.128 65.196C157.552 65.484 157.072 65.9 156.688 66.444C156.336 66.988 156.096 67.58 155.968 68.22C155.84 68.86 155.776 69.5 155.776 70.14V75.9C155.776 76.54 155.84 77.18 155.968 77.82C156.096 78.46 156.336 79.052 156.688 79.596C157.072 80.14 157.552 80.556 158.128 80.844C158.736 81.132 159.36 81.276 160 81.276ZM183.904 96.204C183.168 96.204 182.432 96.156 181.696 96.06C180.992 95.964 180.288 95.788 179.584 95.532C178.912 95.276 178.272 94.94 177.664 94.524C177.056 94.108 176.528 93.596 176.08 92.988C175.664 92.412 175.328 91.756 175.072 91.02C174.848 90.316 174.736 89.612 174.736 88.908H180.064C180.096 89.324 180.224 89.724 180.448 90.108C180.704 90.492 181.008 90.796 181.36 91.02C181.744 91.244 182.144 91.388 182.56 91.452C183.008 91.548 183.456 91.596 183.904 91.596C184.544 91.596 185.136 91.436 185.68 91.116C186.256 90.796 186.704 90.364 187.024 89.82C187.344 89.308 187.552 88.732 187.648 88.092C187.776 87.484 187.84 86.86 187.84 86.22V81.132C187.584 81.804 187.264 82.444 186.88 83.052C186.496 83.628 186.032 84.14 185.488 84.588C184.944 85.036 184.32 85.356 183.616 85.548C182.912 85.772 182.208 85.884 181.504 85.884C180.736 85.884 179.984 85.756 179.248 85.5C178.512 85.276 177.856 84.908 177.28 84.396C176.704 83.852 176.224 83.244 175.84 82.572C175.488 81.9 175.2 81.196 174.976 80.46C174.784 79.724 174.64 78.972 174.544 78.204C174.48 77.436 174.448 76.668 174.448 75.9V70.14C174.448 69.372 174.48 68.604 174.544 67.836C174.64 67.068 174.784 66.316 174.976 65.58C175.2 64.844 175.488 64.14 175.84 63.468C176.224 62.796 176.704 62.204 177.28 61.692C177.856 61.148 178.512 60.764 179.248 60.54C179.984 60.284 180.736 60.156 181.504 60.156C182.208 60.156 182.912 60.268 183.616 60.492C184.32 60.684 184.944 61.004 185.488 61.452C186.032 61.9 186.496 62.428 186.88 63.036C187.264 63.612 187.584 64.236 187.84 64.908V60.54H193.168V86.22C193.168 87.084 193.104 87.932 192.976 88.764C192.848 89.628 192.608 90.46 192.256 91.26C191.904 92.06 191.44 92.78 190.864 93.42C190.288 94.092 189.616 94.636 188.848 95.052C188.112 95.468 187.312 95.756 186.448 95.916C185.616 96.108 184.768 96.204 183.904 96.204ZM183.808 81.276C184.448 81.276 185.056 81.132 185.632 80.844C186.208 80.524 186.656 80.092 186.976 79.548C187.296 79.004 187.52 78.428 187.648 77.82C187.776 77.18 187.84 76.54 187.84 75.9V70.14C187.84 69.5 187.776 68.876 187.648 68.268C187.52 67.628 187.296 67.036 186.976 66.492C186.656 65.948 186.208 65.532 185.632 65.244C185.056 64.924 184.448 64.764 183.808 64.764C183.168 64.764 182.56 64.924 181.984 65.244C181.408 65.532 180.96 65.948 180.64 66.492C180.32 67.036 180.096 67.628 179.968 68.268C179.84 68.876 179.776 69.5 179.776 70.14V75.9C179.776 76.54 179.84 77.18 179.968 77.82C180.096 78.428 180.32 79.004 180.64 79.548C180.96 80.092 181.408 80.524 181.984 80.844C182.56 81.132 183.168 81.276 183.808 81.276ZM208 85.884C207.136 85.884 206.256 85.804 205.36 85.644C204.496 85.484 203.68 85.196 202.912 84.78C202.144 84.364 201.456 83.836 200.848 83.196C200.272 82.524 199.792 81.804 199.408 81.036C199.056 80.236 198.8 79.404 198.64 78.54C198.512 77.644 198.448 76.764 198.448 75.9V70.14C198.448 69.276 198.512 68.412 198.64 67.548C198.8 66.652 199.056 65.82 199.408 65.052C199.792 64.252 200.272 63.532 200.848 62.892C201.456 62.22 202.144 61.676 202.912 61.26C203.68 60.844 204.496 60.556 205.36 60.396C206.256 60.236 207.136 60.156 208 60.156C208.864 60.156 209.728 60.236 210.592 60.396C211.488 60.556 212.32 60.844 213.088 61.26C213.856 61.676 214.528 62.22 215.104 62.892C215.712 63.532 216.192 64.252 216.544 65.052C216.928 65.82 217.184 66.652 217.312 67.548C217.472 68.412 217.552 69.276 217.552 70.14V75.9C217.552 76.764 217.472 77.644 217.312 78.54C217.184 79.404 216.928 80.236 216.544 81.036C216.192 81.804 215.712 82.524 215.104 83.196C214.528 83.836 213.856 84.364 213.088 84.78C212.32 85.196 211.488 85.484 210.592 85.644C209.728 85.804 208.864 85.884 208 85.884ZM208 81.276C208.64 81.276 209.248 81.132 209.824 80.844C210.432 80.556 210.912 80.14 211.264 79.596C211.648 79.052 211.904 78.46 212.032 77.82C212.16 77.18 212.224 76.54 212.224 75.9V70.14C212.224 69.5 212.16 68.86 212.032 68.22C211.904 67.58 211.648 66.988 211.264 66.444C210.912 65.9 210.432 65.484 209.824 65.196C209.248 64.908 208.64 64.764 208 64.764C207.36 64.764 206.736 64.908 206.128 65.196C205.552 65.484 205.072 65.9 204.688 66.444C204.336 66.988 204.096 67.58 203.968 68.22C203.84 68.86 203.776 69.5 203.776 70.14V75.9C203.776 76.54 203.84 77.18 203.968 77.82C204.096 78.46 204.336 79.052 204.688 79.596C205.072 80.14 205.552 80.556 206.128 80.844C206.736 81.132 207.36 81.276 208 81.276ZM232 73.836C231.36 73.836 230.736 73.756 230.128 73.596C229.52 73.404 228.992 73.084 228.544 72.636C228.096 72.188 227.776 71.66 227.584 71.052C227.424 70.444 227.344 69.82 227.344 69.18C227.344 68.54 227.424 67.916 227.584 67.308C227.776 66.7 228.096 66.172 228.544 65.724C228.992 65.276 229.52 64.972 230.128 64.812C230.736 64.62 231.36 64.524 232 64.524C232.64 64.524 233.264 64.62 233.872 64.812C234.48 64.972 235.008 65.276 235.456 65.724C235.904 66.172 236.208 66.7 236.368 67.308C236.56 67.916 236.656 68.54 236.656 69.18C236.656 69.82 236.56 70.444 236.368 71.052C236.208 71.66 235.904 72.188 235.456 72.636C235.008 73.084 234.48 73.404 233.872 73.596C233.264 73.756 232.64 73.836 232 73.836ZM255.28 75.324L261.04 77.148C259.792 79.164 258.208 81.1 256.288 82.956C254.4 84.812 252.528 86.348 250.672 87.564C250.32 87.212 249.856 86.78 249.28 86.268C248.736 85.756 248.16 85.26 247.552 84.78C246.976 84.3 246.464 83.916 246.016 83.628C247.84 82.668 249.584 81.452 251.248 79.98C252.944 78.476 254.288 76.924 255.28 75.324ZM274.288 77.724L279.184 75.276C280.208 76.14 281.296 77.1 282.448 78.156C283.6 79.212 284.704 80.268 285.76 81.324C286.816 82.38 287.68 83.356 288.352 84.252L283.12 87.036C282.544 86.204 281.76 85.244 280.768 84.156C279.776 83.036 278.704 81.916 277.552 80.796C276.432 79.676 275.344 78.652 274.288 77.724ZM260.848 44.7H266.8C266.672 46.492 266.48 48.252 266.224 49.98H279.52V59.388C279.52 60.092 279.584 60.54 279.712 60.732C279.872 60.892 280.208 60.972 280.72 60.972C280.976 60.972 281.424 60.972 282.064 60.972C282.736 60.972 283.216 60.972 283.504 60.972C283.856 60.972 284.112 60.86 284.272 60.636C284.464 60.412 284.608 59.948 284.704 59.244C284.8 58.508 284.864 57.42 284.896 55.98C285.44 56.428 286.224 56.86 287.248 57.276C288.304 57.692 289.216 57.996 289.984 58.188C289.792 60.332 289.472 61.996 289.024 63.18C288.608 64.364 288 65.196 287.2 65.676C286.432 66.124 285.408 66.348 284.128 66.348C283.808 66.348 283.36 66.348 282.784 66.348C282.208 66.348 281.632 66.348 281.056 66.348C280.512 66.348 280.08 66.348 279.76 66.348C278.192 66.348 276.96 66.14 276.064 65.724C275.2 65.308 274.592 64.604 274.24 63.612C273.888 62.62 273.712 61.26 273.712 59.532V55.452H264.832C264.16 57.34 263.184 59.068 261.904 60.636C260.656 62.172 258.976 63.548 256.864 64.764C254.784 65.948 252.16 66.972 248.992 67.836C248.736 67.132 248.288 66.316 247.648 65.388C247.04 64.428 246.448 63.676 245.872 63.132C249.392 62.3 252.128 61.244 254.08 59.964C256.032 58.684 257.488 57.18 258.448 55.452H248.368V49.98H260.224C260.384 49.148 260.512 48.3 260.608 47.436C260.704 46.54 260.784 45.628 260.848 44.7ZM247.072 68.844H264.64V65.1H270.832V68.844H288.976V74.22H270.832V83.58C270.832 85.02 270.64 86.14 270.256 86.94C269.904 87.772 269.232 88.396 268.24 88.812C267.248 89.228 266.064 89.484 264.688 89.58C263.344 89.708 261.776 89.772 259.984 89.772C259.856 88.94 259.6 87.996 259.216 86.94C258.832 85.884 258.432 84.972 258.016 84.204C259.136 84.236 260.256 84.268 261.376 84.3C262.528 84.3 263.28 84.284 263.632 84.252C264.016 84.252 264.272 84.204 264.4 84.108C264.56 84.012 264.64 83.804 264.64 83.484V74.22H247.072V68.844ZM295.456 46.572H336.64V89.82H330.832V88.092H300.976V89.82H295.456V46.572ZM304.768 78.828L307.36 75.084C309.568 75.308 311.872 75.644 314.272 76.092C316.672 76.508 318.976 76.988 321.184 77.532C323.424 78.076 325.36 78.62 326.992 79.164L324.544 83.052H330.832V68.412C330.352 68.924 329.872 69.516 329.392 70.188C328.912 70.86 328.544 71.468 328.288 72.012C326.208 71.564 324.144 70.988 322.096 70.284C320.08 69.548 318.144 68.716 316.288 67.788C315.68 68.108 315.04 68.428 314.368 68.748C313.696 69.036 313.04 69.324 312.4 69.612C314.32 70.028 316.304 70.556 318.352 71.196C320.4 71.804 322.112 72.412 323.488 73.02L321.136 76.572C320.208 76.124 319.056 75.66 317.68 75.18C316.336 74.668 314.912 74.188 313.408 73.74C311.936 73.292 310.528 72.94 309.184 72.684L310.96 70.188C308.336 71.18 305.696 71.996 303.04 72.636C302.848 72.092 302.56 71.452 302.176 70.716C301.792 69.98 301.392 69.324 300.976 68.748V83.052H323.92C322.32 82.476 320.432 81.916 318.256 81.372C316.112 80.828 313.856 80.332 311.488 79.884C309.152 79.404 306.912 79.052 304.768 78.828ZM311.392 51.708H300.976V67.884C304.496 67.212 307.936 66.204 311.296 64.86C310.688 64.412 310.096 63.964 309.52 63.516C308.976 63.068 308.432 62.604 307.888 62.124C307.376 62.54 306.88 62.924 306.4 63.276C305.92 63.628 305.44 63.964 304.96 64.284C304.544 63.804 303.936 63.212 303.136 62.508C302.368 61.804 301.712 61.244 301.168 60.828C303.12 59.74 305.024 58.396 306.88 56.796C308.736 55.164 310.24 53.468 311.392 51.708ZM311.92 51.708L316.192 53.196C315.968 53.548 315.712 53.916 315.424 54.3C315.136 54.684 314.848 55.052 314.56 55.404H325.12L325.936 55.164L329.152 57.084C328.16 58.556 326.976 59.964 325.6 61.308C324.256 62.62 322.768 63.836 321.136 64.956C322.64 65.532 324.208 66.044 325.84 66.492C327.504 66.94 329.168 67.324 330.832 67.644V51.708H311.92ZM316.096 62.652C316.96 62.204 317.792 61.724 318.592 61.212C319.392 60.7 320.128 60.172 320.8 59.628H311.536C312.816 60.716 314.336 61.724 316.096 62.652ZM352 73.836C351.36 73.836 350.736 73.756 350.128 73.596C349.52 73.404 348.992 73.084 348.544 72.636C348.096 72.188 347.776 71.66 347.584 71.052C347.424 70.444 347.344 69.82 347.344 69.18C347.344 68.54 347.424 67.916 347.584 67.308C347.776 66.7 348.096 66.172 348.544 65.724C348.992 65.276 349.52 64.972 350.128 64.812C350.736 64.62 351.36 64.524 352 64.524C352.64 64.524 353.264 64.62 353.872 64.812C354.48 64.972 355.008 65.276 355.456 65.724C355.904 66.172 356.208 66.7 356.368 67.308C356.56 67.916 356.656 68.54 356.656 69.18C356.656 69.82 356.56 70.444 356.368 71.052C356.208 71.66 355.904 72.188 355.456 72.636C355.008 73.084 354.48 73.404 353.872 73.596C353.264 73.756 352.64 73.836 352 73.836ZM385.024 45.372H391.312V82.572C391.312 84.332 391.088 85.66 390.64 86.556C390.192 87.484 389.424 88.188 388.336 88.668C387.216 89.116 385.808 89.404 384.112 89.532C382.448 89.692 380.448 89.756 378.112 89.724C377.952 88.892 377.632 87.884 377.152 86.7C376.704 85.548 376.256 84.572 375.808 83.772C376.864 83.804 377.92 83.836 378.976 83.868C380.032 83.9 380.976 83.916 381.808 83.916C382.64 83.884 383.232 83.868 383.584 83.868C384.128 83.868 384.496 83.772 384.688 83.58C384.912 83.388 385.024 83.052 385.024 82.572V45.372ZM396.544 57.996L402.208 55.884C403.52 58.156 404.784 60.588 406 63.18C407.248 65.74 408.336 68.268 409.264 70.764C410.224 73.228 410.912 75.468 411.328 77.484L404.992 79.98C404.672 78.028 404.08 75.788 403.216 73.26C402.384 70.732 401.376 68.14 400.192 65.484C399.04 62.828 397.824 60.332 396.544 57.996ZM372.448 56.412L378.976 57.516C378.432 59.916 377.776 62.444 377.008 65.1C376.24 67.724 375.328 70.252 374.272 72.684C373.248 75.116 372.064 77.228 370.72 79.02C370.016 78.508 369.088 77.964 367.936 77.388C366.816 76.78 365.856 76.316 365.056 75.996C366.368 74.364 367.504 72.428 368.464 70.188C369.456 67.916 370.288 65.58 370.96 63.18C371.632 60.748 372.128 58.492 372.448 56.412ZM416.8 48.828L420.496 45.324C421.36 46.028 422.288 46.812 423.28 47.676C424.272 48.54 425.216 49.404 426.112 50.268C427.008 51.132 427.728 51.916 428.272 52.62L424.336 56.604C423.824 55.868 423.136 55.052 422.272 54.156C421.44 53.228 420.544 52.3 419.584 51.372C418.624 50.444 417.696 49.596 416.8 48.828ZM413.68 59.532H424.96V77.772L429.088 74.268C429.344 75.036 429.68 75.9 430.096 76.86C430.544 77.788 430.928 78.524 431.248 79.068C429.04 80.956 427.232 82.492 425.824 83.676C424.448 84.86 423.36 85.804 422.56 86.508C421.76 87.212 421.168 87.756 420.784 88.14C420.4 88.524 420.112 88.86 419.92 89.148C419.76 88.668 419.504 88.108 419.152 87.468C418.832 86.86 418.48 86.268 418.096 85.692C417.712 85.116 417.36 84.636 417.04 84.252C417.584 83.868 418.112 83.276 418.624 82.476C419.168 81.644 419.44 80.668 419.44 79.548V65.052H413.68V59.532ZM434.512 46.284H451.744V56.796C451.744 57.5 451.792 57.996 451.888 58.284C452.016 58.572 452.256 58.716 452.608 58.716C452.864 58.716 453.264 58.716 453.808 58.716C454.352 58.716 454.768 58.716 455.056 58.716C455.44 58.716 455.888 58.7 456.4 58.668C456.912 58.604 457.328 58.524 457.648 58.428C457.712 59.132 457.776 59.948 457.84 60.876C457.904 61.772 458 62.54 458.128 63.18C457.744 63.34 457.28 63.452 456.736 63.516C456.224 63.548 455.696 63.564 455.152 63.564C454.768 63.564 454.24 63.564 453.568 63.564C452.896 63.564 452.384 63.564 452.032 63.564C450.464 63.564 449.264 63.324 448.432 62.844C447.6 62.364 447.04 61.628 446.752 60.636C446.464 59.612 446.32 58.3 446.32 56.7V51.612H439.888C439.888 53.212 439.664 54.86 439.216 56.556C438.8 58.22 437.984 59.788 436.768 61.26C435.552 62.732 433.792 63.996 431.488 65.052C431.264 64.668 430.912 64.204 430.432 63.66C429.984 63.084 429.504 62.54 428.992 62.028C428.512 61.484 428.08 61.084 427.696 60.828C429.744 59.964 431.248 59.02 432.208 57.996C433.168 56.972 433.792 55.9 434.08 54.78C434.368 53.66 434.512 52.556 434.512 51.468V46.284ZM448.624 70.908H437.056C438.592 73.596 440.56 75.916 442.96 77.868C444.144 76.908 445.2 75.852 446.128 74.7C447.088 73.548 447.92 72.284 448.624 70.908ZM430.288 65.58H451.456L452.416 65.34L455.968 66.828C455.072 69.836 453.92 72.508 452.512 74.844C451.104 77.148 449.456 79.18 447.568 80.94C449.2 81.804 450.944 82.556 452.8 83.196C454.688 83.836 456.688 84.348 458.8 84.732C458.192 85.34 457.536 86.14 456.832 87.132C456.16 88.156 455.648 89.068 455.296 89.868C450.56 88.716 446.4 86.94 442.816 84.54C440.896 85.724 438.832 86.732 436.624 87.564C434.416 88.428 432.08 89.148 429.616 89.724C429.392 88.988 429.024 88.124 428.512 87.132C428 86.14 427.488 85.34 426.976 84.732C429.088 84.348 431.104 83.852 433.024 83.244C434.944 82.604 436.736 81.836 438.4 80.94C435.776 78.316 433.568 75.212 431.776 71.628L433.888 70.908H430.288V65.58ZM465.52 48.924L469.216 45.18C470.112 45.852 471.072 46.62 472.096 47.484C473.12 48.316 474.096 49.164 475.024 50.028C475.984 50.86 476.752 51.628 477.328 52.332L473.44 56.508C472.896 55.804 472.176 55.004 471.28 54.108C470.384 53.212 469.424 52.316 468.4 51.42C467.408 50.492 466.448 49.66 465.52 48.924ZM461.824 59.532H474.688V78.108L479.584 74.652C479.744 75.484 480.016 76.428 480.4 77.484C480.784 78.54 481.12 79.372 481.408 79.98C478.976 81.74 476.992 83.18 475.456 84.3C473.952 85.42 472.768 86.316 471.904 86.988C471.04 87.66 470.4 88.188 469.984 88.572C469.568 88.956 469.248 89.292 469.024 89.58C468.896 89.068 468.656 88.476 468.304 87.804C467.984 87.132 467.632 86.46 467.248 85.788C466.864 85.148 466.512 84.62 466.192 84.204C466.736 83.852 467.312 83.292 467.92 82.524C468.528 81.756 468.832 80.828 468.832 79.74V65.244H461.824V59.532ZM489.136 44.94H495.328V59.868H506.416V65.868H495.328V89.82H489.136V65.868H477.616V59.868H489.136V44.94Z" fill="white"/>
<path d="M841.09 69.9167H811.667V65.0833H841.09L827.556 51.55L831 48.1667L850.333 67.5L831 86.8333L827.556 83.45L841.09 69.9167Z" fill="white"/>
<g opacity="0.8">
<mask id="mask0_99_66" style="mask-type:alpha" maskUnits="userSpaceOnUse" x="40" y="35" width="64" height="64">
<rect x="40" y="35" width="64" height="64" fill="#D9D9D9"/>
</mask>
<g mask="url(#mask0_99_66)">
<path d="M53.3333 91C51.8667 91 50.6111 90.4778 49.5667 89.4334C48.5222 88.3889 48 87.1333 48 85.6667V48.3333C48 46.8667 48.5222 45.6111 49.5667 44.5667C50.6111 43.5222 51.8667 43 53.3333 43H90.6667C92.1333 43 93.3889 43.5222 94.4333 44.5667C95.4778 45.6111 96 46.8667 96 48.3333V85.6667C96 87.1333 95.4778 88.3889 94.4333 89.4334C93.3889 90.4778 92.1333 91 90.6667 91H53.3333ZM53.3333 85.6667H90.6667V48.3333H53.3333V85.6667ZM56 80.3333H88L78 67L70 77.6667L64 69.6667L56 80.3333Z" fill="white"/>
</g>
</g>
<defs>
<radialGradient id="paint0_radial_99_66" cx="0" cy="0" r="1" gradientUnits="userSpaceOnUse" gradientTransform="translate(450 19.6875) rotate(90) scale(137.009 913.393)">
<stop/>
<stop offset="1" stop-color="#221264"/>
</radialGradient>
</defs>
</svg>
