<svg width="800" height="336" viewBox="0 0 800 336" fill="none" xmlns="http://www.w3.org/2000/svg">
<g clip-path="url(#clip0_27_39)">
<rect width="800" height="336" fill="url(#paint0_radial_27_39)"/>
<path opacity="0.8" d="M47.584 215V201.8H49.48V203.384H49.912L49.576 203.96C49.576 203.224 49.768 202.64 50.152 202.208C50.552 201.776 51.088 201.56 51.76 201.56C52.496 201.56 53.064 201.832 53.464 202.376C53.864 202.92 54.064 203.688 54.064 204.68L53.416 203.384H54.424L53.968 203.96C53.968 203.224 54.168 202.64 54.568 202.208C54.984 201.776 55.528 201.56 56.2 201.56C57.032 201.56 57.672 201.872 58.12 202.496C58.584 203.12 58.816 203.944 58.816 204.968V215H56.824V204.944C56.824 204.4 56.704 203.976 56.464 203.672C56.24 203.368 55.904 203.216 55.456 203.216C55.024 203.216 54.68 203.368 54.424 203.672C54.184 203.96 54.064 204.376 54.064 204.92V215H52.336V204.944C52.336 204.384 52.208 203.96 51.952 203.672C51.712 203.368 51.368 203.216 50.92 203.216C50.472 203.216 50.136 203.368 49.912 203.672C49.688 203.96 49.576 204.376 49.576 204.92V215H47.584ZM62.4306 215V213.032H67.1106V203.768H63.0306V201.8H69.2706V213.032H73.7106V215H62.4306ZM67.9506 199.424C67.4226 199.424 67.0066 199.288 66.7026 199.016C66.3986 198.744 66.2466 198.376 66.2466 197.912C66.2466 197.432 66.3986 197.056 66.7026 196.784C67.0066 196.496 67.4226 196.352 67.9506 196.352C68.4786 196.352 68.8946 196.496 69.1986 196.784C69.5026 197.056 69.6546 197.432 69.6546 197.912C69.6546 198.376 69.5026 198.744 69.1986 199.016C68.8946 199.288 68.4786 199.424 67.9506 199.424ZM81.5733 215.192C80.6773 215.192 79.8933 215.056 79.2213 214.784C78.5653 214.496 78.0373 214.096 77.6373 213.584C77.2533 213.072 77.0213 212.464 76.9413 211.76H79.1013C79.1973 212.224 79.4533 212.592 79.8693 212.864C80.3013 213.136 80.8693 213.272 81.5733 213.272H82.5813C83.4293 213.272 84.0613 213.104 84.4773 212.768C84.8933 212.416 85.1013 211.952 85.1013 211.376C85.1013 210.816 84.9093 210.376 84.5253 210.056C84.1573 209.72 83.6053 209.496 82.8693 209.384L81.0933 209.096C79.7973 208.872 78.8293 208.472 78.1893 207.896C77.5653 207.304 77.2533 206.448 77.2533 205.328C77.2533 204.144 77.6293 203.232 78.3813 202.592C79.1333 201.936 80.2613 201.608 81.7653 201.608H82.6773C83.9413 201.608 84.9573 201.904 85.7253 202.496C86.4933 203.088 86.9573 203.888 87.1172 204.896H84.9573C84.8613 204.48 84.6213 204.152 84.2373 203.912C83.8533 203.656 83.3333 203.528 82.6773 203.528H81.7653C80.9493 203.528 80.3493 203.68 79.9653 203.984C79.5973 204.288 79.4133 204.744 79.4133 205.352C79.4133 205.896 79.5733 206.296 79.8933 206.552C80.2133 206.808 80.7173 206.992 81.4053 207.104L83.1813 207.392C84.6053 207.616 85.6373 208.032 86.2773 208.64C86.9333 209.248 87.2613 210.128 87.2613 211.28C87.2613 212.496 86.8693 213.456 86.0853 214.16C85.3173 214.848 84.1493 215.192 82.5813 215.192H81.5733ZM96.4679 215.24C95.4119 215.24 94.4839 215.04 93.6839 214.64C92.8999 214.24 92.2919 213.664 91.8599 212.912C91.4279 212.144 91.2119 211.24 91.2119 210.2V206.6C91.2119 205.544 91.4279 204.64 91.8599 203.888C92.2919 203.136 92.8999 202.56 93.6839 202.16C94.4839 201.76 95.4119 201.56 96.4679 201.56C97.9879 201.56 99.2119 201.968 100.14 202.784C101.068 203.6 101.556 204.712 101.604 206.12H99.4439C99.3959 205.272 99.1079 204.624 98.5799 204.176C98.0679 203.712 97.3639 203.48 96.4679 203.48C95.5239 203.48 94.7719 203.752 94.2119 204.296C93.6519 204.824 93.3719 205.584 93.3719 206.576V210.2C93.3719 211.192 93.6519 211.96 94.2119 212.504C94.7719 213.048 95.5239 213.32 96.4679 213.32C97.3639 213.32 98.0679 213.088 98.5799 212.624C99.1079 212.16 99.3959 211.512 99.4439 210.68H101.604C101.556 212.088 101.068 213.2 100.14 214.016C99.2119 214.832 97.9879 215.24 96.4679 215.24ZM105.003 217.4V215.6H116.523V217.4H105.003ZM126.593 215C125.457 215 124.569 214.696 123.929 214.088C123.305 213.48 122.993 212.624 122.993 211.52V203.768H119.273V201.8H122.993V198.08H125.153V201.8H130.433V203.768H125.153V211.52C125.153 212.528 125.633 213.032 126.593 213.032H130.193V215H126.593ZM138.392 215.24C137 215.24 135.904 214.888 135.104 214.184C134.304 213.464 133.904 212.496 133.904 211.28C133.904 210.048 134.304 209.08 135.104 208.376C135.904 207.672 136.984 207.32 138.344 207.32H142.424V206C142.424 205.184 142.176 204.56 141.68 204.128C141.2 203.68 140.512 203.456 139.616 203.456C138.832 203.456 138.176 203.624 137.648 203.96C137.12 204.28 136.816 204.72 136.736 205.28H134.576C134.72 204.144 135.256 203.24 136.184 202.568C137.112 201.896 138.272 201.56 139.664 201.56C141.184 201.56 142.384 201.952 143.264 202.736C144.144 203.52 144.584 204.584 144.584 205.928V215H142.472V212.48H142.112L142.472 212.12C142.472 213.08 142.096 213.84 141.344 214.4C140.608 214.96 139.624 215.24 138.392 215.24ZM138.92 213.536C139.944 213.536 140.784 213.28 141.44 212.768C142.096 212.256 142.424 211.6 142.424 210.8V208.928H138.392C137.672 208.928 137.104 209.128 136.688 209.528C136.272 209.928 136.064 210.472 136.064 211.16C136.064 211.896 136.312 212.48 136.808 212.912C137.32 213.328 138.024 213.536 138.92 213.536ZM155.734 215C154.966 215 154.294 214.848 153.718 214.544C153.142 214.24 152.694 213.808 152.374 213.248C152.054 212.688 151.894 212.032 151.894 211.28V199.448H147.454V197.48H154.054V211.28C154.054 211.824 154.206 212.256 154.51 212.576C154.814 212.88 155.222 213.032 155.734 213.032H159.934V215H155.734ZM163.405 215V197.48H165.565V207.248H168.109L171.949 201.8H174.421L169.981 208.088L174.493 215H171.973L168.133 209.12H165.565V215H163.405Z" fill="white"/>
<path d="M58.8 279.04L68.4 282.08C66.32 285.44 63.68 288.667 60.48 291.76C57.3333 294.853 54.2133 297.413 51.12 299.44C50.5333 298.853 49.76 298.133 48.8 297.28C47.8933 296.427 46.9333 295.6 45.92 294.8C44.96 294 44.1067 293.36 43.36 292.88C46.4 291.28 49.3067 289.253 52.08 286.8C54.9067 284.293 57.1467 281.707 58.8 279.04ZM90.48 283.04L98.64 278.96C100.347 280.4 102.16 282 104.08 283.76C106 285.52 107.84 287.28 109.6 289.04C111.36 290.8 112.8 292.427 113.92 293.92L105.2 298.56C104.24 297.173 102.933 295.573 101.28 293.76C99.6267 291.893 97.84 290.027 95.92 288.16C94.0533 286.293 92.24 284.587 90.48 283.04ZM68.08 228H78C77.7867 230.987 77.4667 233.92 77.04 236.8H99.2V252.48C99.2 253.653 99.3067 254.4 99.52 254.72C99.7867 254.987 100.347 255.12 101.2 255.12C101.627 255.12 102.373 255.12 103.44 255.12C104.56 255.12 105.36 255.12 105.84 255.12C106.427 255.12 106.853 254.933 107.12 254.56C107.44 254.187 107.68 253.413 107.84 252.24C108 251.013 108.107 249.2 108.16 246.8C109.067 247.547 110.373 248.267 112.08 248.96C113.84 249.653 115.36 250.16 116.64 250.48C116.32 254.053 115.787 256.827 115.04 258.8C114.347 260.773 113.333 262.16 112 262.96C110.72 263.707 109.013 264.08 106.88 264.08C106.347 264.08 105.6 264.08 104.64 264.08C103.68 264.08 102.72 264.08 101.76 264.08C100.853 264.08 100.133 264.08 99.6 264.08C96.9867 264.08 94.9333 263.733 93.44 263.04C92 262.347 90.9867 261.173 90.4 259.52C89.8133 257.867 89.52 255.6 89.52 252.72V245.92H74.72C73.6 249.067 71.9733 251.947 69.84 254.56C67.76 257.12 64.96 259.413 61.44 261.44C57.9733 263.413 53.6 265.12 48.32 266.56C47.8933 265.387 47.1467 264.027 46.08 262.48C45.0667 260.88 44.08 259.627 43.12 258.72C48.9867 257.333 53.5467 255.573 56.8 253.44C60.0533 251.307 62.48 248.8 64.08 245.92H47.28V236.8H67.04C67.3067 235.413 67.52 234 67.68 232.56C67.84 231.067 67.9733 229.547 68.08 228ZM45.12 268.24H74.4V262H84.72V268.24H114.96V277.2H84.72V292.8C84.72 295.2 84.4 297.067 83.76 298.4C83.1733 299.787 82.0533 300.827 80.4 301.52C78.7467 302.213 76.7733 302.64 74.48 302.8C72.24 303.013 69.6267 303.12 66.64 303.12C66.4267 301.733 66 300.16 65.36 298.4C64.72 296.64 64.0533 295.12 63.36 293.84C65.2267 293.893 67.0933 293.947 68.96 294C70.88 294 72.1333 293.973 72.72 293.92C73.36 293.92 73.7867 293.84 74 293.68C74.2667 293.52 74.4 293.173 74.4 292.64V277.2H45.12V268.24ZM154.32 232.64L162.56 234.4C161.973 237.067 161.067 239.84 159.84 242.72C158.667 245.547 157.307 247.973 155.76 250L147.68 246.88C149.067 245.227 150.347 243.093 151.52 240.48C152.693 237.867 153.627 235.253 154.32 232.64ZM153.6 268L162.24 269.6C161.707 272.373 160.88 275.28 159.76 278.32C158.64 281.307 157.387 283.84 156 285.92L147.6 282.24C148.88 280.587 150.053 278.453 151.12 275.84C152.24 273.173 153.067 270.56 153.6 268ZM186.08 232.48L195.76 235.52C194.16 238.027 192.507 240.507 190.8 242.96C189.093 245.36 187.547 247.413 186.16 249.12L178.72 246.32C180 244.453 181.333 242.213 182.72 239.6C184.107 236.987 185.227 234.613 186.08 232.48ZM128.24 235.28L135.28 229.84C136.56 230.907 137.92 232.08 139.36 233.36C140.8 234.64 142.16 235.92 143.44 237.2C144.72 238.427 145.76 239.547 146.56 240.56L139.12 246.56C138.427 245.547 137.467 244.4 136.24 243.12C135.013 241.787 133.68 240.427 132.24 239.04C130.853 237.653 129.52 236.4 128.24 235.28ZM167.36 228H176.88C176.773 231.627 176.56 234.987 176.24 238.08C175.973 241.173 175.493 244.027 174.8 246.64C177.307 247.867 179.867 249.227 182.48 250.72C185.147 252.213 187.653 253.707 190 255.2C192.4 256.693 194.373 258.08 195.92 259.36L189.76 266.56C188.48 265.387 186.853 264.133 184.88 262.8C182.907 261.413 180.773 260 178.48 258.56C176.187 257.12 173.893 255.76 171.6 254.48C169.893 257.253 167.52 259.68 164.48 261.76C161.493 263.84 157.547 265.6 152.64 267.04C152.16 265.867 151.387 264.507 150.32 262.96C149.307 261.413 148.32 260.187 147.36 259.28C151.947 258.053 155.547 256.56 158.16 254.8C160.827 253.04 162.773 250.907 164 248.4C165.28 245.893 166.107 242.96 166.48 239.6C166.907 236.24 167.2 232.373 167.36 228ZM167.44 261.84H176.96C176.907 264.08 176.8 266.213 176.64 268.24C176.533 270.213 176.347 272.133 176.08 274C176.987 277.093 178.133 279.84 179.52 282.24C180.853 280.16 182.187 277.76 183.52 275.04C184.853 272.267 185.947 269.733 186.8 267.44L196.72 270.56C195.173 273.28 193.547 276 191.84 278.72C190.133 281.44 188.56 283.733 187.12 285.6L180.08 283.04C182 285.973 184.48 288.453 187.52 290.48C190.56 292.453 194.32 293.84 198.8 294.64C197.787 295.6 196.747 296.907 195.68 298.56C194.613 300.213 193.787 301.653 193.2 302.88C188.133 301.6 183.92 299.653 180.56 297.04C177.253 294.48 174.56 291.253 172.48 287.36C170.667 290.933 168 293.973 164.48 296.48C160.96 298.987 156.107 301.093 149.92 302.8C149.493 301.573 148.747 300.133 147.68 298.48C146.613 296.827 145.573 295.52 144.56 294.56C149.84 293.333 153.973 291.813 156.96 290C160 288.187 162.24 285.973 163.68 283.36C165.12 280.747 166.053 277.68 166.48 274.16C166.96 270.64 167.28 266.533 167.44 261.84ZM123.04 252.72H142.64V283.68L146.16 280.96C146.533 282.24 147.013 283.707 147.6 285.36C148.24 286.96 148.827 288.213 149.36 289.12C146.48 291.413 144.107 293.333 142.24 294.88C140.427 296.373 138.987 297.573 137.92 298.48C136.907 299.44 136.133 300.187 135.6 300.72C135.067 301.307 134.64 301.813 134.32 302.24C133.947 301.28 133.227 300.107 132.16 298.72C131.147 297.333 130.267 296.293 129.52 295.6C130.427 294.907 131.333 293.813 132.24 292.32C133.147 290.827 133.6 289.013 133.6 286.88V261.92H123.04V252.72Z" fill="white"/>
<path d="M548 196H660V168H548V196ZM548 154H716V126H548V154ZM548 112H716V84H548V112ZM632 308L594.55 252H520C512.3 252 505.708 249.258 500.225 243.775C494.742 238.292 492 231.7 492 224V56C492 48.3 494.742 41.7083 500.225 36.225C505.708 30.7417 512.3 28 520 28H744C751.7 28 758.292 30.7417 763.775 36.225C769.258 41.7083 772 48.3 772 56V224C772 231.7 769.258 238.292 763.775 243.775C758.292 249.258 751.7 252 744 252H669.45L632 308ZM632 257.6L654.4 224H744V56H520V224H609.6L632 257.6Z" fill="url(#paint1_radial_27_39)"/>
</g>
<defs>
<radialGradient id="paint0_radial_27_39" cx="0" cy="0" r="1" gradientUnits="userSpaceOnUse" gradientTransform="translate(400 49) rotate(90) scale(341 811.905)">
<stop/>
<stop offset="1" stop-color="#303013"/>
</radialGradient>
<radialGradient id="paint1_radial_27_39" cx="0" cy="0" r="1" gradientUnits="userSpaceOnUse" gradientTransform="translate(717.556 74.6666) rotate(134.221) scale(404.66 376.627)">
<stop stop-color="white" stop-opacity="0.5"/>
<stop offset="0.563345" stop-color="white" stop-opacity="0.07"/>
<stop offset="0.813671" stop-color="white" stop-opacity="0"/>
</radialGradient>
<clipPath id="clip0_27_39">
<rect width="800" height="336" fill="white"/>
</clipPath>
</defs>
</svg>
