<svg width="900" height="135" viewBox="0 0 900 135" fill="none" xmlns="http://www.w3.org/2000/svg">
<rect width="900" height="135" rx="30" fill="url(#paint0_radial_10_292)"/>
<path d="M135.28 89.772C135.184 89.292 134.992 88.732 134.704 88.092C134.448 87.452 134.16 86.812 133.84 86.172C133.52 85.564 133.2 85.068 132.88 84.684C133.424 84.396 133.968 83.948 134.512 83.34C135.056 82.732 135.328 81.9 135.328 80.844V77.34C133.12 78.524 130.928 79.516 128.752 80.316C128.336 79.644 127.76 78.844 127.024 77.916C126.288 76.988 125.616 76.236 125.008 75.66C127.696 74.828 130.4 73.724 133.12 72.348C135.84 70.94 138.24 69.404 140.32 67.74H126.688V62.844H144.976V60.156H131.152V55.596H144.976V53.052H128.752V48.204H144.976V44.7H150.784V48.204H167.584V53.052H150.784V55.596H165.712V60.156H150.784V62.844H169.216V67.74H152.992C153.952 70.108 155.2 72.284 156.736 74.268C158.016 73.404 159.296 72.476 160.576 71.484C161.856 70.492 162.944 69.548 163.84 68.652L168.64 72.204C167.264 73.196 165.824 74.188 164.32 75.18C162.848 76.14 161.408 77.02 160 77.82C161.472 79.1 163.12 80.236 164.944 81.228C166.768 82.22 168.752 83.02 170.896 83.628C170.288 84.236 169.616 85.036 168.88 86.028C168.144 87.02 167.552 87.9 167.104 88.668C162.112 86.972 158.048 84.396 154.912 80.94C151.808 77.484 149.344 73.26 147.52 68.268C145.664 70.188 143.6 71.964 141.328 73.596V81.756L151.696 78.924C151.76 79.724 151.888 80.636 152.08 81.66C152.304 82.652 152.496 83.452 152.656 84.06C149.232 85.084 146.448 85.916 144.304 86.556C142.192 87.228 140.544 87.756 139.36 88.14C138.176 88.524 137.28 88.828 136.672 89.052C136.096 89.308 135.632 89.548 135.28 89.772ZM174.016 83.532H179.2V73.116C178.944 72.732 178.56 72.284 178.048 71.772C177.536 71.26 177.008 70.764 176.464 70.284C175.92 69.804 175.44 69.436 175.024 69.18C176.368 68.348 177.44 67.452 178.24 66.492C179.072 65.5 179.696 64.492 180.112 63.468H174.256V58.524H181.216L181.264 56.508V48.204H191.968C192.224 47.564 192.48 46.892 192.736 46.188C192.992 45.484 193.184 44.86 193.312 44.316L199.648 45.372L198.256 48.204H212.128V58.524H218.128V63.468H212.128V66.588C212.128 67.804 211.968 68.764 211.648 69.468C211.36 70.172 210.768 70.716 209.872 71.1C208.976 71.484 207.92 71.724 206.704 71.82C205.488 71.884 204.032 71.916 202.336 71.916C202.24 71.276 202.032 70.524 201.712 69.66C201.424 68.796 201.104 68.044 200.752 67.404L198.112 70.86C197.536 70.412 196.784 69.916 195.856 69.372C194.96 68.828 193.984 68.3 192.928 67.788C191.904 67.276 190.928 66.844 190 66.492L192.448 63.468H186.112C185.696 65.164 184.992 66.828 184 68.46C183.04 70.06 181.696 71.468 179.968 72.684H213.088V83.532H217.984V88.476H174.016V83.532ZM190.672 55.932L193.216 52.716H186.928V56.652L186.88 58.524H196.144C195.312 58.044 194.4 57.58 193.408 57.132C192.448 56.652 191.536 56.252 190.672 55.932ZM206.368 52.716H193.6C194.944 53.132 196.352 53.708 197.824 54.444C199.296 55.148 200.48 55.836 201.376 56.508L199.84 58.524H206.368V52.716ZM206.368 63.468H193.6C194.88 63.98 196.208 64.572 197.584 65.244C198.992 65.916 200.112 66.556 200.944 67.164L205.504 67.212C206.08 67.18 206.368 66.94 206.368 66.492V63.468ZM184.528 83.532H188.656V77.1H184.528V83.532ZM193.888 83.532H198.016V77.1H193.888V83.532ZM203.296 83.532H207.472V77.1H203.296V83.532Z" fill="white"/>
<path d="M841.09 69.9166H811.667V65.0833H841.09L827.556 51.55L831 48.1666L850.333 67.5L831 86.8333L827.556 83.45L841.09 69.9166Z" fill="white"/>
<g opacity="0.8">
<path d="M64 93.6667L60.4 81.5334C58.2667 79.8445 56.5556 77.7334 55.2667 75.2C53.9778 72.6667 53.3333 69.9334 53.3333 67C53.3333 64.0667 53.9778 61.3334 55.2667 58.8C56.5556 56.2667 58.2667 54.1556 60.4 52.4667L64 40.3334H80L83.6 52.4667C85.7333 54.1556 87.4445 56.2667 88.7333 58.8C90.0222 61.3334 90.6667 64.0667 90.6667 67C90.6667 69.9334 90.0222 72.6667 88.7333 75.2C87.4445 77.7334 85.7333 79.8445 83.6 81.5334L80 93.6667H64ZM72 80.3334C75.6889 80.3334 78.8333 79.0334 81.4333 76.4334C84.0333 73.8334 85.3333 70.6889 85.3333 67C85.3333 63.3111 84.0333 60.1667 81.4333 57.5667C78.8333 54.9667 75.6889 53.6667 72 53.6667C68.3111 53.6667 65.1667 54.9667 62.5667 57.5667C59.9667 60.1667 58.6667 63.3111 58.6667 67C58.6667 70.6889 59.9667 73.8334 62.5667 76.4334C65.1667 79.0334 68.3111 80.3334 72 80.3334ZM66.9333 49C67.8222 48.7778 68.6778 48.6 69.5 48.4667C70.3222 48.3334 71.1556 48.2667 72 48.2667C72.8445 48.2667 73.6778 48.3334 74.5 48.4667C75.3222 48.6 76.1778 48.7778 77.0667 49L76 45.6667H68L66.9333 49ZM68 88.3334H76L77.0667 85C76.1778 85.2223 75.3222 85.3889 74.5 85.5C73.6778 85.6111 72.8445 85.6667 72 85.6667C71.1556 85.6667 70.3222 85.6111 69.5 85.5C68.6778 85.3889 67.8222 85.2223 66.9333 85L68 88.3334Z" fill="white"/>
</g>
<defs>
<radialGradient id="paint0_radial_10_292" cx="0" cy="0" r="1" gradientUnits="userSpaceOnUse" gradientTransform="translate(450 19.6875) rotate(90) scale(137.009 913.393)">
<stop/>
<stop offset="1" stop-color="#252E33"/>
</radialGradient>
</defs>
</svg>
