<svg width="900" height="135" viewBox="0 0 900 135" fill="none" xmlns="http://www.w3.org/2000/svg">
<rect width="900" height="135" rx="30" fill="url(#paint0_radial_52_84)"/>
<path d="M144.784 46.86H168.592V72.444H162.784V51.852H150.304V72.444H144.784V46.86ZM153.76 54.636H159.28V62.412C159.28 63.916 159.184 65.516 158.992 67.212C158.832 68.876 158.512 70.572 158.032 72.3H161.152V83.292C161.152 83.932 161.248 84.38 161.44 84.636C161.632 84.86 161.968 84.972 162.448 84.972H164.704C165.12 84.972 165.424 84.78 165.616 84.396C165.84 83.98 166 83.212 166.096 82.092C166.224 80.972 166.304 79.372 166.336 77.292C166.976 77.804 167.712 78.252 168.544 78.636C169.376 78.988 170.128 79.244 170.8 79.404C170.64 81.9 170.384 83.868 170.032 85.308C169.712 86.716 169.136 87.708 168.304 88.284C167.504 88.892 166.288 89.196 164.656 89.196H161.344C159.392 89.196 157.984 88.828 157.12 88.092C156.256 87.388 155.824 86.012 155.824 83.964V78.06C154.672 80.3 153.136 82.428 151.216 84.444C149.296 86.46 146.864 88.252 143.92 89.82C143.696 89.436 143.36 88.972 142.912 88.428C142.464 87.884 142 87.34 141.52 86.796C141.04 86.284 140.608 85.9 140.224 85.644C143.296 84.044 145.728 82.284 147.52 80.364C149.344 78.412 150.704 76.396 151.6 74.316C152.496 72.236 153.072 70.172 153.328 68.124C153.616 66.076 153.76 64.124 153.76 62.268V54.636ZM130.24 47.292L134.752 44.796C135.616 45.692 136.448 46.716 137.248 47.868C138.08 48.988 138.688 49.996 139.072 50.892L135.952 52.764H139.456L140.464 52.572L143.488 54.636C142.24 58.284 140.56 61.804 138.448 65.196C139.056 65.836 139.744 66.604 140.512 67.5C141.312 68.396 142.032 69.228 142.672 69.996C143.344 70.764 143.808 71.308 144.064 71.628L140.512 76.14C139.68 74.668 138.592 72.956 137.248 71.004V89.772H131.776V73.788C131.072 74.492 130.368 75.148 129.664 75.756C128.992 76.332 128.304 76.892 127.6 77.436C127.472 76.86 127.264 76.188 126.976 75.42C126.72 74.62 126.432 73.852 126.112 73.116C125.824 72.38 125.568 71.82 125.344 71.436C127.552 69.996 129.664 68.076 131.68 65.676C133.696 63.244 135.36 60.668 136.672 57.948H126.592V52.764H133.888C133.472 51.9 132.928 50.972 132.256 49.98C131.584 48.988 130.912 48.092 130.24 47.292ZM177.04 66.204L181.792 67.212C181.312 69.228 180.656 71.212 179.824 73.164C178.992 75.116 178.112 76.748 177.184 78.06C176.736 77.676 176.08 77.228 175.216 76.716C174.352 76.172 173.632 75.756 173.056 75.468C173.984 74.284 174.784 72.876 175.456 71.244C176.128 69.58 176.656 67.9 177.04 66.204ZM197.632 56.508H203.632C203.888 55.868 204.144 55.196 204.4 54.492C204.656 53.788 204.88 53.084 205.072 52.38H196.576V47.388H217.936V52.38H210.448L208.768 56.508H216.976V78.924H211.984V60.732H202.384V79.116H197.632V56.508ZM204.928 62.604H209.584C209.584 66.796 209.488 70.396 209.296 73.404C209.104 76.412 208.592 78.972 207.76 81.084L209.776 79.068C210.768 79.772 211.84 80.572 212.992 81.468C214.144 82.332 215.248 83.196 216.304 84.06C217.36 84.924 218.224 85.708 218.896 86.412L215.584 89.916C215.008 89.244 214.24 88.476 213.28 87.612C212.32 86.748 211.296 85.884 210.208 85.02C209.12 84.124 208.08 83.292 207.088 82.524C206.16 84.348 204.832 85.852 203.104 87.036C201.376 88.22 199.056 89.228 196.144 90.06C195.952 89.42 195.584 88.684 195.04 87.852C194.528 87.052 194.032 86.412 193.552 85.932C195.792 85.356 197.616 84.684 199.024 83.916C200.464 83.148 201.584 82.188 202.384 81.036C203.184 79.884 203.76 78.476 204.112 76.812C204.464 75.116 204.688 73.116 204.784 70.812C204.88 68.476 204.928 65.74 204.928 62.604ZM191.488 66.828L196.384 67.884C195.52 71.916 194.24 75.356 192.544 78.204C190.88 81.02 188.704 83.372 186.016 85.26C183.36 87.148 180.08 88.716 176.176 89.964C175.92 89.228 175.52 88.428 174.976 87.564C174.432 86.732 173.888 86.044 173.344 85.5C176.128 84.796 178.56 83.884 180.64 82.764C182.752 81.612 184.544 80.204 186.016 78.54H182.752V63.996H173.44V58.956H176.32V48.876H180.832V58.956H183.904V44.7H188.944V49.836H195.136V54.492H188.944V58.956H196.24V63.996H187.984V75.9C189.552 73.404 190.72 70.38 191.488 66.828Z" fill="white"/>
<path d="M841.09 69.9167H811.667V65.0834H841.09L827.556 51.55L831 48.1667L850.333 67.5L831 86.8334L827.556 83.45L841.09 69.9167Z" fill="white"/>
<g opacity="0.8">
<path d="M59.1241 42.353L67.7706 50.9986H76.2266L84.8756 42.353C85.9172 41.3116 87.6055 41.3116 88.6468 42.353C89.6884 43.3944 89.6884 45.0828 88.6468 46.1242L83.7706 50.9986L89.3332 51C94.4879 51 98.6666 55.1787 98.6666 60.3334V81.6667C98.6666 86.8213 94.4879 91 89.3332 91H54.6666C49.5119 91 45.3333 86.8213 45.3333 81.6667V60.3334C45.3333 55.1787 49.5119 51 54.6666 51L60.2266 50.9986L55.3529 46.1242C54.3115 45.0828 54.3115 43.3944 55.3529 42.353C56.3943 41.3116 58.0827 41.3116 59.1241 42.353ZM89.3332 56.3334H54.6666C52.5874 56.3334 50.8787 57.9197 50.6849 59.9481L50.6666 60.3334V81.6667C50.6666 83.7459 52.253 85.4547 54.2814 85.6483L54.6666 85.6667H89.3332C91.4124 85.6667 93.121 84.0803 93.3148 82.052L93.3332 81.6667V60.3334C93.3332 58.1242 91.5423 56.3334 89.3332 56.3334ZM61.3333 64.3333C62.806 64.3333 63.9999 65.5272 63.9999 67V72.3333C63.9999 73.8061 62.806 75 61.3333 75C59.8605 75 58.6666 73.8061 58.6666 72.3333V67C58.6666 65.5272 59.8605 64.3333 61.3333 64.3333ZM82.6666 64.3333C84.1394 64.3333 85.3332 65.5272 85.3332 67V72.3333C85.3332 73.8061 84.1394 75 82.6666 75C81.1938 75 79.9999 73.8061 79.9999 72.3333V67C79.9999 65.5272 81.1938 64.3333 82.6666 64.3333Z" fill="white"/>
</g>
<defs>
<radialGradient id="paint0_radial_52_84" cx="0" cy="0" r="1" gradientUnits="userSpaceOnUse" gradientTransform="translate(450 19.6875) rotate(90) scale(137.009 913.393)">
<stop/>
<stop offset="1" stop-color="#2B1323"/>
</radialGradient>
</defs>
</svg>
