<svg width="800" height="336" viewBox="0 0 800 336" fill="none" xmlns="http://www.w3.org/2000/svg">
<g clip-path="url(#clip0_1_36)">
<rect width="800" height="336" fill="url(#paint0_radial_1_36)"/>
<path opacity="0.8" d="M52.432 215.24C51.12 215.24 50.056 214.8 49.24 213.92C48.44 213.04 48.04 211.848 48.04 210.344V206.48C48.04 204.96 48.44 203.76 49.24 202.88C50.04 202 51.104 201.56 52.432 201.56C53.52 201.56 54.392 201.856 55.048 202.448C55.704 203.04 56.032 203.832 56.032 204.824L55.6 204.32H56.08L56.032 201.32V197.48H58.192V215H56.032V212.48H55.6L56.032 211.976C56.032 212.984 55.704 213.784 55.048 214.376C54.392 214.952 53.52 215.24 52.432 215.24ZM53.152 213.368C54.048 213.368 54.752 213.088 55.264 212.528C55.776 211.968 56.032 211.192 56.032 210.2V206.6C56.032 205.608 55.776 204.832 55.264 204.272C54.752 203.712 54.048 203.432 53.152 203.432C52.24 203.432 51.52 203.704 50.992 204.248C50.464 204.792 50.2 205.576 50.2 206.6V210.2C50.2 211.224 50.464 212.008 50.992 212.552C51.52 213.096 52.24 213.368 53.152 213.368ZM67.5906 215.24C66.5506 215.24 65.6386 215.032 64.8546 214.616C64.0866 214.2 63.4866 213.616 63.0546 212.864C62.6386 212.096 62.4306 211.208 62.4306 210.2V206.6C62.4306 205.576 62.6386 204.688 63.0546 203.936C63.4866 203.184 64.0866 202.6 64.8546 202.184C65.6386 201.768 66.5506 201.56 67.5906 201.56C68.6306 201.56 69.5346 201.768 70.3026 202.184C71.0866 202.6 71.6866 203.184 72.1026 203.936C72.5346 204.688 72.7506 205.576 72.7506 206.6V208.928H64.5426V210.2C64.5426 211.24 64.8066 212.04 65.3346 212.6C65.8626 213.144 66.6146 213.416 67.5906 213.416C68.4226 213.416 69.0946 213.272 69.6066 212.984C70.1186 212.68 70.4306 212.232 70.5426 211.64H72.7026C72.5586 212.744 72.0146 213.624 71.0706 214.28C70.1426 214.92 68.9826 215.24 67.5906 215.24ZM70.6386 207.488V206.6C70.6386 205.56 70.3746 204.76 69.8466 204.2C69.3346 203.64 68.5826 203.36 67.5906 203.36C66.6146 203.36 65.8626 203.64 65.3346 204.2C64.8066 204.76 64.5426 205.56 64.5426 206.6V207.296H70.8066L70.6386 207.488ZM81.5733 215.192C80.6773 215.192 79.8933 215.056 79.2213 214.784C78.5653 214.496 78.0373 214.096 77.6373 213.584C77.2533 213.072 77.0213 212.464 76.9413 211.76H79.1013C79.1973 212.224 79.4533 212.592 79.8693 212.864C80.3013 213.136 80.8693 213.272 81.5733 213.272H82.5813C83.4293 213.272 84.0613 213.104 84.4773 212.768C84.8933 212.416 85.1013 211.952 85.1013 211.376C85.1013 210.816 84.9093 210.376 84.5253 210.056C84.1573 209.72 83.6053 209.496 82.8693 209.384L81.0933 209.096C79.7973 208.872 78.8293 208.472 78.1893 207.896C77.5653 207.304 77.2533 206.448 77.2533 205.328C77.2533 204.144 77.6293 203.232 78.3813 202.592C79.1333 201.936 80.2613 201.608 81.7653 201.608H82.6773C83.9413 201.608 84.9573 201.904 85.7253 202.496C86.4933 203.088 86.9573 203.888 87.1172 204.896H84.9573C84.8613 204.48 84.6213 204.152 84.2373 203.912C83.8533 203.656 83.3333 203.528 82.6773 203.528H81.7653C80.9493 203.528 80.3493 203.68 79.9653 203.984C79.5973 204.288 79.4133 204.744 79.4133 205.352C79.4133 205.896 79.5733 206.296 79.8933 206.552C80.2133 206.808 80.7173 206.992 81.4053 207.104L83.1813 207.392C84.6053 207.616 85.6373 208.032 86.2773 208.64C86.9333 209.248 87.2613 210.128 87.2613 211.28C87.2613 212.496 86.8693 213.456 86.0853 214.16C85.3173 214.848 84.1493 215.192 82.5813 215.192H81.5733ZM91.2119 215V213.032H95.8919V203.768H91.8119V201.8H98.0519V213.032H102.492V215H91.2119ZM96.7319 199.424C96.2039 199.424 95.7879 199.288 95.4839 199.016C95.1799 198.744 95.0279 198.376 95.0279 197.912C95.0279 197.432 95.1799 197.056 95.4839 196.784C95.7879 196.496 96.2039 196.352 96.7319 196.352C97.2599 196.352 97.6759 196.496 97.9799 196.784C98.2839 197.056 98.4359 197.432 98.4359 197.912C98.4359 198.376 98.2839 198.744 97.9799 199.016C97.6759 199.288 97.2599 199.424 96.7319 199.424ZM107.427 219.32V217.352H111.627C112.299 217.352 112.787 217.2 113.091 216.896C113.411 216.592 113.571 216.12 113.571 215.48V213.8L113.619 211.4H113.187L113.595 211.04C113.595 212 113.275 212.76 112.635 213.32C111.995 213.88 111.139 214.16 110.067 214.16C108.707 214.16 107.635 213.72 106.851 212.84C106.067 211.944 105.675 210.744 105.675 209.24V206.456C105.675 204.952 106.067 203.76 106.851 202.88C107.635 202 108.707 201.56 110.067 201.56C111.139 201.56 111.995 201.84 112.635 202.4C113.275 202.96 113.595 203.72 113.595 204.68L113.187 204.32H113.595V201.8H115.731V215.48C115.731 216.664 115.363 217.6 114.627 218.288C113.907 218.976 112.899 219.32 111.603 219.32H107.427ZM110.715 212.288C111.611 212.288 112.315 212.008 112.827 211.448C113.339 210.888 113.595 210.112 113.595 209.12V206.6C113.595 205.608 113.339 204.832 112.827 204.272C112.315 203.712 111.611 203.432 110.715 203.432C109.803 203.432 109.091 203.704 108.579 204.248C108.083 204.792 107.835 205.576 107.835 206.6V209.12C107.835 210.144 108.083 210.928 108.579 211.472C109.091 212.016 109.803 212.288 110.715 212.288ZM120.161 215V201.8H122.321V204.32H122.777L122.321 204.824C122.321 203.784 122.633 202.984 123.257 202.424C123.881 201.848 124.745 201.56 125.849 201.56C127.177 201.56 128.233 201.968 129.017 202.784C129.801 203.6 130.193 204.712 130.193 206.12V215H128.033V206.36C128.033 205.416 127.777 204.696 127.265 204.2C126.769 203.688 126.089 203.432 125.225 203.432C124.329 203.432 123.617 203.704 123.089 204.248C122.577 204.792 122.321 205.576 122.321 206.6V215H120.161Z" fill="white"/>
<path d="M48 234.88L54.16 229.04C55.6 230.213 57.1467 231.52 58.8 232.96C60.4533 234.4 62.0267 235.84 63.52 237.28C65.0133 238.72 66.2133 240.027 67.12 241.2L60.56 247.84C59.7067 246.613 58.56 245.253 57.12 243.76C55.7333 242.213 54.24 240.667 52.64 239.12C51.04 237.573 49.4933 236.16 48 234.88ZM42.8 252.72H61.6V283.12L68.48 277.28C68.9067 278.56 69.4667 280 70.16 281.6C70.9067 283.147 71.5467 284.373 72.08 285.28C68.4 288.427 65.3867 290.987 63.04 292.96C60.7467 294.933 58.9333 296.507 57.6 297.68C56.2667 298.853 55.28 299.76 54.64 300.4C54 301.04 53.52 301.6 53.2 302.08C52.9333 301.28 52.5067 300.347 51.92 299.28C51.3867 298.267 50.8 297.28 50.16 296.32C49.52 295.36 48.9333 294.56 48.4 293.92C49.3067 293.28 50.1867 292.293 51.04 290.96C51.9467 289.573 52.4 287.947 52.4 286.08V261.92H42.8V252.72ZM77.52 230.64H106.24V248.16C106.24 249.333 106.32 250.16 106.48 250.64C106.693 251.12 107.093 251.36 107.68 251.36C108.107 251.36 108.773 251.36 109.68 251.36C110.587 251.36 111.28 251.36 111.76 251.36C112.4 251.36 113.147 251.333 114 251.28C114.853 251.173 115.547 251.04 116.08 250.88C116.187 252.053 116.293 253.413 116.4 254.96C116.507 256.453 116.667 257.733 116.88 258.8C116.24 259.067 115.467 259.253 114.56 259.36C113.707 259.413 112.827 259.44 111.92 259.44C111.28 259.44 110.4 259.44 109.28 259.44C108.16 259.44 107.307 259.44 106.72 259.44C104.107 259.44 102.107 259.04 100.72 258.24C99.3333 257.44 98.4 256.213 97.92 254.56C97.44 252.853 97.2 250.667 97.2 248V239.52H86.48C86.48 242.187 86.1067 244.933 85.36 247.76C84.6667 250.533 83.3067 253.147 81.28 255.6C79.2533 258.053 76.32 260.16 72.48 261.92C72.1067 261.28 71.52 260.507 70.72 259.6C69.9733 258.64 69.1733 257.733 68.32 256.88C67.52 255.973 66.8 255.307 66.16 254.88C69.5733 253.44 72.08 251.867 73.68 250.16C75.28 248.453 76.32 246.667 76.8 244.8C77.28 242.933 77.52 241.093 77.52 239.28V230.64ZM101.04 271.68H81.76C84.32 276.16 87.6 280.027 91.6 283.28C93.5733 281.68 95.3333 279.92 96.88 278C98.48 276.08 99.8667 273.973 101.04 271.68ZM70.48 262.8H105.76L107.36 262.4L113.28 264.88C111.787 269.893 109.867 274.347 107.52 278.24C105.173 282.08 102.427 285.467 99.28 288.4C102 289.84 104.907 291.093 108 292.16C111.147 293.227 114.48 294.08 118 294.72C116.987 295.733 115.893 297.067 114.72 298.72C113.6 300.427 112.747 301.947 112.16 303.28C104.267 301.36 97.3333 298.4 91.36 294.4C88.16 296.373 84.72 298.053 81.04 299.44C77.36 300.88 73.4667 302.08 69.36 303.04C68.9867 301.813 68.3733 300.373 67.52 298.72C66.6667 297.067 65.8133 295.733 64.96 294.72C68.48 294.08 71.84 293.253 75.04 292.24C78.24 291.173 81.2267 289.893 84 288.4C79.6267 284.027 75.9467 278.853 72.96 272.88L76.48 271.68H70.48V262.8ZM129.2 235.04L135.36 228.8C136.853 229.92 138.453 231.2 140.16 232.64C141.867 234.027 143.493 235.44 145.04 236.88C146.64 238.267 147.92 239.547 148.88 240.72L142.4 247.68C141.493 246.507 140.293 245.173 138.8 243.68C137.307 242.187 135.707 240.693 134 239.2C132.347 237.653 130.747 236.267 129.2 235.04ZM123.04 252.72H144.48V283.68L152.64 277.92C152.907 279.307 153.36 280.88 154 282.64C154.64 284.4 155.2 285.787 155.68 286.8C151.627 289.733 148.32 292.133 145.76 294C143.253 295.867 141.28 297.36 139.84 298.48C138.4 299.6 137.333 300.48 136.64 301.12C135.947 301.76 135.413 302.32 135.04 302.8C134.827 301.947 134.427 300.96 133.84 299.84C133.307 298.72 132.72 297.6 132.08 296.48C131.44 295.413 130.853 294.533 130.32 293.84C131.227 293.253 132.187 292.32 133.2 291.04C134.213 289.76 134.72 288.213 134.72 286.4V262.24H123.04V252.72ZM168.56 228.4H178.88V253.28H197.36V263.28H178.88V303.2H168.56V263.28H149.36V253.28H168.56V228.4Z" fill="white"/>
<path d="M534 266H553.95L690.8 129.15L670.85 109.2L534 246.05V266ZM506 294V234.5L690.8 50.05C693.6 47.4833 696.692 45.5 700.075 44.1C703.458 42.7 707.017 42 710.75 42C714.483 42 718.1 42.7 721.6 44.1C725.1 45.5 728.133 47.6 730.7 50.4L749.95 70C752.75 72.5667 754.792 75.6 756.075 79.1C757.358 82.6 758 86.1 758 89.6C758 93.3333 757.358 96.8917 756.075 100.275C754.792 103.658 752.75 106.75 749.95 109.55L565.5 294H506ZM680.65 119.35L670.85 109.2L690.8 129.15L680.65 119.35Z" fill="url(#paint1_radial_1_36)"/>
</g>
<defs>
<radialGradient id="paint0_radial_1_36" cx="0" cy="0" r="1" gradientUnits="userSpaceOnUse" gradientTransform="translate(400 49) rotate(90) scale(341 811.905)">
<stop/>
<stop offset="1" stop-color="#13152B"/>
</radialGradient>
<radialGradient id="paint1_radial_1_36" cx="0" cy="0" r="1" gradientUnits="userSpaceOnUse" gradientTransform="translate(709 84) rotate(134.221) scale(364.194 338.964)">
<stop stop-color="white" stop-opacity="0.5"/>
<stop offset="0.563345" stop-color="white" stop-opacity="0.07"/>
<stop offset="0.813671" stop-color="white" stop-opacity="0"/>
</radialGradient>
<clipPath id="clip0_1_36">
<rect width="800" height="336" fill="white"/>
</clipPath>
</defs>
</svg>
