<svg width="350" height="250" viewBox="0 0 350 250" fill="none" xmlns="http://www.w3.org/2000/svg">
<path fill-rule="evenodd" clip-rule="evenodd" d="M132.656 45.988H130.664L130.165 46.485L119.206 47.976L116.715 49.4671L121.697 74.8144L122.195 82.2695L118.707 87.2395L115.718 88.7305L110.239 88.2335L106.253 83.2635L99.2788 53.4431H95.2934L84.3336 55.9281L83.3373 56.9222V60.4012L88.8172 84.2575L90.8099 91.7126L92.8026 95.6886L99.2788 102.15L105.257 104.635L111.235 105.629L101.77 111.096L96.6433 115.48L96.7879 115.569L94.7952 117.557L86.3263 109.108L87.634 109.915L86.3263 108.611L83.3373 109.108L81.3446 112.587L76.3629 117.06L69.8867 119.545L65.4031 119.048L62.4141 117.557L59.425 114.575L57.9305 111.593L57.4324 104.635L58.4287 102.15L61.4177 98.6707L67.894 95.6886H77.8574L78.8537 81.7725L77.3592 80.7784L64.9049 80.2814L57.4324 82.2695L47.9671 87.7365L44.4799 91.2156L40.9927 96.6826L39 103.641V112.587L39.9963 117.06L44.4799 126.503L49.9598 131.97L56.436 135.449L61.9159 136.94H71.8793L78.8537 134.952L82.341 132.964L82.8391 133.461L79.3519 141.413L76.3629 151.353L74.3702 163.281L73.872 172.228H75.3665L89.8135 151.353L102.268 137.437L132.656 170.737L132.158 171.731H130.664L121.198 170.737L119.206 168.252H117.213L113.726 170.737L106.751 173.719V176.204L110.239 181.174H113.228L119.206 178.689L123.191 179.186L113.726 189.126L109.242 192.108V194.096L113.228 198.072H115.718L118.707 196.581L126.678 190.617L131.66 185.15L134.649 179.683L136.144 183.162L140.129 201.551L141.623 203.042H145.111L151.587 201.054L152.085 201.551L149.096 205.527V207.515L153.58 210H156.569L160.056 207.018L164.041 201.551L166.034 197.575L167.03 192.605L166.532 191.114L163.045 188.132L164.041 179.186L161.052 178.689L160.056 177.695L154.078 156.323L154.576 155.826L156.07 157.317L168.027 173.222L173.008 178.689L179.983 178.192L186.459 176.701L188.452 174.713L196.92 146.88L197.917 148.868L199.91 182.665L200.906 189.126L202.899 190.617H206.386L224.818 188.629L226.313 187.138L226.811 184.156L217.844 122.527L218.342 115.569L217.346 109.605L215.851 108.114L211.866 107.617L193.433 110.102L190.942 111.096L189.448 112.587L184.466 123.024L175.001 146.88L157.067 127.497L148.1 119.545H141.623L123.689 124.018L122.195 126.006V129.982L123.191 132.964L122.693 134.455L117.648 129.108L117.711 129.485L114.224 126.006L116.715 123.521L116.841 124.276L125.682 117.06L150.59 101.653V100.659L149.594 100.162L130.664 99.6647L135.147 95.1916L138.136 89.7246L139.631 79.2874L137.638 64.8743L134.151 47.976L132.656 45.988ZM130.664 100.162L130.165 99.6647L129.667 100.162H130.664ZM123.689 134.455L122.693 134.952L123.191 135.449L124.187 136.94L123.689 134.455ZM83.3373 133.461L84.8318 130.976L81.8428 132.964L82.8391 132.467L83.3373 133.461Z" fill="white"/>
<path d="M77.8574 95.6886H67.894L61.4177 98.6707L58.4287 102.15L57.4324 104.635L57.9305 111.593L59.425 114.575L62.4141 117.557L65.4031 119.048L69.8867 119.545L76.3629 117.06L81.3446 112.587L83.3373 109.108L77.8574 95.6886Z" fill="white"/>
<path d="M106.751 173.719L113.726 170.737L117.213 168.252H119.206L121.198 170.737L130.664 171.731H132.158L132.656 170.737L102.268 137.437L89.8135 151.353L75.3665 172.228H73.872L74.3702 184.653L79.3519 183.162L96.7879 175.21L97.2861 174.713H99.777L106.751 173.719Z" fill="white"/>
<path d="M211.866 107.617L215.851 108.114L217.346 109.605L228.803 99.1677L223.822 85.7485L222.825 85.2515L220.833 86.7425H218.84L205.644 99.5L211.866 107.617Z" fill="white"/>
<path d="M148.1 119.545L157.067 127.497L175.001 146.88L184.466 123.024L189.448 112.587L190.942 111.096L193.433 110.102L180.979 104.635L177.99 110.599L172.012 116.066L168.525 118.054L161.052 120.539L156.569 120.042L152.085 110.599V108.611L148.1 119.545Z" fill="white"/>
<path d="M297.551 114.078L296.057 114.575L292.569 121.036H289.58L284.101 117.557L277.624 115.569H270.152L263.177 118.551L258.196 124.018L256.203 129.485L255.705 136.443L258.196 142.904L263.675 148.371L272.144 151.353L281.61 150.359L288.086 147.377L292.569 143.898H296.057L297.551 145.389C291.237 132.875 290.844 126.103 297.551 114.078Z" fill="white"/>
<path d="M205.389 99.1677L208.378 62.8862H219.836L220.833 58.9102L221.331 47.976L219.836 46.982L181.477 44L180.979 44.497L179.983 45.988L178.986 57.4192L179.484 59.4072L183.968 60.4012H189.448L190.942 61.3952L187.953 97.6766L188.95 98.6707L192.935 99.1677H205.389ZM205.389 99.1677L205.644 99.5M148.1 119.545H141.623L123.689 124.018L122.195 126.006V129.982L123.191 132.964L122.693 134.455L117.648 129.108M148.1 119.545L157.067 127.497L175.001 146.88L184.466 123.024L189.448 112.587L190.942 111.096L193.433 110.102M148.1 119.545L152.085 108.611M193.433 110.102L211.866 107.617M193.433 110.102L180.979 104.635M211.866 107.617L215.851 108.114L217.346 109.605M211.866 107.617L205.644 99.5M217.346 109.605L218.342 115.569L217.844 122.527L226.811 184.156L226.313 187.138L224.818 188.629L206.386 190.617H202.899L200.906 189.126L199.91 182.665L197.917 148.868L196.92 146.88L188.452 174.713L186.459 176.701L179.983 178.192L173.008 178.689L168.027 173.222L156.07 157.317L154.576 155.826L154.078 156.323L160.056 177.695L161.052 178.689L164.041 179.186L163.045 188.132L166.532 191.114L167.03 192.605L166.034 197.575L164.041 201.551L160.056 207.018L156.569 210H153.58L149.096 207.515V205.527L152.085 201.551L151.587 201.054L145.111 203.042H141.623L140.129 201.551L136.144 183.162L134.649 179.683L131.66 185.15L126.678 190.617L118.707 196.581L115.718 198.072H113.228L109.242 194.096V192.108L113.726 189.126L123.191 179.186L119.206 178.689L113.228 181.174H110.239L106.751 176.204V173.719M217.346 109.605L228.803 99.1677M106.751 173.719L113.726 170.737L117.213 168.252H119.206L121.198 170.737L130.664 171.731H132.158L132.656 170.737L102.268 137.437L89.8135 151.353L75.3665 172.228H73.872M106.751 173.719L99.777 174.713M73.872 172.228L74.3702 163.281L76.3629 151.353L79.3519 141.413L82.8391 133.461L82.341 132.964L78.8537 134.952L71.8793 136.94H61.9159L56.436 135.449L49.9598 131.97L44.4799 126.503L39.9963 117.06L39 112.587V103.641L40.9927 96.6826L44.4799 91.2156L47.9671 87.7365L57.4324 82.2695L64.9049 80.2814L77.3592 80.7784L78.8537 81.7725L77.8574 95.6886M73.872 172.228L74.3702 184.653M77.8574 95.6886H67.894L61.4177 98.6707L58.4287 102.15L57.4324 104.635L57.9305 111.593L59.425 114.575L62.4141 117.557L65.4031 119.048L69.8867 119.545L76.3629 117.06L81.3446 112.587L83.3373 109.108M77.8574 95.6886L83.3373 109.108M83.3373 109.108L86.3263 108.611L87.634 109.915M180.979 104.635V97.1796L177.492 90.7186L169.521 82.7665L168.525 80.7784V78.2934L171.016 75.8084L175.499 74.3174L176.495 73.3234V71.3353L172.012 61.8922L167.03 61.3952L166.532 61.8922L162.048 62.8862L155.572 66.3653L152.085 69.3473L148.598 75.3114L148.1 82.2695L150.59 88.2335L159.558 97.6766L161.052 100.162L160.554 103.144L157.565 106.126L153.081 107.617L152.085 108.611M180.979 104.635L177.99 110.599L172.012 116.066L168.525 118.054L161.052 120.539L156.569 120.042L152.085 110.599V108.611M228.803 99.1677H231.294L236.276 96.6826L235.778 91.2156L231.792 80.2814L232.789 79.2874L234.782 78.2934L235.28 78.7904L239.265 92.2096H241.258L246.239 90.2216L245.741 80.2814L241.756 68.8503L239.265 67.3593H236.774L228.803 71.8323L226.313 67.3593H223.822L223.324 67.8563L217.844 70.8383L219.836 77.2994L215.851 79.7844V81.7725L218.84 86.7425M228.803 99.1677L223.822 85.7485L222.825 85.2515L220.833 86.7425H218.84M218.84 86.7425L205.644 99.5M297.551 78.2934L303.031 83.7605M169.521 83.2635L176.994 90.7186M152.085 89.7246L159.558 97.1796M297.551 114.078L302.035 104.635L301.537 100.659L300.042 99.1677L289.58 93.7006L278.122 91.2156H264.672L264.174 91.7126L259.192 92.2096L252.716 94.1976L244.247 98.6707L236.276 106.126L230.796 115.569L227.807 126.503V130.479L229.302 144.892L232.789 154.335L238.767 162.784L244.247 167.754L251.719 172.228L263.177 175.707L271.148 176.204L282.108 174.713L295.06 169.246C298.985 166.717 300.781 165.399 303.031 163.281C303.522 162.722 303.756 161.774 303.529 159.802L297.551 145.389M297.551 114.078L296.057 114.575L292.569 121.036H289.58L284.101 117.557L277.624 115.569H270.152L263.177 118.551L258.196 124.018L256.203 129.485L255.705 136.443L258.196 142.904L263.675 148.371L272.144 151.353L281.61 150.359L288.086 147.377L292.569 143.898H296.057L297.551 145.389M297.551 114.078C290.844 126.103 291.237 132.875 297.551 145.389M130.165 99.6647L134.649 95.1916L129.667 100.162M130.165 99.6647L130.664 100.162H129.667M130.165 99.6647L129.667 100.162M242.254 100.659L236.774 106.126M44.9781 126.503L49.9598 131.473M157.067 128.491L164.041 135.449M122.693 134.952L118.209 130.479L123.191 135.449M122.693 134.952L123.689 134.455L124.187 136.94L123.191 135.449M122.693 134.952L123.191 135.449M104.759 139.922L109.242 144.395M114.224 150.359L118.707 154.832M123.689 160.796L128.173 165.269M99.777 174.713H97.2861L96.7879 175.21L79.3519 183.162L74.3702 184.653M99.777 174.713L100.773 175.707L103.762 181.174V183.659L94.7952 187.635L96.2898 188.629L95.7916 206.024H86.3263L86.8245 191.114L85.8282 190.617L79.3519 192.605H76.3629L74.3702 187.635V184.653M122.693 180.677L114.224 189.126M96.6433 115.48L101.77 111.096L111.235 105.629L105.257 104.635L99.2788 102.15L92.8026 95.6886L90.8099 91.7126L88.8172 84.2575L83.3373 60.4012V56.9222L84.3336 55.9281L95.2934 53.4431H99.2788L106.253 83.2635L110.239 88.2335L115.718 88.7305L118.707 87.2395L122.195 82.2695L121.697 74.8144L116.715 49.4671L119.206 47.976L130.165 46.485L130.664 45.988H132.656L134.151 47.976L137.638 64.8743L139.631 79.2874L138.136 89.7246L135.147 95.1916L130.664 99.6647L149.594 100.162L150.59 100.659V101.653L125.682 117.06L116.841 124.276M96.6433 115.48L96.7879 115.569L94.7952 117.557L86.3263 109.108L87.634 109.915M96.6433 115.48L87.634 109.915M96.6433 115.48L94.7952 117.06L87.634 109.915M117.648 129.108L117.711 129.485L114.224 126.006L116.715 123.521L116.841 124.276M117.648 129.108L116.841 124.276M117.648 129.108L114.722 126.006L116.841 124.276M264.174 53.4431H267.661L270.65 55.9281V64.3772L269.654 66.8623L270.152 68.8503H277.126L281.61 70.3413L279.119 79.2874H276.13L268.657 76.8024L267.661 76.3054L267.163 73.8204L263.675 79.2874L257.199 84.7545L254.21 84.2575L250.723 81.2755V79.2874L255.207 74.8144L257.697 70.8383L260.188 63.3832L259.192 62.8862L251.221 63.8802L250.225 55.9281L263.675 53.9401L264.174 53.4431ZM294.064 58.4132L302.533 60.8982L300.042 70.8383L303.031 71.3353L308.013 74.3174L311.5 77.2994V78.7904L305.024 84.7545L303.031 84.2575L297.551 79.2874L293.566 91.7126H291.075L284.599 89.7246L285.097 85.2515L293.566 58.9102L294.064 58.4132ZM269.155 68.3533L270.152 69.3473L269.155 70.3413L268.159 73.8204H266.665L269.155 68.3533ZM269.155 69.3473L268.159 72.3293L267.163 72.8263L268.159 70.8383L269.155 69.3473ZM84.8318 130.976L83.3373 133.461L82.8391 132.467L81.8428 132.964L84.8318 130.976ZM64.4068 155.329H69.3885L71.3812 157.317V163.778L69.8867 168.749L68.3921 170.737L64.4068 171.234L67.894 172.228L70.3848 174.216L66.3995 182.168H63.9086L52.9488 177.198V175.21L56.436 170.24H61.9159L60.9196 164.772L44.4799 168.749L42.4872 162.287V160.796L44.4799 159.802L63.9086 155.826L64.4068 155.329Z" stroke="#B0EAFF" stroke-width="20" stroke-linecap="round" stroke-linejoin="round"/>
<path fill-rule="evenodd" clip-rule="evenodd" d="M132.656 38.988H130.664L130.165 39.485L119.206 40.976L116.715 42.4671L121.697 67.8144L122.195 75.2695L118.707 80.2395L115.718 81.7305L110.239 81.2335L106.253 76.2635L99.2788 46.4431H95.2934L84.3336 48.9281L83.3373 49.9222V53.4012L88.8172 77.2575L90.8099 84.7126L92.8026 88.6886L99.2788 95.1497L105.257 97.6347L111.235 98.6287L101.77 104.096L96.6433 108.48L96.7879 108.569L94.7952 110.557L86.3263 102.108L87.634 102.915L86.3263 101.611L83.3373 102.108L81.3446 105.587L76.3629 110.06L69.8867 112.545L65.4031 112.048L62.4141 110.557L59.425 107.575L57.9305 104.593L57.4324 97.6347L58.4287 95.1497L61.4177 91.6707L67.894 88.6886H77.8574L78.8537 74.7725L77.3592 73.7784L64.9049 73.2814L57.4324 75.2695L47.9671 80.7365L44.4799 84.2156L40.9927 89.6826L39 96.6407V105.587L39.9963 110.06L44.4799 119.503L49.9598 124.97L56.436 128.449L61.9159 129.94H71.8793L78.8537 127.952L82.341 125.964L82.8391 126.461L79.3519 134.413L76.3629 144.353L74.3702 156.281L73.872 165.228H75.3665L89.8135 144.353L102.268 130.437L132.656 163.737L132.158 164.731H130.664L121.198 163.737L119.206 161.252H117.213L113.726 163.737L106.751 166.719V169.204L110.239 174.174H113.228L119.206 171.689L123.191 172.186L113.726 182.126L109.242 185.108V187.096L113.228 191.072H115.718L118.707 189.581L126.678 183.617L131.66 178.15L134.649 172.683L136.144 176.162L140.129 194.551L141.623 196.042H145.111L151.587 194.054L152.085 194.551L149.096 198.527V200.515L153.58 203H156.569L160.056 200.018L164.041 194.551L166.034 190.575L167.03 185.605L166.532 184.114L163.045 181.132L164.041 172.186L161.052 171.689L160.056 170.695L154.078 149.323L154.576 148.826L156.07 150.317L168.027 166.222L173.008 171.689L179.983 171.192L186.459 169.701L188.452 167.713L196.92 139.88L197.917 141.868L199.91 175.665L200.906 182.126L202.899 183.617H206.386L224.818 181.629L226.313 180.138L226.811 177.156L217.844 115.527L218.342 108.569L217.346 102.605L215.851 101.114L211.866 100.617L193.433 103.102L190.942 104.096L189.448 105.587L184.466 116.024L175.001 139.88L157.067 120.497L148.1 112.545H141.623L123.689 117.018L122.195 119.006V122.982L123.191 125.964L122.693 127.455L117.648 122.108L117.711 122.485L114.224 119.006L116.715 116.521L116.841 117.276L125.682 110.06L150.59 94.6527V93.6587L149.594 93.1617L130.664 92.6647L135.147 88.1916L138.136 82.7246L139.631 72.2874L137.638 57.8743L134.151 40.976L132.656 38.988ZM130.664 93.1617L130.165 92.6647L129.667 93.1617H130.664ZM123.689 127.455L122.693 127.952L123.191 128.449L124.187 129.94L123.689 127.455ZM83.3373 126.461L84.8318 123.976L81.8428 125.964L82.8391 125.467L83.3373 126.461Z" fill="white"/>
<path d="M77.8574 88.6886H67.894L61.4177 91.6707L58.4287 95.1497L57.4324 97.6347L57.9305 104.593L59.425 107.575L62.4141 110.557L65.4031 112.048L69.8867 112.545L76.3629 110.06L81.3446 105.587L83.3373 102.108L77.8574 88.6886Z" fill="white"/>
<path d="M106.751 166.719L113.726 163.737L117.213 161.252H119.206L121.198 163.737L130.664 164.731H132.158L132.656 163.737L102.268 130.437L89.8135 144.353L75.3665 165.228H73.872L74.3702 177.653L79.3519 176.162L96.7879 168.21L97.2861 167.713H99.777L106.751 166.719Z" fill="white"/>
<path d="M211.866 100.617L215.851 101.114L217.346 102.605L228.803 92.1677L223.822 78.7485L222.825 78.2515L220.833 79.7425H218.84L205.644 92.5L211.866 100.617Z" fill="white"/>
<path d="M148.1 112.545L157.067 120.497L175.001 139.88L184.466 116.024L189.448 105.587L190.942 104.096L193.433 103.102L180.979 97.6347L177.99 103.599L172.012 109.066L168.525 111.054L161.052 113.539L156.569 113.042L152.085 103.599V101.611L148.1 112.545Z" fill="white"/>
<path d="M297.551 107.078L296.057 107.575L292.569 114.036H289.58L284.101 110.557L277.624 108.569H270.152L263.177 111.551L258.196 117.018L256.203 122.485L255.705 129.443L258.196 135.904L263.675 141.371L272.144 144.353L281.61 143.359L288.086 140.377L292.569 136.898H296.057L297.551 138.389C291.237 125.875 290.844 119.103 297.551 107.078Z" fill="white"/>
<path d="M205.389 92.1677L208.378 55.8862H219.836L220.833 51.9102L221.331 40.976L219.836 39.982L181.477 37L180.979 37.497L179.983 38.988L178.986 50.4192L179.484 52.4072L183.968 53.4012H189.448L190.942 54.3952L187.953 90.6766L188.95 91.6707L192.935 92.1677H205.389ZM205.389 92.1677L205.644 92.5M148.1 112.545H141.623L123.689 117.018L122.195 119.006V122.982L123.191 125.964L122.693 127.455L117.648 122.108M148.1 112.545L157.067 120.497L175.001 139.88L184.466 116.024L189.448 105.587L190.942 104.096L193.433 103.102M148.1 112.545L152.085 101.611M193.433 103.102L211.866 100.617M193.433 103.102L180.979 97.6347M211.866 100.617L215.851 101.114L217.346 102.605M211.866 100.617L205.644 92.5M217.346 102.605L218.342 108.569L217.844 115.527L226.811 177.156L226.313 180.138L224.818 181.629L206.386 183.617H202.899L200.906 182.126L199.91 175.665L197.917 141.868L196.92 139.88L188.452 167.713L186.459 169.701L179.983 171.192L173.008 171.689L168.027 166.222L156.07 150.317L154.576 148.826L154.078 149.323L160.056 170.695L161.052 171.689L164.041 172.186L163.045 181.132L166.532 184.114L167.03 185.605L166.034 190.575L164.041 194.551L160.056 200.018L156.569 203H153.58L149.096 200.515V198.527L152.085 194.551L151.587 194.054L145.111 196.042H141.623L140.129 194.551L136.144 176.162L134.649 172.683L131.66 178.15L126.678 183.617L118.707 189.581L115.718 191.072H113.228L109.242 187.096V185.108L113.726 182.126L123.191 172.186L119.206 171.689L113.228 174.174H110.239L106.751 169.204V166.719M217.346 102.605L228.803 92.1677M106.751 166.719L113.726 163.737L117.213 161.252H119.206L121.198 163.737L130.664 164.731H132.158L132.656 163.737L102.268 130.437L89.8135 144.353L75.3665 165.228H73.872M106.751 166.719L99.777 167.713M73.872 165.228L74.3702 156.281L76.3629 144.353L79.3519 134.413L82.8391 126.461L82.341 125.964L78.8537 127.952L71.8793 129.94H61.9159L56.436 128.449L49.9598 124.97L44.4799 119.503L39.9963 110.06L39 105.587V96.6407L40.9927 89.6826L44.4799 84.2156L47.9671 80.7365L57.4324 75.2695L64.9049 73.2814L77.3592 73.7784L78.8537 74.7725L77.8574 88.6886M73.872 165.228L74.3702 177.653M77.8574 88.6886H67.894L61.4177 91.6707L58.4287 95.1497L57.4324 97.6347L57.9305 104.593L59.425 107.575L62.4141 110.557L65.4031 112.048L69.8867 112.545L76.3629 110.06L81.3446 105.587L83.3373 102.108M77.8574 88.6886L83.3373 102.108M83.3373 102.108L86.3263 101.611L87.634 102.915M180.979 97.6347V90.1796L177.492 83.7186L169.521 75.7665L168.525 73.7784V71.2934L171.016 68.8084L175.499 67.3174L176.495 66.3234V64.3353L172.012 54.8922L167.03 54.3952L166.532 54.8922L162.048 55.8862L155.572 59.3653L152.085 62.3473L148.598 68.3114L148.1 75.2695L150.59 81.2335L159.558 90.6766L161.052 93.1617L160.554 96.1437L157.565 99.1258L153.081 100.617L152.085 101.611M180.979 97.6347L177.99 103.599L172.012 109.066L168.525 111.054L161.052 113.539L156.569 113.042L152.085 103.599V101.611M228.803 92.1677H231.294L236.276 89.6826L235.778 84.2156L231.792 73.2814L232.789 72.2874L234.782 71.2934L235.28 71.7904L239.265 85.2096H241.258L246.239 83.2216L245.741 73.2814L241.756 61.8503L239.265 60.3593H236.774L228.803 64.8323L226.313 60.3593H223.822L223.324 60.8563L217.844 63.8383L219.836 70.2994L215.851 72.7844V74.7725L218.84 79.7425M228.803 92.1677L223.822 78.7485L222.825 78.2515L220.833 79.7425H218.84M218.84 79.7425L205.644 92.5M297.551 71.2934L303.031 76.7605M169.521 76.2635L176.994 83.7186M152.085 82.7246L159.558 90.1796M297.551 107.078L302.035 97.6347L301.537 93.6587L300.042 92.1677L289.58 86.7006L278.122 84.2156H264.672L264.174 84.7126L259.192 85.2096L252.716 87.1976L244.247 91.6707L236.276 99.1258L230.796 108.569L227.807 119.503V123.479L229.302 137.892L232.789 147.335L238.767 155.784L244.247 160.754L251.719 165.228L263.177 168.707L271.148 169.204L282.108 167.713L295.06 162.246C298.985 159.717 300.781 158.399 303.031 156.281C303.522 155.722 303.756 154.774 303.529 152.802L297.551 138.389M297.551 107.078L296.057 107.575L292.569 114.036H289.58L284.101 110.557L277.624 108.569H270.152L263.177 111.551L258.196 117.018L256.203 122.485L255.705 129.443L258.196 135.904L263.675 141.371L272.144 144.353L281.61 143.359L288.086 140.377L292.569 136.898H296.057L297.551 138.389M297.551 107.078C290.844 119.103 291.237 125.875 297.551 138.389M130.165 92.6647L134.649 88.1916L129.667 93.1617M130.165 92.6647L130.664 93.1617H129.667M130.165 92.6647L129.667 93.1617M242.254 93.6587L236.774 99.1258M44.9781 119.503L49.9598 124.473M157.067 121.491L164.041 128.449M122.693 127.952L118.209 123.479L123.191 128.449M122.693 127.952L123.689 127.455L124.187 129.94L123.191 128.449M122.693 127.952L123.191 128.449M104.759 132.922L109.242 137.395M114.224 143.359L118.707 147.832M123.689 153.796L128.173 158.269M99.777 167.713H97.2861L96.7879 168.21L79.3519 176.162L74.3702 177.653M99.777 167.713L100.773 168.707L103.762 174.174V176.659L94.7952 180.635L96.2898 181.629L95.7916 199.024H86.3263L86.8245 184.114L85.8282 183.617L79.3519 185.605H76.3629L74.3702 180.635V177.653M122.693 173.677L114.224 182.126M96.6433 108.48L101.77 104.096L111.235 98.6287L105.257 97.6347L99.2788 95.1497L92.8026 88.6886L90.8099 84.7126L88.8172 77.2575L83.3373 53.4012V49.9222L84.3336 48.9281L95.2934 46.4431H99.2788L106.253 76.2635L110.239 81.2335L115.718 81.7305L118.707 80.2395L122.195 75.2695L121.697 67.8144L116.715 42.4671L119.206 40.976L130.165 39.485L130.664 38.988H132.656L134.151 40.976L137.638 57.8743L139.631 72.2874L138.136 82.7246L135.147 88.1916L130.664 92.6647L149.594 93.1617L150.59 93.6587V94.6527L125.682 110.06L116.841 117.276M96.6433 108.48L96.7879 108.569L94.7952 110.557L86.3263 102.108L87.634 102.915M96.6433 108.48L87.634 102.915M96.6433 108.48L94.7952 110.06L87.634 102.915M117.648 122.108L117.711 122.485L114.224 119.006L116.715 116.521L116.841 117.276M117.648 122.108L116.841 117.276M117.648 122.108L114.722 119.006L116.841 117.276M264.174 46.4431H267.661L270.65 48.9281V57.3772L269.654 59.8623L270.152 61.8503H277.126L281.61 63.3413L279.119 72.2874H276.13L268.657 69.8024L267.661 69.3054L267.163 66.8204L263.675 72.2874L257.199 77.7545L254.21 77.2575L250.723 74.2755V72.2874L255.207 67.8144L257.697 63.8383L260.188 56.3832L259.192 55.8862L251.221 56.8802L250.225 48.9281L263.675 46.9401L264.174 46.4431ZM294.064 51.4132L302.533 53.8982L300.042 63.8383L303.031 64.3353L308.013 67.3174L311.5 70.2994V71.7904L305.024 77.7545L303.031 77.2575L297.551 72.2874L293.566 84.7126H291.075L284.599 82.7246L285.097 78.2515L293.566 51.9102L294.064 51.4132ZM269.155 61.3533L270.152 62.3473L269.155 63.3413L268.159 66.8204H266.665L269.155 61.3533ZM269.155 62.3473L268.159 65.3293L267.163 65.8263L268.159 63.8383L269.155 62.3473ZM84.8318 123.976L83.3373 126.461L82.8391 125.467L81.8428 125.964L84.8318 123.976ZM64.4068 148.329H69.3885L71.3812 150.317V156.778L69.8867 161.749L68.3921 163.737L64.4068 164.234L67.894 165.228L70.3848 167.216L66.3995 175.168H63.9086L52.9488 170.198V168.21L56.436 163.24H61.9159L60.9196 157.772L44.4799 161.749L42.4872 155.287V153.796L44.4799 152.802L63.9086 148.826L64.4068 148.329Z" stroke="white" stroke-width="20" stroke-linecap="round" stroke-linejoin="round"/>
<mask id="mask0_106_256" style="mask-type:alpha" maskUnits="userSpaceOnUse" x="39" y="73" width="56" height="57">
<path d="M86.3601 102.862L93.2421 109.878C93.6067 110.243 93.9095 110.625 94.0271 111.057C94.1782 111.613 94.0823 112.236 93.5877 113.1C88.6415 121.74 81.6211 126.899 74.2102 128.914C60.0677 132.76 44.6371 125.282 40.3719 109.596C35.2838 90.8834 47.019 78.6724 61.6556 74.6926C67.152 73.1981 72.6923 73.0845 77.1312 74.5304C77.6475 74.7217 78.141 75.317 78.3089 75.9346C78.3593 76.1199 78.3929 76.2434 78.3815 76.4455L77.5763 87.1436C77.5253 87.688 77.0589 88.4117 76.3795 88.5965C76.1325 88.6636 75.8687 88.669 75.6498 88.5959C73.3995 87.8813 69.6556 87.7718 66.1354 88.729C58.3539 90.8448 55.1554 96.8878 57.2041 104.422C59.1856 111.71 65.8239 114.415 72.3085 112.651C76.6315 111.476 80.9898 108.235 83.7555 103.039C83.9353 102.725 84.2723 102.501 84.5811 102.417C85.1987 102.249 85.9787 102.435 86.3601 102.862Z" fill="white"/>
</mask>
<g mask="url(#mask0_106_256)">
<rect x="6.63904" y="67.1805" width="111" height="97" transform="rotate(-11.5377 6.63904 67.1805)" fill="#37C9FF"/>
<path d="M129.677 89.9563C80.1274 120.61 53.4726 128.638 11.875 94.6141L6.01524 16.9994L79.339 -2.81339L129.677 89.9563Z" fill="#74D9FF"/>
</g>
<mask id="mask1_106_256" style="mask-type:alpha" maskUnits="userSpaceOnUse" x="83" y="39" width="57" height="60">
<path d="M118.922 41.5984L131.526 39.368C132.345 39.223 133.161 39.7936 133.369 40.6017C134.357 44.7165 135.87 51.7932 137.13 58.9146C137.888 63.2 138.595 67.5596 138.926 71.2706C140.368 86.0291 129.499 95.4919 117.651 97.5885C106.118 99.6293 93.6847 94.7451 90.4415 80.8253L83.6022 51.3583L83.5799 51.2322C83.4349 50.4129 83.9536 49.6712 84.6987 49.4744L97.3804 46.5803L97.5065 46.558C98.2627 46.4242 99.0045 46.9428 99.2013 47.6879C105.877 76.599 104.246 69.2183 105.799 76.1578C106.955 81.2179 111.308 83.0473 115.341 82.3336C119.501 81.5975 123.244 78.1404 122.737 72.7056C122.465 69.699 121.814 65.6545 121.044 61.3061C120.041 55.6342 118.737 49.3656 117.47 43.6753L117.447 43.5492C117.213 42.2258 118.292 41.71 118.922 41.5984Z" fill="white"/>
</mask>
<g mask="url(#mask1_106_256)">
<rect x="22.0764" y="57.7455" width="111" height="97" transform="rotate(-29.7168 22.0764 57.7455)" fill="#37C9FF"/>
<path d="M64.0892 139.163C81.0602 83.425 95.7769 59.7957 149.483 57.8808L205.133 112.3L163.149 175.596L64.0892 139.163Z" fill="#0AA3DF"/>
</g>
<mask id="mask2_106_256" style="mask-type:alpha" maskUnits="userSpaceOnUse" x="148" y="54" width="33" height="60">
<path d="M157.182 112.238L153.027 103.33C152.937 103.219 152.895 103.031 152.867 102.907C152.658 101.97 153.525 101.448 153.899 101.364L154.149 101.308C158.396 100.359 162.516 97.0773 161.636 93.1424C161.175 91.0813 159.632 89.4588 155.087 84.9662C151.66 81.6662 149.754 78.4198 149.07 75.3593C146.864 65.4909 156.864 57.419 167.357 55.0735C169.793 54.529 171.098 54.4996 171.766 55.7275L176.019 64.4827C176.123 64.6561 176.165 64.8435 176.193 64.9684C176.416 65.9678 175.563 66.5519 175.188 66.6357L174.813 66.7195C170.754 67.627 167.279 69.9776 168.075 73.5377C168.549 75.6613 170.767 78.2479 174.547 81.6655C178.036 84.9515 179.942 88.1979 180.64 91.3208C182.958 101.689 171.897 110.588 161.092 113.004C160.467 113.143 159.905 113.269 159.266 113.346C158.454 113.527 157.551 113.008 157.182 112.238Z" fill="white"/>
</mask>
<g mask="url(#mask2_106_256)">
<rect x="114.816" y="-0.406349" width="111" height="97" transform="rotate(18.2497 114.816 -0.406349)" fill="#37C9FF"/>
<path d="M210.283 80.4832C152.052 82.4716 124.931 76.1974 105.732 26.0038L139.204 -44.2671L212.682 -25.0363L210.283 80.4832Z" fill="#74D9FF"/>
</g>
<mask id="mask3_106_256" style="mask-type:alpha" maskUnits="userSpaceOnUse" x="179" y="37" width="43" height="56">
<path d="M203.829 92.3811L190.289 91.2617L190.162 91.2446C189.338 91.1331 188.798 90.3498 188.901 89.5887L191.892 53.1167L181.414 52.2819C180.526 52.1619 179.85 51.4248 179.962 50.6003L180.977 38.7898L180.994 38.663C181.097 37.9019 181.817 37.3533 182.65 37.4014L194.596 38.3699L219.891 40.4323C220.716 40.5437 221.455 41.2894 221.335 42.1773L220.337 53.8609C220.226 54.6854 219.488 55.3608 218.592 55.3042L208.502 54.4574L205.502 90.9927L205.494 91.0561C205.382 91.8806 204.599 92.4206 203.829 92.3811Z" fill="white"/>
</mask>
<g mask="url(#mask3_106_256)">
<rect x="148.279" y="7.94988" width="111" height="97" transform="rotate(4.48297 148.279 7.94988)" fill="#37C9FF"/>
<path d="M137.263 98.9038C182.629 62.3425 208.083 51.0711 253.578 79.6744L269.017 155.963L198.716 184.716L137.263 98.9038Z" fill="#0AA3DF"/>
</g>
<mask id="mask4_106_256" style="mask-type:alpha" maskUnits="userSpaceOnUse" x="216" y="60" width="31" height="32">
<path d="M245.397 83.1778L240.829 84.7397C240.445 84.8866 240.167 84.6891 239.975 84.4277C239.848 84.2535 239.77 84.087 239.722 83.8992C238.322 76.4455 235.88 70.7371 235.731 70.5338C235.604 70.3596 235.389 70.2491 235.048 70.4542L231.496 72.6106C233.51 77.9182 235.348 83.5335 236.378 88.0453C236.446 88.4421 236.325 88.8872 236.006 89.1212L235.919 89.1851L230.762 91.8924C230.429 92.0471 230.005 91.9559 229.792 91.6655C229.75 91.6075 229.757 91.5571 229.715 91.4991C228.451 88.0071 226.253 82.3878 224.087 77.0569L220.68 79.1069C220.368 79.2907 219.966 79.2286 219.732 78.9091L219.689 78.851L216.867 74.2688C216.662 73.9281 216.754 73.5043 217.073 73.2702L217.131 73.2277L221.402 70.5897C220.419 68.2745 219.542 66.2846 218.923 64.9528C218.79 64.6489 218.939 64.1825 219.258 63.9485L219.316 63.9059C220.547 63.2717 223.575 61.6782 225.155 60.7886C225.633 60.5275 226.184 60.7929 226.418 61.1123C226.695 61.4898 228.143 64.6238 228.797 66.064L236.287 61.4242C237.62 60.6255 240.214 60.5105 241.554 62.34C243.022 64.3437 246.755 74.3724 246.353 81.986C246.322 82.1873 246.194 82.6827 245.759 83.0018C245.672 83.0657 245.534 83.1217 245.397 83.1778Z" fill="white"/>
</mask>
<g mask="url(#mask4_106_256)">
<path d="M200.714 75.5278L231.219 39.3745L262.813 66.0319L232.308 102.185L200.714 75.5278Z" fill="#E8A541"/>
<path d="M229.464 101.945C228.081 77.1537 230.505 65.5407 251.714 56.8991L281.961 70.5138L274.444 101.997L229.464 101.945Z" fill="#E7861F"/>
</g>
<mask id="mask5_106_256" style="mask-type:alpha" maskUnits="userSpaceOnUse" x="251" y="46" width="31" height="32">
<path d="M255.828 76.8893L251.963 73.946C251.782 73.8034 251.636 73.6526 251.595 73.4773C251.53 73.1969 251.683 72.9024 252.125 72.5776C258.451 67.3691 261.708 57.5534 261.299 55.8004C261.201 55.3797 260.906 55.2265 260.372 55.3141L252.793 56.4159C252.399 56.4707 252.045 56.2206 251.955 55.8349L251.938 55.7648L251.116 49.8573C251.061 49.4635 251.311 49.1094 251.697 49.0195L251.767 49.0032L266.009 46.8286C267.619 46.601 270.12 47.4966 270.668 49.8457C270.7 49.9859 270.69 50.0992 270.722 50.2395C271.943 59.1223 266.369 71.3637 257.76 76.7716C257.469 76.9503 257.213 77.1209 256.898 77.1945C256.582 77.268 256.234 77.2014 255.828 76.8893ZM268.652 67.8372L270.546 62.9598C270.71 62.552 271.001 62.3732 271.316 62.2996C271.597 62.2343 275.997 61.7629 280.898 63.2818C281.297 63.4105 281.53 63.615 281.595 63.8955C281.644 64.1058 281.588 64.3407 281.505 64.6188C280.999 66.2525 279.8 69.6739 279.24 71.394C279.13 71.7154 278.944 71.8696 278.699 71.9268C278.489 71.9759 278.219 71.9279 278.019 71.8636C275.84 71.0779 271.227 69.5286 269.229 68.8855C268.908 68.7756 268.621 68.6576 268.556 68.3771C268.523 68.2368 268.553 68.0452 268.652 67.8372Z" fill="white"/>
</mask>
<g mask="url(#mask5_106_256)">
<path d="M285.358 88.8092L238.098 90.8446L236.319 49.5456L283.579 47.5102L285.358 88.8092Z" fill="#E8A541"/>
<path d="M285.328 49.7653C268.022 67.5708 257.836 73.6512 237.115 63.897L226.65 32.4207L254.907 16.6331L285.328 49.7653Z" fill="#FAC16C"/>
</g>
<mask id="mask6_106_256" style="mask-type:alpha" maskUnits="userSpaceOnUse" x="285" y="51" width="27" height="34">
<path d="M292.948 84.3451L286.168 82.2644C285.79 82.1482 285.564 81.7778 285.681 81.3992L294.585 52.3868C294.701 52.0082 295.106 51.7936 295.484 51.9097L302.264 53.9905C302.643 54.1067 302.823 54.501 302.707 54.8795L299.084 66.6841L301.634 64.7554C301.981 64.4852 302.322 64.477 302.666 64.5826C303.699 64.8995 308.748 67.9555 311.246 70.492C311.561 70.8147 311.659 71.1084 311.575 71.3837C311.48 71.6935 311.279 71.8577 305.647 76.8324C305.391 77.0549 305.118 77.0842 304.877 77.0103C304.636 76.9363 304.427 76.7592 304.287 76.6031C302.893 75.0081 299.929 72.0273 297.996 70.2289L293.803 83.8919C293.687 84.2705 293.327 84.4613 292.948 84.3451Z" fill="white"/>
</mask>
<g mask="url(#mask6_106_256)">
<path d="M276.173 36.9464L322.97 43.8476L316.94 84.7426L270.142 77.8413L276.173 36.9464Z" fill="#E8A541"/>
<path d="M268.849 75.2972C289.199 61.0695 300.348 57.0162 318.861 70.4981L323.21 103.382L292.486 113.566L268.849 75.2972Z" fill="#E7861F"/>
</g>
<path d="M74.3892 165.38C76.0597 116.235 107.863 88.5952 150.287 94.056C113.833 115.096 97.2163 130.713 74.3892 165.38Z" fill="#D0D0D0"/>
<path d="M74.3891 165.381C84.2722 124.487 115.602 96.4101 150.287 94.056C113.833 115.096 97.2162 130.713 74.3891 165.381Z" fill="#ADADAD"/>
<path d="M100.337 127.482L111.828 117.088L157.596 167.686C160.466 170.86 160.22 175.759 157.047 178.629C153.874 181.499 148.975 181.254 146.105 178.081L100.337 127.482Z" fill="#AE6D4B"/>
<path d="M106.738 121.701L109.133 119.535L159.344 175.046C159.715 175.455 159.683 176.087 159.273 176.458L157.62 177.953L106.738 121.701Z" fill="#BC8B71"/>
<mask id="mask7_106_256" style="mask-type:alpha" maskUnits="userSpaceOnUse" x="229" y="85" width="75" height="85">
<path d="M297.446 139.152L303.165 152.739C303.472 153.45 303.683 154.149 303.608 154.817C303.512 155.676 303.034 156.492 301.866 157.423C290.194 166.738 277.553 170.052 266.105 168.766C244.258 166.312 226.873 147.357 229.595 123.126C232.842 94.2194 255.955 83.6775 278.565 86.2171C287.056 87.1709 294.844 90.0744 300.235 94.5441C300.849 95.0961 301.208 96.1991 301.101 97.1531C301.069 97.4393 301.048 97.6301 300.92 97.9055L293.885 112.379C293.513 113.11 292.462 113.861 291.413 113.743C291.031 113.7 290.66 113.562 290.396 113.339C287.652 111.099 282.492 108.877 277.054 108.266C265.034 106.916 257.234 113.575 255.927 125.214C254.662 136.471 262.424 143.912 272.441 145.037C279.119 145.787 286.988 143.676 293.716 137.96C294.14 137.621 294.734 137.494 295.211 137.548C296.165 137.655 297.15 138.345 297.446 139.152Z" fill="white"/>
</mask>
<g mask="url(#mask7_106_256)">
<rect x="134.662" y="137.948" width="206.253" height="180.24" transform="rotate(-60.3955 134.662 137.948)" fill="#805944"/>
<path d="M316.95 -6.37804C299.269 100.433 277.917 147.546 179.452 164.159L63.68 77.4731L125.596 -49.3524L316.95 -6.37804Z" fill="#AE6D4B"/>
</g>
<mask id="mask8_106_256" style="mask-type:alpha" maskUnits="userSpaceOnUse" x="229" y="85" width="75" height="85">
<path d="M297.446 139.152L303.165 152.739C303.472 153.45 303.683 154.149 303.608 154.817C303.512 155.676 303.034 156.492 301.866 157.423C290.194 166.738 277.553 170.052 266.105 168.766C244.258 166.312 226.873 147.357 229.595 123.126C232.842 94.2194 255.955 83.6775 278.565 86.2171C287.056 87.1709 294.844 90.0744 300.235 94.5441C300.849 95.0961 301.208 96.1991 301.101 97.1531C301.069 97.4393 301.048 97.6301 300.92 97.9055L293.885 112.379C293.513 113.11 292.462 113.861 291.413 113.743C291.031 113.7 290.66 113.562 290.396 113.339C287.652 111.099 282.492 108.877 277.054 108.266C265.034 106.916 257.234 113.575 255.927 125.214C254.662 136.471 262.424 143.912 272.441 145.037C279.119 145.787 286.988 143.676 293.716 137.96C294.14 137.621 294.734 137.494 295.211 137.548C296.165 137.655 297.15 138.345 297.446 139.152Z" fill="white"/>
</mask>
<g mask="url(#mask8_106_256)">
<mask id="mask9_106_256" style="mask-type:alpha" maskUnits="userSpaceOnUse" x="224" y="80" width="85" height="94">
<path d="M278.857 83.4878C287.416 84.4492 295.464 87.3275 301.287 91.9241L301.843 92.3748L301.882 92.4067L301.919 92.4393C302.634 93.0824 303.076 93.9145 303.325 94.6688C303.58 95.4398 303.696 96.3169 303.598 97.1867C303.564 97.4959 303.512 98.0392 303.201 98.7105L303.192 98.7321L303.181 98.7534L296.145 113.226L296.136 113.247L296.126 113.268C295.693 114.118 294.975 114.813 294.203 115.277C293.417 115.75 292.345 116.117 291.146 115.983C290.406 115.899 289.548 115.624 288.827 115.029L288.827 115.03C286.515 113.142 281.83 111.072 276.788 110.506C271.299 109.889 267.057 111.121 264.067 113.561C261.067 116.009 259.022 119.922 258.424 125.248C257.867 130.207 259.293 134.166 261.833 137.018C264.402 139.903 268.249 141.804 272.733 142.308C278.693 142.977 285.882 141.102 292.11 135.81L292.139 135.785L292.17 135.76C293.19 134.946 294.474 134.703 295.503 134.819L295.855 134.871C296.669 135.022 297.421 135.367 298.039 135.807C298.706 136.282 299.386 136.993 299.763 137.937L305.474 151.504L305.607 151.824C305.921 152.611 306.237 153.678 306.105 154.851C305.909 156.601 304.907 157.96 303.439 159.132C291.286 168.831 277.992 172.371 265.838 171.005C242.723 168.409 224.236 148.306 227.124 122.601C228.824 107.464 235.783 96.9142 245.457 90.5459C255.06 84.2247 267.109 82.1682 278.857 83.4878Z" fill="white" stroke="#67432F" stroke-width="5"/>
</mask>
<g mask="url(#mask9_106_256)">
<path d="M254.023 86L239.023 92.5L232.523 97L228.023 100C225.523 102.333 220.623 107.3 221.023 108.5C221.423 109.7 221.523 114.667 221.523 117C222.517 120.266 223.614 121.911 228.023 124C231.463 120.409 233.323 117.415 236.523 108C235.735 111.915 235.796 113.918 236.523 117C240.964 112.543 243.254 109.667 246.523 103C246.413 105.982 246.972 107.783 249.023 111C253.289 108.395 255.704 105.418 258.523 98C259.072 101.699 259.505 103.519 261.023 106C263.825 103.569 265.168 101.158 268.023 95C269.743 98.9328 270.853 100.579 273.023 103C275.804 100.736 276.979 98.8792 279.523 95C280.556 98.0822 281.164 99.6999 283.023 102C285.52 99.857 286.16 97.8178 287.523 94C287.449 98.7704 287.234 101.44 289.023 105.5C291.385 104.426 292.712 102.352 295.523 97.5C296.349 103.004 297.051 105.726 299.023 110C300.856 108 304.623 103.4 305.023 101C305.423 98.6 303.856 94.3333 303.023 92.5L300.523 88C298.523 86.3333 293.423 83 289.023 83H270.023C266.823 83 258.023 85 254.023 86Z" fill="#67432F" stroke="#67432F" stroke-width="5"/>
</g>
</g>
<mask id="mask10_106_256" style="mask-type:alpha" maskUnits="userSpaceOnUse" x="228" y="84" width="77" height="86">
<path d="M278.633 85.4753C286.925 86.4067 294.588 89.1855 300.045 93.4926L300.567 93.9138L300.574 93.9205L300.582 93.9273C300.971 94.2766 301.254 94.7738 301.426 95.2957C301.599 95.821 301.673 96.408 301.611 96.9635C301.578 97.2543 301.55 97.5161 301.386 97.8708L301.382 97.8792L294.347 112.352L294.343 112.361C294.108 112.823 293.68 113.259 293.173 113.563C292.664 113.869 292.029 114.069 291.369 113.995C290.916 113.944 290.448 113.778 290.092 113.48L290.092 113.481C287.435 111.311 282.37 109.12 277.011 108.518C271.105 107.855 266.293 109.163 262.802 112.012C259.309 114.862 257.079 119.304 256.437 125.025C255.819 130.519 257.404 135.051 260.339 138.348C263.281 141.651 267.606 143.744 272.51 144.295C279.044 145.029 286.777 142.965 293.405 137.334L293.41 137.329L293.417 137.324C293.961 136.89 294.693 136.741 295.28 136.807C295.851 136.871 296.415 137.105 296.878 137.435C297.332 137.759 297.724 138.2 297.919 138.713L297.92 138.713L303.638 152.296L303.752 152.572C304.011 153.225 304.196 153.926 304.118 154.628C304.001 155.665 303.419 156.59 302.191 157.569C290.423 166.961 277.651 170.32 266.062 169.018C243.961 166.535 226.356 147.351 229.111 122.824C230.75 108.235 237.413 98.2348 246.557 92.2162C255.685 86.2069 267.24 84.1955 278.633 85.4753Z" fill="white" stroke="black"/>
</mask>
<g mask="url(#mask10_106_256)">
<path d="M254.023 86L239.023 92.5L232.523 97L228.023 100C225.523 102.333 220.623 107.3 221.023 108.5C221.423 109.7 221.523 114.667 221.523 117C222.517 120.266 223.614 121.911 228.023 124C231.463 120.409 233.323 117.415 236.523 108C235.735 111.915 235.796 113.918 236.523 117C240.964 112.543 243.254 109.667 246.523 103C246.413 105.982 246.972 107.783 249.023 111C253.289 108.395 255.704 105.418 258.523 98C259.072 101.699 259.505 103.519 261.023 106C263.825 103.569 265.168 101.158 268.023 95C269.743 98.9328 270.853 100.579 273.023 103C275.804 100.736 276.979 98.8792 279.523 95C280.556 98.0822 281.164 99.6999 283.023 102C285.52 99.857 286.16 97.8178 287.523 94C287.449 98.7704 287.234 101.44 289.023 105.5C291.385 104.426 292.712 102.352 295.523 97.5C296.349 103.004 297.051 105.726 299.023 110C300.856 108 304.623 103.4 305.023 101C305.423 98.6 303.856 94.3333 303.023 92.5L300.523 88C298.523 86.3333 293.423 83 289.023 83H270.023C266.823 83 258.023 85 254.023 86Z" fill="#66D241"/>
</g>
<mask id="mask11_106_256" style="mask-type:alpha" maskUnits="userSpaceOnUse" x="123" y="102" width="104" height="95">
<path d="M224.49 181.57L224.396 181.587L204.966 183.669C202.871 183.954 201.547 182.048 201.358 181.01L201.34 180.915L198.334 139.307L198.248 138.835C198.128 138.174 197.964 137.813 197.681 137.865C197.492 137.899 197.26 138.234 196.969 138.775C195.7 141.447 191.494 157.437 188.452 166.97C188.212 167.795 187.414 169.306 185.354 169.78L175.695 171.933C173.995 172.243 172.793 170.999 172.019 169.969C165.712 162.142 156.233 149.234 153.99 147.106C153.526 146.703 153.191 146.471 152.908 146.523C152.719 146.557 152.693 146.952 152.797 147.519L152.917 148.18L164.491 187.542L164.509 187.636C164.698 188.675 163.738 190.899 161.695 191.467L143.838 196.287L143.743 196.304C142.232 196.58 140.935 195.353 140.694 194.031L123.672 121.606C123.483 120.567 123.791 119.047 125.551 118.531L143.966 114.097L144.155 114.063C145.477 113.821 147.504 114.232 147.967 114.636C153.595 119.269 165.022 131.626 175.196 143.529C175.437 143.778 175.549 143.855 175.738 143.821C175.926 143.786 175.986 143.58 176.124 143.262C181.438 128.533 187.782 113.03 191.41 106.708C191.702 106.167 193.075 105.136 194.397 104.895L194.586 104.86L213.552 102.375C215.364 102.142 216.171 103.361 216.361 104.4L216.395 104.589L226.54 178.366C226.687 179.706 225.907 181.312 224.49 181.57Z" fill="white"/>
</mask>
<g mask="url(#mask11_106_256)">
<rect x="75.8876" y="84.0547" width="206.253" height="180.24" transform="rotate(-18.5642 75.8876 84.0547)" fill="#805944"/>
<path d="M307.969 98.0904C223.559 165.884 176.227 186.748 91.7795 133.457L63.3308 -8.34654L194.05 -61.552L307.969 98.0904Z" fill="#AE6D4B"/>
</g>
<mask id="mask12_106_256" style="mask-type:alpha" maskUnits="userSpaceOnUse" x="123" y="102" width="104" height="95">
<path d="M224.49 181.57L224.396 181.587L204.966 183.669C202.871 183.954 201.547 182.048 201.358 181.01L201.34 180.915L198.334 139.307L198.248 138.835C198.128 138.174 197.964 137.813 197.681 137.865C197.492 137.899 197.26 138.234 196.969 138.775C195.7 141.447 191.494 157.437 188.452 166.97C188.212 167.795 187.414 169.306 185.354 169.78L175.695 171.933C173.995 172.243 172.793 170.999 172.019 169.969C165.712 162.142 156.233 149.234 153.99 147.106C153.526 146.703 153.191 146.471 152.908 146.523C152.719 146.557 152.693 146.952 152.797 147.519L152.917 148.18L164.491 187.542L164.509 187.636C164.698 188.675 163.738 190.899 161.695 191.467L143.838 196.287L143.743 196.304C142.232 196.58 140.935 195.353 140.694 194.031L123.672 121.606C123.483 120.567 123.791 119.047 125.551 118.531L143.966 114.097L144.155 114.063C145.477 113.821 147.504 114.232 147.967 114.636C153.595 119.269 165.022 131.626 175.196 143.529C175.437 143.778 175.549 143.855 175.738 143.821C175.926 143.786 175.986 143.58 176.124 143.262C181.438 128.533 187.782 113.03 191.41 106.708C191.702 106.167 193.075 105.136 194.397 104.895L194.586 104.86L213.552 102.375C215.364 102.142 216.171 103.361 216.361 104.4L216.395 104.589L226.54 178.366C226.687 179.706 225.907 181.312 224.49 181.57Z" fill="white"/>
</mask>
<g mask="url(#mask12_106_256)">
<mask id="mask13_106_256" style="mask-type:alpha" maskUnits="userSpaceOnUse" x="117" y="96" width="116" height="107">
<path d="M167.46 187.098C167.737 188.613 167.183 190.194 166.485 191.315C165.713 192.553 164.403 193.828 162.498 194.357L162.487 194.361L162.476 194.363L144.619 199.183L144.499 199.216L144.282 199.256C140.819 199.888 138.306 197.208 137.774 194.718L120.752 122.292L120.734 122.219L120.721 122.145C120.538 121.144 120.572 119.842 121.171 118.583C121.818 117.223 123.023 116.146 124.706 115.652L124.777 115.631L124.848 115.614L143.263 111.181L143.345 111.161L143.616 111.111C144.746 110.905 145.963 110.994 146.881 111.149C147.364 111.23 147.856 111.345 148.306 111.495C148.635 111.604 149.295 111.844 149.871 112.322L149.874 112.319C155.209 116.712 165.291 127.514 174.716 138.377C179.711 124.858 185.361 111.221 188.808 105.215L188.81 105.216C189.107 104.691 189.5 104.286 189.774 104.031C190.104 103.725 190.481 103.435 190.877 103.176C191.64 102.679 192.688 102.157 193.859 101.943L194.122 101.895L194.197 101.886L213.162 99.4008L213.169 99.3995C214.867 99.1812 216.413 99.6423 217.567 100.678C218.631 101.631 219.13 102.86 219.313 103.861L219.359 104.115L219.368 104.18L229.512 177.958L229.517 177.998L229.522 178.039C229.667 179.364 229.362 180.748 228.687 181.895C227.999 183.064 226.784 184.201 225.029 184.521L224.825 184.559L224.715 184.571L205.286 186.652L205.285 186.65C203.197 186.906 201.512 186.058 200.409 185.037C199.373 184.079 198.631 182.779 198.406 181.548L198.36 181.294L198.348 181.132L196.196 151.345C194.636 156.765 192.844 163.06 191.331 167.808C190.899 169.294 189.484 171.909 186.026 172.704L186.016 172.706L186.007 172.708L176.348 174.861L176.291 174.873L176.233 174.884C172.712 175.526 170.508 172.935 169.683 171.851L168.456 170.314C165.516 166.608 162.095 162.121 159.102 158.229C159.047 158.157 158.991 158.085 158.936 158.014L167.37 186.695L167.414 186.847L167.46 187.098Z" fill="white" stroke="black" stroke-width="6"/>
</mask>
<g mask="url(#mask13_106_256)">
<path d="M219.997 93.9121L220.484 102.211C221.584 105.56 220.257 109.434 218.555 112.639C216.763 116.011 214.304 119.111 212.619 120.999L211.513 122.238L210.393 121.012C208.302 118.722 206.988 116.724 205.8 113.875C204.98 117.034 204.032 119.499 202.192 121.91L201.152 123.273L199.939 122.061C198.333 120.455 196.734 118.651 195.024 116.07C195.19 120.781 194.845 124.332 194.488 127.187L194.264 128.987L192.537 128.427C191.069 127.95 190.044 127.477 189.118 126.927C191.082 131.565 192.067 134.689 192.471 136.706L192.83 138.5H191C189.037 138.5 187.612 138.507 186.043 138.15C185.449 138.015 184.845 137.83 184.187 137.585C184.792 138.914 185.233 140.034 185.556 141.087C186.152 143.034 186.333 144.693 186.496 146.889L186.643 148.858L184.706 148.471C183.322 148.194 182.308 147.656 181.477 147.068C181.376 148.405 181.169 149.729 180.89 150.953C180.398 153.11 179.639 155.149 178.7 156.4L177.849 157.535L176.668 156.748C175.625 156.052 174.724 154.789 173.93 153.567C173.512 152.925 173.078 152.218 172.639 151.509C172.633 151.5 172.627 151.491 172.621 151.481C172.608 151.506 172.597 151.532 172.583 151.557C172.096 152.445 171.399 153.537 170.332 154.248L169.282 154.948L168.413 154.033C166.945 152.489 166 149.873 165.171 146.57C164.478 143.813 163.817 140.345 163.056 136.185C162.157 137.2 161.557 137.975 160.871 138.746C159.746 140.012 158.609 140.989 156.229 142.312L154.685 143.169L154.088 141.507C152.052 135.837 150.941 133.021 149.977 129.24C149.703 130.515 149.455 131.651 149.207 132.668C148.569 135.285 147.904 137.317 146.803 139.244L145.628 141.299L144.271 139.36C141.507 135.411 138.878 132.858 135.234 126.499C134.905 132.826 134.457 136.713 131.916 143.994L131.03 146.532L129.336 144.446C127.587 142.293 125.961 139.245 124.519 136.084C123.066 132.901 121.753 129.501 120.658 126.591C119.544 123.631 118.687 121.268 118.103 120.018C117.991 119.779 117.904 119.62 117.847 119.522L117 119.5C117 119.184 117.012 118.868 117.049 118.581L117.502 110.417L117.569 109.217L118.755 109.021L218.255 92.5205L219.899 92.2471L219.997 93.9121ZM117.882 119.524C117.958 119.593 118.229 119.811 118.668 119.835C119.042 119.855 119.335 119.73 119.548 119.578C119.547 119.575 119.545 119.573 119.544 119.57L117.882 119.524Z" fill="#67432F" stroke="#67432F" stroke-width="3"/>
</g>
</g>
<mask id="mask14_106_256" style="mask-type:alpha" maskUnits="userSpaceOnUse" x="122" y="101" width="106" height="97">
<path d="M165.001 187.546C165.126 188.232 164.873 189.175 164.363 189.993C163.841 190.83 162.997 191.624 161.828 191.949L161.825 191.95L143.968 196.77L143.948 196.775L143.833 196.796C141.995 197.132 140.497 195.66 140.207 194.145L123.186 121.721L123.183 121.708L123.18 121.696C123.071 121.096 123.101 120.346 123.429 119.657C123.764 118.952 124.396 118.348 125.41 118.051L125.422 118.048L125.433 118.045L143.849 113.611L143.862 113.608L144.065 113.571C144.804 113.436 145.705 113.486 146.466 113.614C146.851 113.679 147.214 113.767 147.519 113.868C147.801 113.961 148.09 114.085 148.285 114.25L148.286 114.25C153.949 118.913 165.397 131.294 175.564 143.188C175.576 143.2 175.587 143.212 175.597 143.222C175.602 143.21 175.609 143.196 175.615 143.182C175.627 143.152 175.641 143.118 175.656 143.082C180.802 128.82 186.928 113.794 190.626 107.083L190.976 106.46C191.088 106.258 191.271 106.052 191.474 105.864C191.688 105.666 191.951 105.462 192.244 105.271C192.826 104.891 193.562 104.539 194.307 104.403L194.508 104.366L194.521 104.365L213.487 101.88L213.488 101.88C214.526 101.746 215.33 102.028 215.899 102.539C216.453 103.035 216.744 103.71 216.853 104.31L216.89 104.51L216.891 104.521L227.036 178.298L227.037 178.312C227.123 179.091 226.94 179.935 226.533 180.627C226.123 181.323 225.463 181.901 224.58 182.062L224.467 182.083L224.449 182.085L205.019 184.166L205.019 184.165C203.798 184.326 202.804 183.848 202.107 183.203C201.421 182.567 200.982 181.737 200.866 181.099L200.843 180.978L200.841 180.951L197.837 139.366L197.757 138.924C197.73 138.776 197.701 138.657 197.675 138.562C197.601 138.675 197.513 138.819 197.415 139C197.117 139.633 196.629 141.089 196.009 143.114C195.39 145.133 194.651 147.676 193.856 150.438C192.267 155.956 190.452 162.347 188.928 167.123C188.652 168.06 187.749 169.742 185.466 170.267L185.463 170.268L175.804 172.421L175.785 172.425C173.775 172.791 172.404 171.311 171.629 170.282C168.471 166.363 164.519 161.172 161.083 156.705C159.364 154.469 157.775 152.415 156.476 150.787C155.173 149.156 154.186 147.983 153.654 147.475C153.491 147.334 153.359 147.228 153.249 147.151C153.257 147.232 153.27 147.324 153.289 147.429L153.405 148.065L164.971 187.401L164.979 187.425L165.001 187.546Z" fill="white" stroke="black"/>
</mask>
<g mask="url(#mask14_106_256)">
<path d="M118.5 119.5C118.5 113 124 135.5 130.5 143.5C133.611 134.588 133.5 131 134 121C139 131 142 133.5 145.5 138.5C147.5 135 148 131 150 122C151.5 130.5 152.431 132.452 155.5 141C160 138.5 159.5 137.5 164 133C166 144 167.167 150.547 169.5 153C171 152 171.713 149.728 172.5 148.5C174.5 151.5 176 154.5 177.5 155.5C179 153.5 180.306 148.318 180 144C181.5 145 182.5 146.5 185 147C184.678 142.66 184.313 140.908 181 134.5C186 137 187 137 191 137C190.5 134.5 189 130 185.5 122.5C189 125 189.669 125.918 193 127C193.5 123 193.982 117.625 193 109.5C196 115.5 198.5 118.5 201 121C203.477 117.753 204.204 114.43 205.5 108.5C207.279 114.27 208.584 116.807 211.5 120C214.779 116.325 221 108 219 102.5L218.5 94L119 110.5L118.5 119.5Z" fill="#66D241"/>
</g>
<mask id="mask15_106_256" style="mask-type:alpha" maskUnits="userSpaceOnUse" x="42" y="149" width="29" height="27">
<path d="M61.0008 157.804L60.9294 157.813L45.1284 161.649L45.057 161.659C44.7 161.705 44.3415 161.461 44.2547 161.073L42.9028 155.15L42.8935 155.079C42.8424 154.686 43.1219 154.323 43.5099 154.236L65.6592 149.247C65.802 149.229 65.9401 149.174 66.1186 149.151C67.9393 148.914 70.559 149.517 70.889 152.051C71.1213 153.836 70.6963 158.938 68.5193 162.852C68.2538 163.322 68.0458 163.676 67.5103 163.745C67.4032 163.759 63.4005 163.409 62.2784 163.156C61.76 163.078 61.535 162.744 61.4886 162.387C61.4746 162.28 61.4653 162.209 61.4871 162.097C61.5836 160.887 61.6075 158.56 61.5703 158.274C61.5238 157.917 61.3578 157.758 61.0008 157.804ZM69.3979 168.764L66.0424 174.501C65.7148 175.052 65.4121 175.236 65.1265 175.274C64.8766 175.306 64.6128 175.232 64.3443 175.121C62.1561 174.208 55.7297 171.414 54.1406 170.641C53.6796 170.447 53.2715 170.101 53.2251 169.744C53.2065 169.601 53.2236 169.454 53.3167 169.332L56.051 165.237C56.3568 164.798 56.6984 164.354 57.2696 164.28C58.519 164.117 66.7445 165.951 68.7418 167.07C69.1763 167.34 69.4773 167.701 69.5284 168.093C69.5563 168.308 69.5128 168.531 69.3979 168.764Z" fill="black"/>
</mask>
<g mask="url(#mask15_106_256)">
<path d="M88.6151 176.255L43.7154 191.143L30.7057 151.906L75.6054 137.019L88.6151 176.255Z" fill="#E8A541"/>
<path d="M77.9045 138.709C66.1303 160.57 57.9961 169.205 35.3973 165.492L16.7206 138.08L39.58 115.164L77.9045 138.709Z" fill="#FAC16C"/>
</g>
<mask id="mask16_106_256" style="mask-type:alpha" maskUnits="userSpaceOnUse" x="74" y="168" width="30" height="32">
<path d="M94.5843 199.51L87.351 199.313C86.9552 199.302 86.6392 199.005 86.65 198.609L87.0683 183.279C81.6533 185.076 77.7082 185.797 77.2763 185.785C76.9525 185.776 76.6685 185.624 76.5694 185.297L74.5935 179.842C74.5604 179.733 74.5264 179.66 74.5294 179.552C74.5372 179.264 74.724 179.017 74.9789 178.916C82.2888 176.306 92.5055 171.435 98.4499 168.716C98.5588 168.683 98.6677 168.65 98.7757 168.653C99.1356 168.663 99.5625 168.855 99.6996 169.11L103.304 175.583C103.338 175.656 103.371 175.765 103.368 175.873C103.36 176.197 103.17 176.552 102.877 176.724C99.9889 178.302 95.2148 180.368 90.3045 182.143L95.0548 182.273C95.4506 182.283 95.7297 182.615 95.7189 183.011L95.2867 198.845C95.2759 199.241 94.9802 199.521 94.5843 199.51Z" fill="black"/>
</mask>
<g mask="url(#mask16_106_256)">
<path d="M59.3757 170.563L103.509 153.537L118.387 192.104L74.2539 209.13L59.3757 170.563Z" fill="#E8A541"/>
<path d="M71.8762 207.552C82.5875 185.151 90.2978 176.135 113.049 178.759L133.02 205.243L111.287 229.23L71.8762 207.552Z" fill="#E7861F"/>
</g>
<mask id="mask17_106_256" style="mask-type:alpha" maskUnits="userSpaceOnUse" x="107" y="162" width="29" height="30">
<path d="M113.482 191.085L109.865 187.394C109.686 187.213 109.614 187.069 109.615 186.889C109.617 186.637 109.798 186.386 110.195 186.1C117.094 181.816 124.193 173.392 124.198 172.456C124.2 172.168 123.949 171.987 123.517 171.949L119.451 171.604C114.904 173.56 112.092 174.41 111.3 174.406C110.94 174.404 110.653 174.294 110.402 173.933L107.332 168.985C107.189 168.768 107.118 168.552 107.119 168.408C107.121 168.084 107.338 167.869 107.662 167.763C111.413 166.522 115.278 164.058 117.735 162.307C117.915 162.164 118.132 162.057 118.384 162.058C118.852 162.061 119.102 162.458 120.458 164.697L131.686 165.619C133.161 165.735 135.062 167.04 135.051 169.2C135.05 169.416 135.013 169.632 134.976 169.848C132.936 181.43 115.928 191.458 114.2 191.449C113.948 191.448 113.732 191.338 113.482 191.085Z" fill="black"/>
</mask>
<g mask="url(#mask17_106_256)">
<path d="M141.605 202.098L94.3603 199.738L96.4227 158.452L143.667 160.812L141.605 202.098Z" fill="#E8A541"/>
<path d="M145.199 163.22C126.315 179.342 115.609 184.451 95.8828 172.815L88.3852 140.503L117.985 127.407L145.199 163.22Z" fill="#FAC16C"/>
</g>
<mask id="mask18_106_256" style="mask-type:alpha" maskUnits="userSpaceOnUse" x="140" y="170" width="27" height="34">
<path d="M154.591 203.188L150.292 200.988C149.953 200.801 149.622 200.542 149.67 200.149C149.692 199.971 149.782 199.837 149.915 199.635C152.88 195.903 155.775 190.675 155.868 189.925C155.925 189.46 155.572 189.38 155.363 189.318L141.499 186.443C141.146 186.363 140.895 186.042 140.939 185.685L140.948 185.613L142.178 180.07C142.258 179.717 142.614 179.471 142.972 179.515L143.043 179.524L163.249 183.619C165.407 184.067 166.766 185.686 166.523 187.651C166.263 189.759 163.161 197.827 156.318 203.003C156.118 203.159 155.613 203.423 155.078 203.357C154.899 203.335 154.76 203.282 154.591 203.188ZM161.651 180.12L161.579 180.111C157.095 179.412 151.07 178.268 147.403 177.705C146.939 177.648 146.603 177.135 146.656 176.706L146.665 176.635L147.743 171.436C147.872 170.98 148.309 170.671 148.774 170.729L148.845 170.738C152.758 171.367 159.81 172.42 163.043 172.965C163.503 173.058 163.808 173.531 163.755 173.96L163.746 174.031L162.681 179.413C162.588 179.873 162.115 180.177 161.651 180.12Z" fill="black"/>
</mask>
<g mask="url(#mask18_106_256)">
<path d="M128.793 160.062H176.097V201.399H128.793V160.062Z" fill="#E8A541"/>
<path d="M127.143 199.071C145.199 182.027 155.638 176.39 175.919 187.027L185.02 218.924L156.11 233.481L127.143 199.071Z" fill="#E7861F"/>
</g>
</svg>
