<svg width="300" height="250" viewBox="0 0 300 250" fill="none" xmlns="http://www.w3.org/2000/svg">
<path d="M72.8368 91.7091H62.8787L59.8912 92.703L56.4059 94.6909L53.4184 98.1697L52.4226 100.655V105.624L54.4142 110.594L58.8954 114.57L62.3808 115.564L67.3598 115.067L72.8368 112.085L76.3222 108.606L78.3138 105.127L72.8368 91.7091Z" fill="white"/>
<path d="M135.573 81.2727L134.577 90.2182L131.092 97.1758L124.619 103.139L119.64 105.624L114.163 107.115L110.678 116.558L110.18 118.545L100.222 125.503L101.218 126L105.699 124.509L113.167 125.006L121.134 132.461L139.059 151.842L147.025 131.467L152.004 121.03L148.021 112.582V110.594L153.498 108.109L156.983 104.133V102.145L155.49 99.6606L147.523 91.7091L144.536 86.2424V77.297L135.573 81.2727Z" fill="white"/>
<path d="M254.821 119.046L253.577 121.527H250.092L242.126 119.042H236.151L229.18 121.03L222.707 126.497L219.72 133.952V139.915L222.209 146.873L226.192 151.345L230.674 153.83L233.661 154.824H241.13L249.096 151.842L254.075 148.364L258.556 143.394H262.042C254.042 136.148 252.971 129.995 254.821 119.046Z" fill="white"/>
<path d="M135.573 81.2727L133.582 66.8606L130.096 49.9636L128.603 47.9758H126.611L126.113 48.4727L115.159 49.9636L112.669 51.4545L117.649 76.8L118.146 84.2545L114.661 89.2242L111.674 90.7152L106.197 90.2182L102.213 85.2485L95.2427 55.4303H91.2594L80.3054 57.9152L79.3096 58.9091V62.3879L86.7782 93.697L89.7657 99.1636L93.749 103.139L98.2301 105.624L103.209 107.115H114.163M135.573 81.2727L134.577 90.2182L131.092 97.1758L124.619 103.139L119.64 105.624L114.163 107.115M135.573 81.2727L144.536 77.297M114.163 107.115L110.678 116.558M72.8368 91.7091L73.8326 84.2545L73.3347 77.297L70.3473 76.303H59.8912L55.41 77.297L46.4477 81.2727L39.477 87.2364L35.9916 92.703L34 99.6606V108.606L35.9916 116.061L39.477 122.521L44.954 127.988L51.4268 131.467L60.3891 133.455L56.4059 137.43L50.9289 144.885L44.954 156.812L40.4728 174.703L39.9749 193.588L41.4686 193.091L51.9247 175.2L61.3849 161.782L65.3682 157.309L100.72 190.606L104.205 206.509L105.699 208H109.184L127.109 203.03L128.603 201.042L129.1 198.558L118.146 161.285L118.644 160.788L120.138 162.279L132.088 178.182L137.067 183.648L144.038 183.152L150.51 181.661L152.502 179.673L160.967 151.842L161.962 153.83L163.954 187.624L164.95 194.085L166.941 195.576H170.427L188.849 193.588L190.343 192.097L190.841 189.115L181.879 127.491L182.377 120.533L181.381 114.57L178.891 112.582H173.912L176.9 106.618V99.1636L173.414 92.703L165.448 84.7515L164.452 82.7636V80.2788L166.941 77.7939L171.423 76.303L172.418 75.3091V73.3212L167.937 63.8788L162.958 63.3818L162.46 63.8788L157.979 64.8727L151.506 68.3515L148.021 71.3333L144.536 77.297M72.8368 91.7091H62.8787L59.8912 92.703L56.4059 94.6909L53.4184 98.1697L52.4226 100.655V105.624L54.4142 110.594L58.8954 114.57L62.3808 115.564L67.3598 115.067L72.8368 112.085L76.3222 108.606L78.3138 105.127M72.8368 91.7091L78.3138 105.127M78.3138 105.127L81.3013 104.63L89.2678 112.582L89.7657 115.067L88.272 117.552L88.7699 118.545L100.72 116.558H110.678M110.678 116.558L110.18 118.545L100.222 125.503L101.218 126L105.699 124.509L113.167 125.006L121.134 132.461L139.059 151.842L147.025 131.467L152.004 121.03L148.021 112.582V110.594L153.498 108.109L156.983 104.133V102.145L155.49 99.6606L147.523 91.7091L144.536 86.2424V77.297M165.448 85.2485L172.916 92.703M148.021 91.7091L155.49 99.1636M255.569 115.067L257.561 112.582L259.552 105.127V101.648L258.556 99.6606L253.577 97.1758L245.113 95.1879H230.674L230.176 95.6848L219.72 97.6727L212.749 100.655L207.272 104.133L200.301 110.594L194.326 120.533L191.837 129.479L191.339 141.406L192.833 143.394L194.326 152.339L197.812 160.291L204.285 168.739L211.255 174.206L218.226 177.685L227.686 180.17H240.632L251.586 177.188L262.54 170.727L269.51 164.267L272 160.788V157.806L262.042 143.394M255.569 115.067L255.071 118.545L254.821 119.046M255.569 115.067C255.285 116.463 255.033 117.786 254.821 119.046M262.042 143.394H258.556L254.075 148.364L249.096 151.842L241.13 154.824H233.661L230.674 153.83L226.192 151.345L222.209 146.873L219.72 139.915V133.952L222.707 126.497L229.18 121.03L236.151 119.042H242.126L250.092 121.527H253.577L254.821 119.046M262.042 143.394C254.042 136.148 252.971 129.995 254.821 119.046M81.3013 105.127L88.7699 112.582M205.28 106.121L200.799 110.594M39.9749 122.521L44.954 127.491M121.134 133.455L128.105 140.412M86.2803 153.333L93.251 160.291M67.8577 158.8L76.8201 167.745M77.8159 168.242L87.2761 177.685M88.272 178.182L97.7322 187.624M180.385 44L218.724 46.9818L220.218 47.9758L219.72 58.9091L218.724 62.8848H207.272L204.285 99.1636H191.837L187.854 98.6667L186.858 97.6727L189.845 61.3939L188.351 60.4H182.874L178.393 59.4061L177.895 57.4182L178.891 45.9879L179.887 44.497L180.385 44ZM101.218 124.012L99.7238 125.503V126.497L97.2343 126.994L101.218 124.012ZM60.3891 132.958H61.3849L56.9038 137.43L60.3891 132.958ZM86.7782 135.442L89.2678 147.37L91.7573 151.842L93.749 161.285L76.8201 144.885L81.3013 139.915L86.2803 135.939L86.7782 135.442ZM81.3013 140.412L77.318 144.885L85.2845 152.836L81.3013 140.412Z" stroke="#B0EAFF" stroke-width="20" stroke-linecap="round" stroke-linejoin="round"/>
<path d="M72.8368 84.7091H62.8787L59.8912 85.703L56.4059 87.6909L53.4184 91.1697L52.4226 93.6545V98.6242L54.4142 103.594L58.8954 107.57L62.3808 108.564L67.3598 108.067L72.8368 105.085L76.3222 101.606L78.3138 98.1273L72.8368 84.7091Z" fill="white"/>
<path d="M135.573 74.2727L134.577 83.2182L131.092 90.1758L124.619 96.1394L119.64 98.6242L114.163 100.115L110.678 109.558L110.18 111.545L100.222 118.503L101.218 119L105.699 117.509L113.167 118.006L121.134 125.461L139.059 144.842L147.025 124.467L152.004 114.03L148.021 105.582V103.594L153.498 101.109L156.983 97.1333V95.1455L155.49 92.6606L147.523 84.7091L144.536 79.2424V70.297L135.573 74.2727Z" fill="white"/>
<path d="M254.821 112.046L253.577 114.527H250.092L242.126 112.042H236.151L229.18 114.03L222.707 119.497L219.72 126.952V132.915L222.209 139.873L226.192 144.345L230.674 146.83L233.661 147.824H241.13L249.096 144.842L254.075 141.364L258.556 136.394H262.042C254.042 129.148 252.971 122.995 254.821 112.046Z" fill="white"/>
<path d="M135.573 74.2727L133.582 59.8606L130.096 42.9636L128.603 40.9758H126.611L126.113 41.4727L115.159 42.9636L112.669 44.4545L117.649 69.8L118.146 77.2545L114.661 82.2242L111.674 83.7152L106.197 83.2182L102.213 78.2485L95.2427 48.4303H91.2594L80.3054 50.9152L79.3096 51.9091V55.3879L86.7782 86.697L89.7657 92.1636L93.749 96.1394L98.2301 98.6242L103.209 100.115H114.163M135.573 74.2727L134.577 83.2182L131.092 90.1758L124.619 96.1394L119.64 98.6242L114.163 100.115M135.573 74.2727L144.536 70.297M114.163 100.115L110.678 109.558M72.8368 84.7091L73.8326 77.2545L73.3347 70.297L70.3473 69.303H59.8912L55.41 70.297L46.4477 74.2727L39.477 80.2364L35.9916 85.703L34 92.6606V101.606L35.9916 109.061L39.477 115.521L44.954 120.988L51.4268 124.467L60.3891 126.455L56.4059 130.43L50.9289 137.885L44.954 149.812L40.4728 167.703L39.9749 186.588L41.4686 186.091L51.9247 168.2L61.3849 154.782L65.3682 150.309L100.72 183.606L104.205 199.509L105.699 201H109.184L127.109 196.03L128.603 194.042L129.1 191.558L118.146 154.285L118.644 153.788L120.138 155.279L132.088 171.182L137.067 176.648L144.038 176.152L150.51 174.661L152.502 172.673L160.967 144.842L161.962 146.83L163.954 180.624L164.95 187.085L166.941 188.576H170.427L188.849 186.588L190.343 185.097L190.841 182.115L181.879 120.491L182.377 113.533L181.381 107.57L178.891 105.582H173.912L176.9 99.6182V92.1636L173.414 85.703L165.448 77.7515L164.452 75.7636V73.2788L166.941 70.7939L171.423 69.303L172.418 68.3091V66.3212L167.937 56.8788L162.958 56.3818L162.46 56.8788L157.979 57.8727L151.506 61.3515L148.021 64.3333L144.536 70.297M72.8368 84.7091H62.8787L59.8912 85.703L56.4059 87.6909L53.4184 91.1697L52.4226 93.6545V98.6242L54.4142 103.594L58.8954 107.57L62.3808 108.564L67.3598 108.067L72.8368 105.085L76.3222 101.606L78.3138 98.1273M72.8368 84.7091L78.3138 98.1273M78.3138 98.1273L81.3013 97.6303L89.2678 105.582L89.7657 108.067L88.272 110.552L88.7699 111.545L100.72 109.558H110.678M110.678 109.558L110.18 111.545L100.222 118.503L101.218 119L105.699 117.509L113.167 118.006L121.134 125.461L139.059 144.842L147.025 124.467L152.004 114.03L148.021 105.582V103.594L153.498 101.109L156.983 97.1333V95.1455L155.49 92.6606L147.523 84.7091L144.536 79.2424V70.297M165.448 78.2485L172.916 85.703M148.021 84.7091L155.49 92.1636M255.569 108.067L257.561 105.582L259.552 98.1273V94.6485L258.556 92.6606L253.577 90.1758L245.113 88.1879H230.674L230.176 88.6848L219.72 90.6727L212.749 93.6545L207.272 97.1333L200.301 103.594L194.326 113.533L191.837 122.479L191.339 134.406L192.833 136.394L194.326 145.339L197.812 153.291L204.285 161.739L211.255 167.206L218.226 170.685L227.686 173.17H240.632L251.586 170.188L262.54 163.727L269.51 157.267L272 153.788V150.806L262.042 136.394M255.569 108.067L255.071 111.545L254.821 112.046M255.569 108.067C255.285 109.463 255.033 110.786 254.821 112.046M262.042 136.394H258.556L254.075 141.364L249.096 144.842L241.13 147.824H233.661L230.674 146.83L226.192 144.345L222.209 139.873L219.72 132.915V126.952L222.707 119.497L229.18 114.03L236.151 112.042H242.126L250.092 114.527H253.577L254.821 112.046M262.042 136.394C254.042 129.148 252.971 122.995 254.821 112.046M81.3013 98.1273L88.7699 105.582M205.28 99.1212L200.799 103.594M39.9749 115.521L44.954 120.491M121.134 126.455L128.105 133.412M86.2803 146.333L93.251 153.291M67.8577 151.8L76.8201 160.745M77.8159 161.242L87.2761 170.685M88.272 171.182L97.7322 180.624M180.385 37L218.724 39.9818L220.218 40.9758L219.72 51.9091L218.724 55.8848H207.272L204.285 92.1636H191.837L187.854 91.6667L186.858 90.6727L189.845 54.3939L188.351 53.4H182.874L178.393 52.4061L177.895 50.4182L178.891 38.9879L179.887 37.497L180.385 37ZM101.218 117.012L99.7238 118.503V119.497L97.2343 119.994L101.218 117.012ZM60.3891 125.958H61.3849L56.9038 130.43L60.3891 125.958ZM86.7782 128.442L89.2678 140.37L91.7573 144.842L93.749 154.285L76.8201 137.885L81.3013 132.915L86.2803 128.939L86.7782 128.442ZM81.3013 133.412L77.318 137.885L85.2845 145.836L81.3013 133.412Z" stroke="white" stroke-width="20" stroke-linecap="round" stroke-linejoin="round"/>
<mask id="mask0_107_484" style="mask-type:alpha" maskUnits="userSpaceOnUse" x="34" y="69" width="56" height="57">
<path d="M81.3601 98.8615L88.2421 105.878C88.6067 106.243 88.9095 106.625 89.0271 107.057C89.1782 107.613 89.0823 108.236 88.5877 109.1C83.6415 117.74 76.6211 122.899 69.2102 124.914C55.0677 128.76 39.6371 121.282 35.3719 105.596C30.2838 86.8833 42.019 74.6724 56.6556 70.6926C62.152 69.1981 67.6923 69.0844 72.1312 70.5304C72.6475 70.7217 73.141 71.317 73.3089 71.9346C73.3593 72.1199 73.3929 72.2434 73.3815 72.4455L72.5763 83.1436C72.5253 83.688 72.0589 84.4117 71.3795 84.5965C71.1325 84.6636 70.8687 84.669 70.6498 84.5959C68.3995 83.8813 64.6556 83.7718 61.1354 84.729C53.3539 86.8448 50.1554 92.8877 52.2041 100.422C54.1856 107.71 60.8239 110.415 67.3085 108.651C71.6315 107.476 75.9898 104.235 78.7555 99.0392C78.9353 98.725 79.2723 98.5007 79.5811 98.4167C80.1987 98.2488 80.9787 98.4346 81.3601 98.8615Z" fill="white"/>
</mask>
<g mask="url(#mask0_107_484)">
<rect x="1.63904" y="63.1805" width="111" height="97" transform="rotate(-11.5377 1.63904 63.1805)" fill="#37C9FF"/>
<path d="M124.677 85.9564C75.1274 116.61 48.4726 124.638 6.87497 90.6141L1.01524 12.9995L74.339 -6.81337L124.677 85.9564Z" fill="#74D9FF"/>
</g>
<mask id="mask1_107_484" style="mask-type:alpha" maskUnits="userSpaceOnUse" x="79" y="41" width="57" height="60">
<path d="M114.922 43.5984L127.526 41.368C128.345 41.2231 129.161 41.7936 129.369 42.6017C130.357 46.7165 131.87 53.7932 133.13 60.9146C133.888 65.2 134.595 69.5596 134.926 73.2706C136.368 88.0292 125.499 97.4919 113.651 99.5885C102.118 101.629 89.6847 96.7452 86.4415 82.8253L79.6022 53.3583L79.5799 53.2322C79.4349 52.413 79.9536 51.6712 80.6987 51.4744L93.3804 48.5803L93.5065 48.558C94.2627 48.4242 95.0045 48.9429 95.2013 49.688C101.877 78.599 100.246 71.2183 101.799 78.1578C102.955 83.2179 107.308 85.0473 111.341 84.3336C115.501 83.5975 119.244 80.1405 118.737 74.7056C118.465 71.699 117.814 67.6545 117.044 63.3061C116.041 57.6342 114.737 51.3656 113.47 45.6753L113.447 45.5493C113.213 44.2258 114.292 43.71 114.922 43.5984Z" fill="white"/>
</mask>
<g mask="url(#mask1_107_484)">
<rect x="18.0764" y="59.7455" width="111" height="97" transform="rotate(-29.7168 18.0764 59.7455)" fill="#37C9FF"/>
<path d="M60.0892 141.163C77.0602 85.425 91.7769 61.7957 145.483 59.8808L201.133 114.3L159.149 177.596L60.0892 141.163Z" fill="#0AA3DF"/>
</g>
<mask id="mask2_107_484" style="mask-type:alpha" maskUnits="userSpaceOnUse" x="144" y="56" width="33" height="60">
<path d="M153.182 114.238L149.027 105.33C148.937 105.219 148.895 105.031 148.867 104.907C148.658 103.97 149.525 103.448 149.899 103.364L150.149 103.308C154.396 102.359 158.516 99.0773 157.636 95.1424C157.175 93.0813 155.632 91.4588 151.087 86.9662C147.66 83.6662 145.754 80.4198 145.07 77.3593C142.864 67.4909 152.864 59.419 163.357 57.0735C165.793 56.529 167.098 56.4996 167.766 57.7275L172.019 66.4827C172.123 66.6561 172.165 66.8435 172.193 66.9684C172.416 67.9678 171.563 68.5519 171.188 68.6357L170.813 68.7195C166.754 69.627 163.279 71.9776 164.075 75.5378C164.549 77.6614 166.767 80.2479 170.547 83.6655C174.036 86.9515 175.942 90.1979 176.64 93.3208C178.958 103.689 167.897 112.588 157.092 115.004C156.467 115.143 155.905 115.269 155.266 115.346C154.454 115.527 153.551 115.008 153.182 114.238Z" fill="white"/>
</mask>
<g mask="url(#mask2_107_484)">
<rect x="110.816" y="1.59366" width="111" height="97" transform="rotate(18.2497 110.816 1.59366)" fill="#37C9FF"/>
<path d="M206.283 82.4832C148.052 84.4716 120.931 78.1974 101.732 28.0038L135.204 -42.2671L208.682 -23.0363L206.283 82.4832Z" fill="#74D9FF"/>
</g>
<mask id="mask3_107_484" style="mask-type:alpha" maskUnits="userSpaceOnUse" x="178" y="37" width="43" height="56">
<path d="M202.829 92.3811L189.289 91.2617L189.162 91.2445C188.338 91.1331 187.798 90.3497 187.901 89.5887L190.892 53.1167L180.414 52.2819C179.526 52.1619 178.85 51.4248 178.962 50.6003L179.977 38.7898L179.994 38.6629C180.097 37.9019 180.817 37.3533 181.65 37.4013L193.596 38.3699L218.891 40.4323C219.716 40.5437 220.455 41.2894 220.335 42.1773L219.337 53.8609C219.226 54.6854 218.488 55.3608 217.592 55.3042L207.502 54.4573L204.502 90.9927L204.494 91.0561C204.382 91.8806 203.599 92.4206 202.829 92.3811Z" fill="white"/>
</mask>
<g mask="url(#mask3_107_484)">
<rect x="147.279" y="7.94989" width="111" height="97" transform="rotate(4.48297 147.279 7.94989)" fill="#37C9FF"/>
<path d="M136.263 98.9038C181.629 62.3425 207.083 51.0711 252.578 79.6745L268.017 155.963L197.716 184.716L136.263 98.9038Z" fill="#0AA3DF"/>
</g>
<path d="M40.1323 187.244C38.1261 138.112 67.7751 108.172 110.488 110.448C75.709 134.153 60.3052 150.968 40.1323 187.244Z" fill="#D0D0D0"/>
<path d="M40.1324 187.244C46.9322 145.726 76.0767 115.387 110.488 110.448C75.709 134.153 60.3053 150.968 40.1324 187.244Z" fill="#ADADAD"/>
<path d="M63.1758 147.513L73.8583 136.289L123.279 183.326C126.378 186.276 126.499 191.18 123.549 194.279C120.599 197.379 115.696 197.5 112.596 194.55L63.1758 147.513Z" fill="#AE6D4B"/>
<path d="M69.1273 141.27L71.3537 138.931L125.572 190.534C125.972 190.915 125.988 191.548 125.607 191.948L124.07 193.563L69.1273 141.27Z" fill="#BC8B71"/>
<mask id="mask4_107_484" style="mask-type:alpha" maskUnits="userSpaceOnUse" x="193" y="89" width="80" height="85">
<path d="M263.249 138.288L271.459 150.532C271.896 151.171 272.237 151.818 272.291 152.488C272.361 153.349 272.047 154.241 271.079 155.378C261.402 166.753 249.628 172.421 238.145 173.347C216.232 175.114 195.545 159.831 193.585 135.526C191.248 106.532 211.92 91.7669 234.598 89.9384C243.115 89.2518 251.315 90.6132 257.46 93.9701C258.169 94.3946 258.732 95.4086 258.809 96.3655C258.832 96.6526 258.848 96.8439 258.775 97.1387L254.636 112.69C254.41 113.478 253.523 114.417 252.47 114.502C252.087 114.532 251.697 114.468 251.395 114.299C248.274 112.625 242.784 111.43 237.33 111.87C225.273 112.842 218.889 120.869 219.831 132.543C220.741 143.834 229.782 149.655 239.829 148.845C246.528 148.305 253.848 144.729 259.359 137.831C259.711 137.418 260.27 137.18 260.748 137.142C261.705 137.064 262.804 137.554 263.249 138.288Z" fill="white"/>
</mask>
<g mask="url(#mask4_107_484)">
<rect x="103.235" y="168.219" width="206.253" height="180.24" transform="rotate(-71.4139 103.235 168.219)" fill="#805944"/>
<path d="M254.578 -8.28615C257.638 99.9348 245.684 150.261 152.209 185.387L22.0035 122.425L58.5381 -13.8957L254.578 -8.28615Z" fill="#AE6D4B"/>
</g>
<mask id="mask5_107_484" style="mask-type:alpha" maskUnits="userSpaceOnUse" x="193" y="89" width="80" height="85">
<path d="M263.249 138.288L271.459 150.532C271.896 151.171 272.237 151.818 272.291 152.488C272.361 153.349 272.047 154.241 271.079 155.378C261.402 166.753 249.628 172.421 238.145 173.347C216.232 175.114 195.545 159.831 193.585 135.526C191.248 106.532 211.92 91.7669 234.598 89.9384C243.115 89.2518 251.315 90.6132 257.46 93.9701C258.169 94.3946 258.732 95.4086 258.809 96.3655C258.832 96.6526 258.848 96.8439 258.775 97.1387L254.636 112.69C254.41 113.478 253.523 114.417 252.47 114.502C252.087 114.532 251.697 114.468 251.395 114.299C248.274 112.625 242.784 111.43 237.33 111.87C225.273 112.842 218.889 120.869 219.831 132.543C220.741 143.834 229.782 149.655 239.829 148.845C246.528 148.305 253.848 144.729 259.359 137.831C259.711 137.418 260.27 137.18 260.748 137.142C261.705 137.064 262.804 137.554 263.249 138.288Z" fill="white"/>
</mask>
<g mask="url(#mask5_107_484)">
<mask id="mask6_107_484" style="mask-type:alpha" maskUnits="userSpaceOnUse" x="188" y="84" width="90" height="95">
<path d="M234.363 87.2036C242.948 86.5114 251.398 87.7985 257.992 91.1975L258.624 91.5335L258.669 91.5574L258.711 91.5824C259.536 92.0769 260.129 92.8092 260.517 93.502C260.915 94.2102 261.196 95.0488 261.267 95.9213C261.292 96.2314 261.345 96.7746 261.168 97.4929L261.163 97.5158L261.156 97.5389L257.017 113.09L257.012 113.112L257.006 113.134C256.743 114.052 256.172 114.871 255.502 115.474C254.821 116.088 253.839 116.654 252.637 116.751C251.894 116.81 250.999 116.705 250.178 116.258L250.178 116.259C247.548 114.848 242.553 113.711 237.496 114.119C231.991 114.563 228.062 116.582 225.593 119.549C223.117 122.525 221.858 126.757 222.289 132.099C222.69 137.073 224.846 140.687 227.884 143C230.957 145.342 235.097 146.472 239.594 146.109C245.572 145.627 252.27 142.413 257.372 136.028L257.396 135.998L257.421 135.968C258.267 134.974 259.481 134.49 260.514 134.407L260.869 134.391C261.697 134.384 262.501 134.578 263.191 134.892C263.936 135.231 264.741 135.799 265.291 136.653L273.489 148.879L273.681 149.167C274.139 149.88 274.654 150.867 274.749 152.044C274.89 153.799 274.167 155.324 272.949 156.755C262.874 168.598 250.502 174.613 238.312 175.596C215.126 177.465 193.138 161.266 191.059 135.483C189.835 120.3 194.649 108.615 202.928 100.515C211.145 92.4752 222.58 88.1537 234.363 87.2036Z" fill="white" stroke="#67432F" stroke-width="5"/>
</mask>
<g mask="url(#mask6_107_484)">
<path d="M210.467 94.4159L196.986 103.663L191.466 109.322L187.622 113.127C185.614 115.895 181.754 121.707 182.376 122.808C182.998 123.91 184.045 128.766 184.491 131.056C186.091 134.072 187.482 135.477 192.209 136.685C194.899 132.503 196.153 129.208 197.495 119.355C197.469 123.349 197.913 125.303 199.215 128.189C202.722 122.966 204.42 119.705 206.355 112.536C206.817 115.484 207.71 117.145 210.338 119.911C214.027 116.538 215.829 113.155 217.178 105.335C218.424 108.86 219.197 110.564 221.161 112.709C223.447 109.787 224.304 107.164 225.929 100.574C228.369 104.106 229.773 105.51 232.366 107.471C234.663 104.718 235.461 102.67 237.217 98.3763C238.82 101.204 239.726 102.676 241.991 104.578C244.032 101.998 244.271 99.8736 244.879 95.8657C245.718 100.562 246.017 103.224 248.549 106.867C250.662 105.361 251.568 103.072 253.4 97.7722C255.263 103.017 256.472 105.554 259.225 109.373C260.642 107.059 263.46 101.824 263.394 99.392C263.328 96.9598 260.975 93.0712 259.806 91.4309L256.492 87.4917C254.211 86.238 248.568 83.9408 244.249 84.7818L225.599 88.4132C222.458 89.0248 214.203 92.6698 210.467 94.4159Z" fill="#67432F" stroke="#67432F" stroke-width="5"/>
</g>
</g>
<mask id="mask7_107_484" style="mask-type:alpha" maskUnits="userSpaceOnUse" x="192" y="88" width="82" height="87">
<path d="M234.524 89.1971C242.841 88.5265 250.893 89.7896 257.073 92.9743L257.666 93.288L257.674 93.2933L257.683 93.2984C258.131 93.567 258.504 94.001 258.773 94.4803C259.044 94.9627 259.228 95.5248 259.273 96.0819C259.297 96.3736 259.32 96.636 259.226 97.0155L259.224 97.0245L255.084 112.575L255.082 112.584C254.94 113.083 254.603 113.592 254.164 113.988C253.722 114.386 253.137 114.704 252.476 114.757C252.021 114.794 251.53 114.72 251.123 114.496L251.123 114.497C248.101 112.875 242.71 111.692 237.335 112.125C231.412 112.603 226.938 114.807 224.056 118.27C221.172 121.735 219.832 126.522 220.295 132.26C220.739 137.771 223.16 141.916 226.672 144.591C230.191 147.272 234.837 148.5 239.755 148.103C246.309 147.574 253.505 144.071 258.934 137.277L258.939 137.27L258.944 137.264C259.395 136.734 260.085 136.448 260.674 136.401C261.247 136.354 261.846 136.477 262.363 136.712C262.87 136.943 263.34 137.301 263.629 137.767L263.63 137.767L271.838 150.007L272.003 150.257C272.382 150.848 272.698 151.5 272.755 152.204C272.839 153.244 272.444 154.263 271.426 155.459C261.669 166.928 249.775 172.665 238.151 173.602C215.983 175.39 195.036 159.923 193.053 135.323C191.873 120.689 196.502 109.6 204.327 101.944C212.139 94.3012 223.096 90.1185 234.524 89.1971Z" fill="white" stroke="black"/>
</mask>
<g mask="url(#mask7_107_484)">
<path d="M210.467 94.4158L196.986 103.663L191.466 109.322L187.622 113.127C185.614 115.895 181.754 121.707 182.376 122.808C182.998 123.91 184.045 128.766 184.491 131.056C186.091 134.072 187.482 135.477 192.209 136.685C194.899 132.503 196.153 129.208 197.495 119.355C197.469 123.349 197.913 125.303 199.215 128.189C202.722 122.966 204.42 119.705 206.355 112.536C206.817 115.484 207.71 117.145 210.338 119.911C214.027 116.538 215.829 113.155 217.178 105.335C218.424 108.86 219.197 110.564 221.161 112.709C223.447 109.787 224.304 107.164 225.929 100.574C228.369 104.106 229.773 105.51 232.366 107.471C234.663 104.718 235.461 102.67 237.217 98.3762C238.82 101.204 239.726 102.676 241.991 104.578C244.032 101.998 244.271 99.8736 244.879 95.8657C245.718 100.562 246.017 103.224 248.549 106.867C250.662 105.361 251.568 103.072 253.4 97.7721C255.263 103.017 256.472 105.554 259.225 109.373C260.642 107.059 263.46 101.824 263.394 99.3919C263.328 96.9597 260.975 93.0711 259.806 91.4309L256.492 87.4916C254.211 86.2379 248.568 83.9408 244.249 84.7818L225.599 88.4131C222.458 89.0247 214.203 92.6698 210.467 94.4158Z" fill="#66D241"/>
</g>
<mask id="mask8_107_484" style="mask-type:alpha" maskUnits="userSpaceOnUse" x="87" y="107" width="104" height="95">
<path d="M188.49 186.57L188.396 186.587L168.966 188.669C166.871 188.954 165.547 187.048 165.358 186.01L165.34 185.915L162.334 144.307L162.248 143.835C162.128 143.174 161.964 142.813 161.681 142.865C161.492 142.899 161.26 143.234 160.969 143.775C159.7 146.447 155.494 162.437 152.452 171.97C152.212 172.795 151.414 174.306 149.354 174.78L139.695 176.933C137.995 177.243 136.793 175.999 136.019 174.969C129.712 167.142 120.233 154.234 117.99 152.106C117.526 151.703 117.191 151.471 116.908 151.523C116.719 151.557 116.693 151.952 116.797 152.519L116.917 153.18L128.491 192.542L128.509 192.636C128.698 193.675 127.738 195.899 125.695 196.467L107.838 201.287L107.743 201.304C106.232 201.58 104.935 200.353 104.694 199.031L87.6721 126.606C87.4825 125.567 87.7907 124.047 89.5506 123.531L107.966 119.097L108.155 119.063C109.477 118.821 111.504 119.232 111.967 119.636C117.595 124.269 129.022 136.626 139.196 148.529C139.437 148.778 139.549 148.855 139.738 148.821C139.926 148.786 139.986 148.58 140.124 148.262C145.438 133.533 151.782 118.03 155.41 111.708C155.702 111.167 157.075 110.136 158.397 109.895L158.586 109.86L177.552 107.375C179.364 107.142 180.171 108.361 180.361 109.4L180.395 109.589L190.54 183.366C190.687 184.706 189.907 186.312 188.49 186.57Z" fill="white"/>
</mask>
<g mask="url(#mask8_107_484)">
<rect x="39.8876" y="89.0547" width="206.253" height="180.24" transform="rotate(-18.5642 39.8876 89.0547)" fill="#805944"/>
<path d="M271.969 103.09C187.559 170.884 140.227 191.748 55.7795 138.457L27.3308 -3.34653L158.05 -56.552L271.969 103.09Z" fill="#AE6D4B"/>
</g>
<mask id="mask9_107_484" style="mask-type:alpha" maskUnits="userSpaceOnUse" x="87" y="107" width="104" height="95">
<path d="M188.49 186.57L188.396 186.587L168.966 188.669C166.871 188.954 165.547 187.048 165.358 186.01L165.34 185.915L162.334 144.307L162.248 143.835C162.128 143.174 161.964 142.813 161.681 142.865C161.492 142.899 161.26 143.234 160.969 143.775C159.7 146.447 155.494 162.437 152.452 171.97C152.212 172.795 151.414 174.306 149.354 174.78L139.695 176.933C137.995 177.243 136.793 175.999 136.019 174.969C129.712 167.142 120.233 154.234 117.99 152.106C117.526 151.703 117.191 151.471 116.908 151.523C116.719 151.557 116.693 151.952 116.797 152.519L116.917 153.18L128.491 192.542L128.509 192.636C128.698 193.675 127.738 195.899 125.695 196.467L107.838 201.287L107.743 201.304C106.232 201.58 104.935 200.353 104.694 199.031L87.6721 126.606C87.4825 125.567 87.7907 124.047 89.5506 123.531L107.966 119.097L108.155 119.063C109.477 118.821 111.504 119.232 111.967 119.636C117.595 124.269 129.022 136.626 139.196 148.529C139.437 148.778 139.549 148.855 139.738 148.821C139.926 148.786 139.986 148.58 140.124 148.262C145.438 133.533 151.782 118.03 155.41 111.708C155.702 111.167 157.075 110.136 158.397 109.895L158.586 109.86L177.552 107.375C179.364 107.142 180.171 108.361 180.361 109.4L180.395 109.589L190.54 183.366C190.687 184.706 189.907 186.312 188.49 186.57Z" fill="white"/>
</mask>
<g mask="url(#mask9_107_484)">
<mask id="mask10_107_484" style="mask-type:alpha" maskUnits="userSpaceOnUse" x="81" y="101" width="116" height="107">
<path d="M131.46 192.098C131.737 193.613 131.183 195.194 130.485 196.315C129.713 197.553 128.403 198.828 126.498 199.357L126.487 199.361L126.476 199.363L108.619 204.183L108.499 204.216L108.282 204.256C104.819 204.888 102.306 202.208 101.774 199.718L84.7517 127.292L84.7343 127.219L84.7208 127.145C84.5383 126.144 84.5721 124.842 85.1709 123.583C85.8182 122.223 87.0226 121.146 88.706 120.652L88.7767 120.631L88.848 120.614L107.263 116.181L107.345 116.161L107.616 116.111C108.746 115.905 109.963 115.994 110.881 116.149C111.364 116.23 111.856 116.345 112.306 116.495C112.635 116.604 113.295 116.844 113.871 117.322L113.874 117.319C119.209 121.712 129.291 132.514 138.716 143.377C143.711 129.858 149.361 116.221 152.808 110.215L152.81 110.216C153.107 109.691 153.5 109.286 153.774 109.031C154.104 108.725 154.481 108.435 154.877 108.176C155.64 107.679 156.688 107.157 157.859 106.943L158.122 106.895L158.197 106.886L177.162 104.401L177.169 104.4C178.867 104.181 180.413 104.642 181.567 105.678C182.631 106.631 183.13 107.86 183.313 108.861L183.359 109.115L183.368 109.18L193.512 182.958L193.517 182.998L193.522 183.039C193.667 184.364 193.362 185.748 192.687 186.895C191.999 188.064 190.784 189.201 189.029 189.521L188.825 189.559L188.715 189.571L169.286 191.652L169.285 191.65C167.197 191.906 165.512 191.058 164.409 190.037C163.373 189.079 162.631 187.779 162.406 186.548L162.36 186.294L162.348 186.132L160.196 156.345C158.636 161.765 156.844 168.06 155.331 172.808C154.899 174.294 153.484 176.909 150.026 177.704L150.016 177.706L150.007 177.709L140.348 179.861L140.291 179.873L140.233 179.884C136.712 180.526 134.508 177.935 133.683 176.851L132.456 175.314C129.516 171.608 126.095 167.121 123.102 163.229C123.047 163.157 122.991 163.085 122.936 163.014L131.37 191.695L131.414 191.847L131.46 192.098Z" fill="white" stroke="black" stroke-width="6"/>
</mask>
<g mask="url(#mask10_107_484)">
<path d="M183.997 98.9121L184.484 107.211C185.584 110.56 184.257 114.434 182.555 117.639C180.763 121.011 178.304 124.111 176.619 125.999L175.513 127.238L174.393 126.012C172.302 123.722 170.988 121.724 169.8 118.875C168.98 122.034 168.032 124.499 166.192 126.91L165.152 128.273L163.939 127.061C162.333 125.455 160.734 123.651 159.024 121.07C159.19 125.781 158.845 129.332 158.488 132.187L158.264 133.987L156.537 133.427C155.069 132.95 154.044 132.477 153.118 131.927C155.082 136.565 156.067 139.689 156.471 141.706L156.83 143.5H155C153.037 143.5 151.612 143.507 150.043 143.15C149.449 143.015 148.845 142.83 148.187 142.585C148.792 143.914 149.233 145.034 149.556 146.087C150.152 148.034 150.333 149.693 150.496 151.889L150.643 153.858L148.706 153.471C147.322 153.194 146.308 152.656 145.477 152.068C145.376 153.405 145.169 154.729 144.89 155.953C144.398 158.11 143.639 160.149 142.7 161.4L141.849 162.535L140.668 161.748C139.625 161.052 138.724 159.789 137.93 158.567C137.512 157.925 137.078 157.218 136.639 156.509C136.633 156.5 136.627 156.491 136.621 156.481C136.608 156.506 136.597 156.532 136.583 156.557C136.096 157.445 135.399 158.537 134.332 159.248L133.282 159.948L132.413 159.033C130.945 157.489 130 154.873 129.171 151.57C128.478 148.813 127.817 145.345 127.056 141.185C126.157 142.2 125.557 142.975 124.871 143.746C123.746 145.012 122.609 145.989 120.229 147.312L118.685 148.169L118.088 146.507C116.052 140.837 114.941 138.021 113.977 134.24C113.703 135.515 113.455 136.651 113.207 137.668C112.569 140.285 111.904 142.317 110.803 144.244L109.628 146.299L108.271 144.36C105.507 140.411 102.878 137.858 99.2344 131.499C98.9047 137.826 98.4574 141.713 95.916 148.994L95.0303 151.532L93.3359 149.446C91.5868 147.293 89.961 144.245 88.5186 141.084C87.0662 137.901 85.7535 134.501 84.6582 131.591C83.5444 128.631 82.6873 126.268 82.1025 125.018C81.991 124.779 81.9044 124.62 81.8467 124.522L81 124.5C81 124.184 81.0116 123.868 81.0488 123.581L81.502 115.417L81.5693 114.217L82.7549 114.021L182.255 97.5205L183.899 97.2471L183.997 98.9121ZM81.8818 124.524C81.9583 124.593 82.2287 124.811 82.668 124.835C83.0419 124.855 83.3353 124.73 83.5479 124.578C83.5467 124.575 83.5451 124.573 83.5439 124.57L81.8818 124.524Z" fill="#67432F" stroke="#67432F" stroke-width="3"/>
</g>
</g>
<mask id="mask11_107_484" style="mask-type:alpha" maskUnits="userSpaceOnUse" x="86" y="106" width="106" height="97">
<path d="M129.001 192.546C129.126 193.232 128.873 194.175 128.363 194.993C127.841 195.83 126.997 196.624 125.828 196.949L125.825 196.95L107.968 201.77L107.948 201.775L107.833 201.796C105.995 202.132 104.497 200.66 104.207 199.145L87.1858 126.721L87.1825 126.708L87.1802 126.696C87.0708 126.096 87.1011 125.346 87.4287 124.657C87.7644 123.952 88.3961 123.348 89.4098 123.051L89.4221 123.048L89.4335 123.045L107.849 118.611L107.862 118.608L108.065 118.571C108.804 118.436 109.705 118.486 110.466 118.614C110.851 118.679 111.214 118.767 111.519 118.868C111.801 118.961 112.09 119.085 112.285 119.25L112.286 119.25C117.949 123.913 129.397 136.294 139.564 148.188C139.576 148.2 139.587 148.212 139.597 148.222C139.602 148.21 139.609 148.196 139.615 148.182C139.627 148.152 139.641 148.118 139.656 148.082C144.802 133.82 150.928 118.794 154.626 112.083L154.976 111.46C155.088 111.258 155.271 111.052 155.474 110.864C155.688 110.666 155.951 110.462 156.244 110.271C156.826 109.891 157.562 109.539 158.307 109.403L158.508 109.366L158.521 109.365L177.487 106.88L177.488 106.88C178.526 106.746 179.33 107.028 179.899 107.539C180.453 108.035 180.744 108.71 180.853 109.31L180.89 109.51L180.891 109.521L191.036 183.298L191.037 183.312C191.123 184.091 190.94 184.935 190.533 185.627C190.123 186.323 189.463 186.901 188.58 187.062L188.467 187.083L188.449 187.085L169.019 189.166L169.019 189.165C167.798 189.326 166.804 188.848 166.107 188.203C165.421 187.567 164.982 186.737 164.866 186.099L164.843 185.978L164.841 185.951L161.837 144.366L161.757 143.924C161.73 143.776 161.701 143.657 161.675 143.562C161.601 143.675 161.513 143.819 161.415 144C161.117 144.633 160.629 146.09 160.009 148.114C159.39 150.133 158.651 152.676 157.856 155.438C156.267 160.956 154.452 167.347 152.928 172.123C152.652 173.06 151.749 174.742 149.466 175.267L149.463 175.268L139.804 177.421L139.785 177.425C137.775 177.791 136.404 176.311 135.629 175.282C132.471 171.363 128.519 166.172 125.083 161.705C123.364 159.469 121.775 157.415 120.476 155.787C119.173 154.156 118.186 152.983 117.654 152.476C117.491 152.334 117.359 152.228 117.249 152.151C117.257 152.232 117.27 152.324 117.289 152.429L117.405 153.065L128.971 192.401L128.979 192.425L129.001 192.546Z" fill="white" stroke="black"/>
</mask>
<g mask="url(#mask11_107_484)">
<path d="M82.5 124.5C82.5 118 88 140.5 94.5 148.5C97.6105 139.588 97.5 136 98 126C103 136 106 138.5 109.5 143.5C111.5 140 112 136 114 127C115.5 135.5 116.431 137.452 119.5 146C124 143.5 123.5 142.5 128 138C130 149 131.167 155.547 133.5 158C135 157 135.713 154.728 136.5 153.5C138.5 156.5 140 159.5 141.5 160.5C143 158.5 144.306 153.318 144 149C145.5 150 146.5 151.5 149 152C148.678 147.66 148.313 145.908 145 139.5C150 142 151 142 155 142C154.5 139.5 153 135 149.5 127.5C153 130 153.669 130.918 157 132C157.5 128 157.982 122.625 157 114.5C160 120.5 162.5 123.5 165 126C167.477 122.753 168.204 119.43 169.5 113.5C171.279 119.27 172.584 121.807 175.5 125C178.779 121.325 185 113 183 107.5L182.5 99L83 115.5L82.5 124.5Z" fill="#66D241"/>
</g>
</svg>
